SplineFontDB: 3.0
FontName: SpurceSans-ExtraLight
FullName: Spurce Sans ExtraLight
FamilyName: Spurce Sans
Weight: ExtraLight
Copyright: Copyright 2020 Nicholas Auler, with font name 'Spurce'.\n\nBased on Source Sans, Copyright 2010, 2012, 2014 Adobe Systems Incorporated (http://www.adobe.com/), with Reserved Font Name `Source'.
UComments: "This font is still in beta. If you find any issues, contact me at nicholas.auler@gmail.com+AAoA"
Version: 0.6
ItalicAngle: 0
UnderlinePosition: -100
UnderlineWidth: 50
Ascent: 750
Descent: 250
InvalidEm: 0
sfntRevision: 0x0000999a
LayerCount: 2
Layer: 0 1 "Back" 1
Layer: 1 1 "Fore" 0
XUID: [1021 316 771282308 7998]
StyleMap: 0x0040
FSType: 0
OS2Version: 3
OS2_WeightWidthSlopeOnly: 0
OS2_UseTypoMetrics: 0
CreationTime: 1441032309
ModificationTime: 1588186616
PfmFamily: 33
TTFWeight: 275
TTFWidth: 5
LineGap: 0
VLineGap: 0
Panose: 2 11 3 3 3 4 3 2 2 4
OS2TypoAscent: 750
OS2TypoAOffset: 0
OS2TypoDescent: -250
OS2TypoDOffset: 0
OS2TypoLinegap: 0
OS2WinAscent: 984
OS2WinAOffset: 0
OS2WinDescent: 273
OS2WinDOffset: 0
HheadAscent: 984
HheadAOffset: 0
HheadDescent: -273
HheadDOffset: 0
OS2SubXSize: 650
OS2SubYSize: 600
OS2SubXOff: 0
OS2SubYOff: 75
OS2SupXSize: 650
OS2SupYSize: 600
OS2SupXOff: 0
OS2SupYOff: 350
OS2StrikeYSize: 50
OS2StrikeYPos: 286
OS2CapHeight: 660
OS2XHeight: 478
OS2Vendor: 'ADBO'
OS2CodePages: 2000019f.00000000
OS2UnicodeRanges: 600002f7.02000001.00000000.00000000
Lookup: 1 0 0 "'aalt' Access All Alternates lookup 0" { "'aalt' Access All Alternates lookup 0 subtable"  } ['aalt' ('DFLT' <'dflt' > 'cyrl' <'SRB ' 'dflt' > 'grek' <'dflt' > 'latn' <'AZE ' 'CRT ' 'NSM ' 'SKS ' 'TRK ' 'dflt' > ) ]
Lookup: 3 0 0 "'aalt' Access All Alternates lookup 1" { "'aalt' Access All Alternates lookup 1 subtable"  } ['aalt' ('DFLT' <'dflt' > 'cyrl' <'SRB ' 'dflt' > 'grek' <'dflt' > 'latn' <'AZE ' 'CRT ' 'NSM ' 'SKS ' 'TRK ' 'dflt' > ) ]

StartChar: .notdef
Encoding: 1114112 -1 0
Width: 624
Flags: W
LayerCount: 2
Fore
SplineSet
96 0 m 1,0,-1
 96 660 l 1,1,-1
 528 660 l 1,2,-1
 528 0 l 1,3,-1
 96 0 l 1,0,-1
144 32 m 1,4,-1
 476 32 l 1,5,-1
 376 208 l 1,6,-1
 314 314 l 1,7,-1
 310 314 l 1,8,-1
 246 208 l 1,9,-1
 144 32 l 1,4,-1
310 366 m 1,10,-1
 314 366 l 1,11,-1
 368 458 l 1,12,-1
 462 626 l 1,13,-1
 160 626 l 1,14,-1
 254 458 l 1,15,-1
 310 366 l 1,10,-1
134 74 m 1,16,-1
 288 340 l 1,17,-1
 134 610 l 1,18,-1
 134 74 l 1,16,-1
488 74 m 1,19,-1
 488 610 l 1,20,-1
 336 340 l 1,21,-1
 488 74 l 1,19,-1
EndSplineSet
Validated: 1
EndChar

StartChar: A
Encoding: 65 65 2
Width: 520
GlyphClass: 2
Flags: W
AnchorPoint: "Anchor-8" 456 0 basechar 0
AnchorPoint: "Anchor-4" 260 -22 basechar 0
AnchorPoint: "Anchor-1" 260 682 basechar 0
LayerCount: 2
Fore
SplineSet
182 396 m 2,0,-1
 135 264 l 1,1,-1
 384 264 l 1,2,-1
 338 396 l 2,3,4
 317 456 317 456 298.5 510 c 128,-1,5
 280 564 280 564 262 626 c 1,6,-1
 258 626 l 1,7,8
 240 564 240 564 221.5 510 c 128,-1,9
 203 456 203 456 182 396 c 2,0,-1
10 0 m 1,10,-1
 246 660 l 1,11,-1
 274 660 l 1,12,-1
 510 0 l 1,13,-1
 476 0 l 1,14,-1
 394 236 l 1,15,-1
 125 236 l 1,16,-1
 42 0 l 1,17,-1
 10 0 l 1,10,-1
EndSplineSet
Validated: 1
Substitution2: "'sups' Superscript lookup 27 subtable" A.sups
Substitution2: "'c2sc' Capitals to Small Capitals lookup 17 subtable" A.sc
AlternateSubs2: "'aalt' Access All Alternates lookup 1 subtable" A.sc A.sups
EndChar

StartChar: B
Encoding: 66 66 3
Width: 574
GlyphClass: 2
Flags: W
AnchorPoint: "Anchor-4" 292 -22 basechar 0
AnchorPoint: "Anchor-1" 276 682 basechar 0
LayerCount: 2
Fore
SplineSet
100 0 m 1,0,-1
 100 660 l 1,1,-1
 272 660 l 2,2,3
 372 660 372 660 429 620.5 c 128,-1,4
 486 581 486 581 486 500 c 0,5,6
 486 447 486 447 459.5 409 c 128,-1,7
 433 371 433 371 382 356 c 1,8,-1
 382 352 l 1,9,10
 448 341 448 341 488 301 c 128,-1,11
 528 261 528 261 528 192 c 0,12,13
 528 97 528 97 462.5 48.5 c 128,-1,14
 397 0 397 0 284 0 c 2,15,-1
 100 0 l 1,0,-1
132 366 m 1,16,-1
 252 366 l 2,17,18
 360 366 360 366 407 401 c 128,-1,19
 454 436 454 436 454 498 c 0,20,21
 454 572 454 572 404.5 602 c 128,-1,22
 355 632 355 632 258 632 c 2,23,-1
 132 632 l 1,24,-1
 132 366 l 1,16,-1
132 28 m 1,25,-1
 272 28 l 2,26,27
 324 28 324 28 365.5 37.5 c 128,-1,28
 407 47 407 47 436 67 c 128,-1,29
 465 87 465 87 480.5 117.5 c 128,-1,30
 496 148 496 148 496 190 c 0,31,32
 496 265 496 265 437.5 301.5 c 128,-1,33
 379 338 379 338 272 338 c 2,34,-1
 132 338 l 1,35,-1
 132 28 l 1,25,-1
EndSplineSet
Validated: 1
Substitution2: "'sups' Superscript lookup 27 subtable" B.sups
Substitution2: "'c2sc' Capitals to Small Capitals lookup 17 subtable" B.sc
AlternateSubs2: "'aalt' Access All Alternates lookup 1 subtable" B.sc B.sups
EndChar

StartChar: C
Encoding: 67 67 4
Width: 562
GlyphClass: 2
Flags: W
AnchorPoint: "Anchor-4" 338 -22 basechar 0
AnchorPoint: "Anchor-3" 338 0 basechar 0
AnchorPoint: "Anchor-1" 318 682 basechar 0
LayerCount: 2
Fore
SplineSet
328 -12 m 0,0,1
 267 -12 267 -12 217 12.5 c 128,-1,2
 167 37 167 37 131 82 c 128,-1,3
 95 127 95 127 75.5 190.5 c 128,-1,4
 56 254 56 254 56 332 c 256,5,6
 56 410 56 410 76 473 c 128,-1,7
 96 536 96 536 132 580 c 128,-1,8
 168 624 168 624 219.5 648 c 128,-1,9
 271 672 271 672 334 672 c 0,10,11
 391 672 391 672 433.5 648 c 128,-1,12
 476 624 476 624 502 594 c 1,13,-1
 482 572 l 1,14,15
 455 604 455 604 418 623 c 128,-1,16
 381 642 381 642 334 642 c 0,17,18
 277 642 277 642 231.5 620.5 c 128,-1,19
 186 599 186 599 154.5 558.5 c 128,-1,20
 123 518 123 518 106.5 460.5 c 128,-1,21
 90 403 90 403 90 332 c 256,22,23
 90 261 90 261 106.5 203 c 128,-1,24
 123 145 123 145 154.5 104 c 128,-1,25
 186 63 186 63 230 40.5 c 128,-1,26
 274 18 274 18 330 18 c 0,27,28
 383 18 383 18 423.5 39 c 128,-1,29
 464 60 464 60 502 102 c 1,30,-1
 522 82 l 1,31,32
 484 38 484 38 438.5 13 c 128,-1,33
 393 -12 393 -12 328 -12 c 0,0,1
EndSplineSet
Validated: 1
Substitution2: "'sups' Superscript lookup 27 subtable" C.sups
Substitution2: "'c2sc' Capitals to Small Capitals lookup 17 subtable" C.sc
AlternateSubs2: "'aalt' Access All Alternates lookup 1 subtable" C.sc C.sups
EndChar

StartChar: D
Encoding: 68 68 5
Width: 600
GlyphClass: 2
Flags: W
AnchorPoint: "Anchor-4" 298 -22 basechar 0
AnchorPoint: "Anchor-1" 300 682 basechar 0
LayerCount: 2
Fore
SplineSet
100 0 m 1,0,-1
 100 660 l 1,1,-1
 248 660 l 2,2,3
 324 660 324 660 380 636.5 c 128,-1,4
 436 613 436 613 472.5 569.5 c 128,-1,5
 509 526 509 526 526.5 465.5 c 128,-1,6
 544 405 544 405 544 332 c 0,7,8
 544 258 544 258 526.5 197 c 128,-1,9
 509 136 509 136 472.5 92.5 c 128,-1,10
 436 49 436 49 380 24.5 c 128,-1,11
 324 0 324 0 248 0 c 2,12,-1
 100 0 l 1,0,-1
132 28 m 1,13,-1
 244 28 l 2,14,15
 314 28 314 28 364.5 51 c 128,-1,16
 415 74 415 74 447.5 114.5 c 128,-1,17
 480 155 480 155 495 211 c 128,-1,18
 510 267 510 267 510 332 c 256,19,20
 510 397 510 397 495 452 c 128,-1,21
 480 507 480 507 447.5 547 c 128,-1,22
 415 587 415 587 364.5 609.5 c 128,-1,23
 314 632 314 632 244 632 c 2,24,-1
 132 632 l 1,25,-1
 132 28 l 1,13,-1
EndSplineSet
Validated: 1
Substitution2: "'sups' Superscript lookup 27 subtable" D.sups
Substitution2: "'c2sc' Capitals to Small Capitals lookup 17 subtable" D.sc
AlternateSubs2: "'aalt' Access All Alternates lookup 1 subtable" D.sc D.sups
EndChar

StartChar: E
Encoding: 69 69 6
Width: 510
GlyphClass: 2
Flags: W
AnchorPoint: "Anchor-8" 384 0 basechar 0
AnchorPoint: "Anchor-4" 300 -22 basechar 0
AnchorPoint: "Anchor-1" 282 682 basechar 0
LayerCount: 2
Fore
SplineSet
100 0 m 1,0,-1
 100 660 l 1,1,-1
 454 660 l 1,2,-1
 454 632 l 1,3,-1
 132 632 l 1,4,-1
 132 366 l 1,5,-1
 402 366 l 1,6,-1
 402 338 l 1,7,-1
 132 338 l 1,8,-1
 132 28 l 1,9,-1
 464 28 l 1,10,-1
 464 0 l 1,11,-1
 100 0 l 1,0,-1
EndSplineSet
Validated: 1
Substitution2: "'sups' Superscript lookup 27 subtable" E.sups
Substitution2: "'c2sc' Capitals to Small Capitals lookup 17 subtable" E.sc
AlternateSubs2: "'aalt' Access All Alternates lookup 1 subtable" E.sc E.sups
EndChar

StartChar: F
Encoding: 70 70 7
Width: 470
GlyphClass: 2
Flags: W
AnchorPoint: "Anchor-4" 116 -22 basechar 0
AnchorPoint: "Anchor-1" 284 682 basechar 0
LayerCount: 2
Fore
SplineSet
100 0 m 1,0,-1
 100 660 l 1,1,-1
 452 660 l 1,2,-1
 452 632 l 1,3,-1
 132 632 l 1,4,-1
 132 354 l 1,5,-1
 402 354 l 1,6,-1
 402 326 l 1,7,-1
 132 326 l 1,8,-1
 132 0 l 1,9,-1
 100 0 l 1,0,-1
EndSplineSet
Validated: 1
Substitution2: "'sups' Superscript lookup 27 subtable" F.sups
Substitution2: "'c2sc' Capitals to Small Capitals lookup 17 subtable" F.sc
AlternateSubs2: "'aalt' Access All Alternates lookup 1 subtable" F.sc F.sups
EndChar

StartChar: G
Encoding: 71 71 8
Width: 600
GlyphClass: 2
Flags: W
AnchorPoint: "Anchor-4" 336 -22 basechar 0
AnchorPoint: "Anchor-1" 342 682 basechar 0
LayerCount: 2
Fore
SplineSet
334 -12 m 0,0,1
 271 -12 271 -12 219.5 12.5 c 128,-1,2
 168 37 168 37 132 82 c 128,-1,3
 96 127 96 127 76 190.5 c 128,-1,4
 56 254 56 254 56 332 c 256,5,6
 56 410 56 410 76.5 473 c 128,-1,7
 97 536 97 536 134.5 580 c 128,-1,8
 172 624 172 624 225.5 648 c 128,-1,9
 279 672 279 672 344 672 c 0,10,11
 377 672 377 672 404 665 c 128,-1,12
 431 658 431 658 452.5 646.5 c 128,-1,13
 474 635 474 635 490.5 621 c 128,-1,14
 507 607 507 607 520 594 c 1,15,-1
 500 572 l 1,16,17
 474 601 474 601 437 621.5 c 128,-1,18
 400 642 400 642 344 642 c 0,19,20
 285 642 285 642 238 620.5 c 128,-1,21
 191 599 191 599 158 558.5 c 128,-1,22
 125 518 125 518 107.5 460.5 c 128,-1,23
 90 403 90 403 90 332 c 256,24,25
 90 261 90 261 107 203 c 128,-1,26
 124 145 124 145 155.5 104 c 128,-1,27
 187 63 187 63 232.5 40.5 c 128,-1,28
 278 18 278 18 336 18 c 0,29,30
 384 18 384 18 426 32 c 128,-1,31
 468 46 468 46 494 72 c 1,32,-1
 494 290 l 1,33,-1
 330 290 l 1,34,-1
 330 318 l 1,35,-1
 526 318 l 1,36,-1
 526 62 l 1,37,38
 496 29 496 29 447.5 8.5 c 128,-1,39
 399 -12 399 -12 334 -12 c 0,0,1
EndSplineSet
Validated: 1
Substitution2: "'sups' Superscript lookup 27 subtable" G.sups
Substitution2: "'c2sc' Capitals to Small Capitals lookup 17 subtable" G.sc
AlternateSubs2: "'aalt' Access All Alternates lookup 1 subtable" G.sc G.sups
EndChar

StartChar: H
Encoding: 72 72 9
Width: 634
GlyphClass: 2
Flags: W
AnchorPoint: "Anchor-4" 316 -22 basechar 0
AnchorPoint: "Anchor-1" 316 682 basechar 0
LayerCount: 2
Fore
SplineSet
100 0 m 1,0,-1
 100 660 l 1,1,-1
 132 660 l 1,2,-1
 132 366 l 1,3,-1
 502 366 l 1,4,-1
 502 660 l 1,5,-1
 534 660 l 1,6,-1
 534 0 l 1,7,-1
 502 0 l 1,8,-1
 502 338 l 1,9,-1
 132 338 l 1,10,-1
 132 0 l 1,11,-1
 100 0 l 1,0,-1
EndSplineSet
Validated: 1
Substitution2: "'sups' Superscript lookup 27 subtable" H.sups
Substitution2: "'c2sc' Capitals to Small Capitals lookup 17 subtable" H.sc
AlternateSubs2: "'aalt' Access All Alternates lookup 1 subtable" H.sc H.sups
EndChar

StartChar: I
Encoding: 73 73 10
Width: 300
GlyphClass: 2
Flags: W
LayerCount: 2
Fore
SplineSet
42 0 m 1,0,-1
 42 28 l 1,1,-1
 134 28 l 1,2,-1
 134 632 l 1,3,-1
 42 632 l 1,4,-1
 42 660 l 1,5,-1
 258 660 l 1,6,-1
 258 632 l 1,7,-1
 166 632 l 1,8,-1
 166 28 l 1,9,-1
 258 28 l 1,10,-1
 258 0 l 1,11,-1
 42 0 l 1,0,-1
EndSplineSet
Validated: 1
Substitution2: "'ss04' Style Set 4 lookup 43 subtable" I.a
Substitution2: "'sups' Superscript lookup 27 subtable" I.sups
Substitution2: "'c2sc' Capitals to Small Capitals lookup 17 subtable" I.sc
AlternateSubs2: "'aalt' Access All Alternates lookup 1 subtable" I.sc I.sups I.a
EndChar

StartChar: J
Encoding: 74 74 11
Width: 456
GlyphClass: 2
Flags: W
AnchorPoint: "Anchor-4" 240 -22 basechar 0
AnchorPoint: "Anchor-1" 338 682 basechar 0
LayerCount: 2
Fore
SplineSet
200 -12 m 0,0,1
 147 -12 147 -12 107.5 12.5 c 128,-1,2
 68 37 68 37 44 82 c 1,3,-1
 70 98 l 1,4,5
 96 54 96 54 127 36 c 128,-1,6
 158 18 158 18 202 18 c 0,7,8
 265 18 265 18 295.5 56.5 c 128,-1,9
 326 95 326 95 326 178 c 2,10,-1
 326 660 l 1,11,-1
 358 660 l 1,12,-1
 358 174 l 2,13,14
 358 135 358 135 349.5 101 c 128,-1,15
 341 67 341 67 322.5 42 c 128,-1,16
 304 17 304 17 273.5 2.5 c 128,-1,17
 243 -12 243 -12 200 -12 c 0,0,1
EndSplineSet
Validated: 1
Substitution2: "'sups' Superscript lookup 27 subtable" J.sups
Substitution2: "'c2sc' Capitals to Small Capitals lookup 17 subtable" J.sc
AlternateSubs2: "'aalt' Access All Alternates lookup 1 subtable" J.sc J.sups
EndChar

StartChar: K
Encoding: 75 75 12
Width: 550
GlyphClass: 2
Flags: W
AnchorPoint: "Anchor-4" 324 -22 basechar 0
AnchorPoint: "Anchor-1" 304 682 basechar 0
LayerCount: 2
Fore
SplineSet
100 0 m 1,0,-1
 100 660 l 1,1,-1
 132 660 l 1,2,-1
 132 280 l 1,3,-1
 134 280 l 1,4,-1
 470 660 l 1,5,-1
 510 660 l 1,6,-1
 298 418 l 1,7,-1
 538 0 l 1,8,-1
 500 0 l 1,9,-1
 274 394 l 1,10,-1
 132 234 l 1,11,-1
 132 0 l 1,12,-1
 100 0 l 1,0,-1
EndSplineSet
Validated: 1
Substitution2: "'sups' Superscript lookup 27 subtable" K.sups
Substitution2: "'c2sc' Capitals to Small Capitals lookup 17 subtable" K.sc
AlternateSubs2: "'aalt' Access All Alternates lookup 1 subtable" K.sc K.sups
EndChar

StartChar: L
Encoding: 76 76 13
Width: 460
GlyphClass: 2
Flags: W
AnchorPoint: "Anchor-4" 288 -22 basechar 0
AnchorPoint: "Anchor-1" 116 682 basechar 0
LayerCount: 2
Fore
SplineSet
100 0 m 1,0,-1
 100 660 l 1,1,-1
 132 660 l 1,2,-1
 132 28 l 1,3,-1
 442 28 l 1,4,-1
 442 0 l 1,5,-1
 100 0 l 1,0,-1
EndSplineSet
Validated: 1
Substitution2: "'sups' Superscript lookup 27 subtable" L.sups
Substitution2: "'c2sc' Capitals to Small Capitals lookup 17 subtable" L.sc
AlternateSubs2: "'aalt' Access All Alternates lookup 1 subtable" L.sc L.sups
EndChar

StartChar: M
Encoding: 77 77 14
Width: 698
GlyphClass: 2
Flags: W
AnchorPoint: "Anchor-4" 350 -22 basechar 0
AnchorPoint: "Anchor-1" 348 682 basechar 0
LayerCount: 2
Fore
SplineSet
100 0 m 1,0,-1
 100 660 l 1,1,-1
 152 660 l 1,2,-1
 294 260 l 1,3,-1
 348 110 l 1,4,-1
 352 110 l 1,5,6
 366 148 366 148 378 185 c 128,-1,7
 390 222 390 222 404 260 c 2,8,-1
 546 660 l 1,9,-1
 598 660 l 1,10,-1
 598 0 l 1,11,-1
 566 0 l 1,12,-1
 566 460 l 2,13,14
 566 499 566 499 567 545 c 128,-1,15
 568 591 568 591 570 632 c 1,16,-1
 566 632 l 1,17,-1
 515 486 l 1,18,-1
 366 74 l 1,19,-1
 332 74 l 1,20,-1
 182 486 l 1,21,-1
 130 632 l 1,22,-1
 126 632 l 1,23,24
 128 591 128 591 129 545 c 128,-1,25
 130 499 130 499 130 460 c 2,26,-1
 130 0 l 1,27,-1
 100 0 l 1,0,-1
EndSplineSet
Validated: 1
Substitution2: "'sups' Superscript lookup 27 subtable" M.sups
Substitution2: "'c2sc' Capitals to Small Capitals lookup 17 subtable" M.sc
AlternateSubs2: "'aalt' Access All Alternates lookup 1 subtable" M.sc M.sups
EndChar

StartChar: N
Encoding: 78 78 15
Width: 632
GlyphClass: 2
Flags: W
AnchorPoint: "Anchor-4" 314 -22 basechar 0
AnchorPoint: "Anchor-1" 322 682 basechar 0
LayerCount: 2
Fore
SplineSet
100 0 m 1,0,-1
 100 660 l 1,1,-1
 134 660 l 1,2,-1
 426 176 l 1,3,-1
 502 46 l 1,4,-1
 506 46 l 1,5,6
 504 94 504 94 503 139.5 c 128,-1,7
 502 185 502 185 502 232 c 2,8,-1
 502 660 l 1,9,-1
 532 660 l 1,10,-1
 532 0 l 1,11,-1
 498 0 l 1,12,-1
 206 484 l 1,13,-1
 130 614 l 1,14,-1
 126 614 l 1,15,16
 128 567 128 567 129 524 c 128,-1,17
 130 481 130 481 130 434 c 2,18,-1
 130 0 l 1,19,-1
 100 0 l 1,0,-1
EndSplineSet
Validated: 1
Substitution2: "'sups' Superscript lookup 27 subtable" N.sups
Substitution2: "'c2sc' Capitals to Small Capitals lookup 17 subtable" N.sc
AlternateSubs2: "'aalt' Access All Alternates lookup 1 subtable" N.sc N.sups
EndChar

StartChar: O
Encoding: 79 79 16
Width: 648
GlyphClass: 2
Flags: W
AnchorPoint: "Anchor-8" 324 0 basechar 0
AnchorPoint: "Anchor-6" 456 650 basechar 0
AnchorPoint: "Anchor-4" 324 -22 basechar 0
AnchorPoint: "Anchor-1" 324 682 basechar 0
LayerCount: 2
Fore
SplineSet
324 -12 m 0,0,1
 265 -12 265 -12 216 12.5 c 128,-1,2
 167 37 167 37 131.5 82 c 128,-1,3
 96 127 96 127 76 190.5 c 128,-1,4
 56 254 56 254 56 332 c 256,5,6
 56 410 56 410 76 473 c 128,-1,7
 96 536 96 536 131.5 580 c 128,-1,8
 167 624 167 624 216 648 c 128,-1,9
 265 672 265 672 324 672 c 0,10,11
 382 672 382 672 431.5 648 c 128,-1,12
 481 624 481 624 516.5 580 c 128,-1,13
 552 536 552 536 572 473 c 128,-1,14
 592 410 592 410 592 332 c 256,15,16
 592 254 592 254 572 190.5 c 128,-1,17
 552 127 552 127 516.5 82 c 128,-1,18
 481 37 481 37 431.5 12.5 c 128,-1,19
 382 -12 382 -12 324 -12 c 0,0,1
324 18 m 0,20,21
 376 18 376 18 419.5 40.5 c 128,-1,22
 463 63 463 63 493.5 104 c 128,-1,23
 524 145 524 145 541 203 c 128,-1,24
 558 261 558 261 558 332 c 256,25,26
 558 403 558 403 541 460.5 c 128,-1,27
 524 518 524 518 493.5 558.5 c 128,-1,28
 463 599 463 599 419.5 620.5 c 128,-1,29
 376 642 376 642 324 642 c 0,30,31
 271 642 271 642 228 620.5 c 128,-1,32
 185 599 185 599 154.5 558.5 c 128,-1,33
 124 518 124 518 107 460.5 c 128,-1,34
 90 403 90 403 90 332 c 256,35,36
 90 261 90 261 107 203 c 128,-1,37
 124 145 124 145 154.5 104 c 128,-1,38
 185 63 185 63 228 40.5 c 128,-1,39
 271 18 271 18 324 18 c 0,20,21
EndSplineSet
Validated: 1
Substitution2: "'sups' Superscript lookup 27 subtable" O.sups
Substitution2: "'c2sc' Capitals to Small Capitals lookup 17 subtable" O.sc
AlternateSubs2: "'aalt' Access All Alternates lookup 1 subtable" O.sc O.sups
EndChar

StartChar: P
Encoding: 80 80 17
Width: 542
GlyphClass: 2
Flags: W
AnchorPoint: "Anchor-4" 118 -22 basechar 0
AnchorPoint: "Anchor-1" 292 682 basechar 0
LayerCount: 2
Fore
SplineSet
100 0 m 1,0,-1
 100 660 l 1,1,-1
 258 660 l 2,2,3
 314 660 314 660 358 650.5 c 128,-1,4
 402 641 402 641 432 619.5 c 128,-1,5
 462 598 462 598 478 563.5 c 128,-1,6
 494 529 494 529 494 480 c 0,7,8
 494 385 494 385 434 338.5 c 128,-1,9
 374 292 374 292 262 292 c 2,10,-1
 132 292 l 1,11,-1
 132 0 l 1,12,-1
 100 0 l 1,0,-1
132 320 m 1,13,-1
 250 320 l 2,14,15
 357 320 357 320 408.5 357 c 128,-1,16
 460 394 460 394 460 480 c 0,17,18
 460 567 460 567 407 599.5 c 128,-1,19
 354 632 354 632 246 632 c 2,20,-1
 132 632 l 1,21,-1
 132 320 l 1,13,-1
EndSplineSet
Validated: 1
Substitution2: "'sups' Superscript lookup 27 subtable" P.sups
Substitution2: "'c2sc' Capitals to Small Capitals lookup 17 subtable" P.sc
AlternateSubs2: "'aalt' Access All Alternates lookup 1 subtable" P.sc P.sups
EndChar

StartChar: Q
Encoding: 81 81 18
Width: 648
GlyphClass: 2
Flags: W
AnchorPoint: "Anchor-1" 324 682 basechar 0
LayerCount: 2
Fore
SplineSet
324 16 m 0,0,1
 376 16 376 16 419.5 38.5 c 128,-1,2
 463 61 463 61 493.5 102.5 c 128,-1,3
 524 144 524 144 541 202.5 c 128,-1,4
 558 261 558 261 558 332 c 256,5,6
 558 403 558 403 541 460.5 c 128,-1,7
 524 518 524 518 493.5 558.5 c 128,-1,8
 463 599 463 599 419.5 620.5 c 128,-1,9
 376 642 376 642 324 642 c 0,10,11
 271 642 271 642 228 620.5 c 128,-1,12
 185 599 185 599 154.5 558.5 c 128,-1,13
 124 518 124 518 107 460.5 c 128,-1,14
 90 403 90 403 90 332 c 256,15,16
 90 261 90 261 107 202.5 c 128,-1,17
 124 144 124 144 154.5 102.5 c 128,-1,18
 185 61 185 61 228 38.5 c 128,-1,19
 271 16 271 16 324 16 c 0,0,1
514 -152 m 0,20,21
 433 -152 433 -152 380 -112 c 128,-1,22
 327 -72 327 -72 304 -11 c 1,23,24
 250 -7 250 -7 204.5 19 c 128,-1,25
 159 45 159 45 126 90 c 128,-1,26
 93 135 93 135 74.5 196 c 128,-1,27
 56 257 56 257 56 332 c 0,28,29
 56 410 56 410 76 473 c 128,-1,30
 96 536 96 536 131.5 580 c 128,-1,31
 167 624 167 624 216 648 c 128,-1,32
 265 672 265 672 324 672 c 0,33,34
 382 672 382 672 431.5 648 c 128,-1,35
 481 624 481 624 516.5 580 c 128,-1,36
 552 536 552 536 572 473 c 128,-1,37
 592 410 592 410 592 332 c 0,38,39
 592 257 592 257 573.5 195 c 128,-1,40
 555 133 555 133 521.5 88.5 c 128,-1,41
 488 44 488 44 442 18 c 128,-1,42
 396 -8 396 -8 341 -11 c 1,43,44
 363 -63 363 -63 407.5 -91.5 c 128,-1,45
 452 -120 452 -120 516 -120 c 0,46,47
 539 -120 539 -120 554.5 -117.5 c 128,-1,48
 570 -115 570 -115 582 -112 c 1,49,-1
 590 -142 l 1,50,51
 578 -145 578 -145 557.5 -148.5 c 128,-1,52
 537 -152 537 -152 514 -152 c 0,20,21
EndSplineSet
Validated: 1
Substitution2: "'sups' Superscript lookup 27 subtable" Q.sups
Substitution2: "'c2sc' Capitals to Small Capitals lookup 17 subtable" Q.sc
AlternateSubs2: "'aalt' Access All Alternates lookup 1 subtable" Q.sc Q.sups
EndChar

StartChar: R
Encoding: 82 82 19
Width: 534
GlyphClass: 2
Flags: W
AnchorPoint: "Anchor-4" 296 -22 basechar 0
AnchorPoint: "Anchor-1" 282 682 basechar 0
LayerCount: 2
Fore
SplineSet
100 0 m 1,0,-1
 100 660 l 1,1,-1
 282 660 l 2,2,3
 331 660 331 660 370 650.5 c 128,-1,4
 409 641 409 641 436.5 620.5 c 128,-1,5
 464 600 464 600 479 568 c 128,-1,6
 494 536 494 536 494 490 c 0,7,8
 494 411 494 411 446.5 366.5 c 128,-1,9
 399 322 399 322 316 314 c 1,10,-1
 504 0 l 1,11,-1
 466 0 l 1,12,-1
 280 312 l 1,13,-1
 132 312 l 1,14,-1
 132 0 l 1,15,-1
 100 0 l 1,0,-1
132 340 m 1,16,-1
 270 340 l 2,17,18
 362 340 362 340 411 376.5 c 128,-1,19
 460 413 460 413 460 490 c 0,20,21
 460 568 460 568 411 600 c 128,-1,22
 362 632 362 632 270 632 c 2,23,-1
 132 632 l 1,24,-1
 132 340 l 1,16,-1
EndSplineSet
Validated: 1
Substitution2: "'sups' Superscript lookup 27 subtable" R.sups
Substitution2: "'c2sc' Capitals to Small Capitals lookup 17 subtable" R.sc
AlternateSubs2: "'aalt' Access All Alternates lookup 1 subtable" R.sc R.sups
EndChar

StartChar: S
Encoding: 83 83 20
Width: 516
GlyphClass: 2
Flags: W
AnchorPoint: "Anchor-4" 268 -22 basechar 0
AnchorPoint: "Anchor-3" 268 0 basechar 0
AnchorPoint: "Anchor-1" 268 682 basechar 0
LayerCount: 2
Fore
SplineSet
268 -12 m 0,0,1
 194 -12 194 -12 140 16 c 128,-1,2
 86 44 86 44 48 88 c 1,3,-1
 70 110 l 1,4,5
 106 68 106 68 157 43 c 128,-1,6
 208 18 208 18 268 18 c 0,7,8
 308 18 308 18 340 28.5 c 128,-1,9
 372 39 372 39 394.5 57.5 c 128,-1,10
 417 76 417 76 429.5 102 c 128,-1,11
 442 128 442 128 442 160 c 0,12,13
 442 193 442 193 432 215.5 c 128,-1,14
 422 238 422 238 405.5 254.5 c 128,-1,15
 389 271 389 271 367 283 c 128,-1,16
 345 295 345 295 320 306 c 2,17,-1
 218 352 l 2,18,19
 197 361 197 361 173.5 374 c 128,-1,20
 150 387 150 387 130 405.5 c 128,-1,21
 110 424 110 424 97 450.5 c 128,-1,22
 84 477 84 477 84 514 c 0,23,24
 84 549 84 549 98 578 c 128,-1,25
 112 607 112 607 137 628 c 128,-1,26
 162 649 162 649 196 660.5 c 128,-1,27
 230 672 230 672 270 672 c 0,28,29
 330 672 330 672 375.5 648.5 c 128,-1,30
 421 625 421 625 450 594 c 1,31,-1
 430 572 l 1,32,33
 401 604 401 604 361 623 c 128,-1,34
 321 642 321 642 270 642 c 0,35,36
 201 642 201 642 158.5 607.5 c 128,-1,37
 116 573 116 573 116 516 c 0,38,39
 116 485 116 485 127.5 463.5 c 128,-1,40
 139 442 139 442 156.5 426.5 c 128,-1,41
 174 411 174 411 194 400.5 c 128,-1,42
 214 390 214 390 232 382 c 2,43,-1
 334 336 l 2,44,45
 361 324 361 324 386.5 309.5 c 128,-1,46
 412 295 412 295 431.5 275 c 128,-1,47
 451 255 451 255 462.5 227.5 c 128,-1,48
 474 200 474 200 474 162 c 256,49,50
 474 124 474 124 459 92.5 c 128,-1,51
 444 61 444 61 417 37.5 c 128,-1,52
 390 14 390 14 352 1 c 128,-1,53
 314 -12 314 -12 268 -12 c 0,0,1
EndSplineSet
Validated: 1
Substitution2: "'sups' Superscript lookup 27 subtable" S.sups
Substitution2: "'c2sc' Capitals to Small Capitals lookup 17 subtable" S.sc
AlternateSubs2: "'aalt' Access All Alternates lookup 1 subtable" S.sc S.sups
EndChar

StartChar: T
Encoding: 84 84 21
Width: 520
GlyphClass: 2
Flags: W
AnchorPoint: "Anchor-4" 260 -22 basechar 0
AnchorPoint: "Anchor-3" 260 0 basechar 0
AnchorPoint: "Anchor-1" 258 682 basechar 0
LayerCount: 2
Fore
SplineSet
244 0 m 1,0,-1
 244 632 l 1,1,-1
 30 632 l 1,2,-1
 30 660 l 1,3,-1
 490 660 l 1,4,-1
 490 632 l 1,5,-1
 276 632 l 1,6,-1
 276 0 l 1,7,-1
 244 0 l 1,0,-1
EndSplineSet
Validated: 1
Substitution2: "'sups' Superscript lookup 27 subtable" T.sups
Substitution2: "'c2sc' Capitals to Small Capitals lookup 17 subtable" T.sc
AlternateSubs2: "'aalt' Access All Alternates lookup 1 subtable" T.sc T.sups
EndChar

StartChar: U
Encoding: 85 85 22
Width: 630
GlyphClass: 2
Flags: W
AnchorPoint: "Anchor-8" 314 0 basechar 0
AnchorPoint: "Anchor-6" 510 670 basechar 0
AnchorPoint: "Anchor-4" 314 -22 basechar 0
AnchorPoint: "Anchor-1" 314 682 basechar 0
LayerCount: 2
Fore
SplineSet
314 -12 m 256,0,1
 274 -12 274 -12 235.5 -0.5 c 128,-1,2
 197 11 197 11 166.5 40.5 c 128,-1,3
 136 70 136 70 117 119.5 c 128,-1,4
 98 169 98 169 98 246 c 2,5,-1
 98 660 l 1,6,-1
 130 660 l 1,7,-1
 130 254 l 2,8,9
 130 186 130 186 145 140.5 c 128,-1,10
 160 95 160 95 185.5 68 c 128,-1,11
 211 41 211 41 244.5 29.5 c 128,-1,12
 278 18 278 18 314 18 c 0,13,14
 351 18 351 18 385 29.5 c 128,-1,15
 419 41 419 41 445 68 c 128,-1,16
 471 95 471 95 486.5 140.5 c 128,-1,17
 502 186 502 186 502 254 c 2,18,-1
 502 660 l 1,19,-1
 532 660 l 1,20,-1
 532 246 l 2,21,22
 532 169 532 169 513 119.5 c 128,-1,23
 494 70 494 70 463 40.5 c 128,-1,24
 432 11 432 11 393 -0.5 c 128,-1,25
 354 -12 354 -12 314 -12 c 256,0,1
EndSplineSet
Validated: 1
Substitution2: "'sups' Superscript lookup 27 subtable" U.sups
Substitution2: "'c2sc' Capitals to Small Capitals lookup 17 subtable" U.sc
AlternateSubs2: "'aalt' Access All Alternates lookup 1 subtable" U.sc U.sups
EndChar

StartChar: V
Encoding: 86 86 23
Width: 482
GlyphClass: 2
Flags: W
AnchorPoint: "Anchor-4" 244 -22 basechar 0
AnchorPoint: "Anchor-1" 240 682 basechar 0
LayerCount: 2
Fore
SplineSet
226 0 m 1,0,-1
 6 660 l 1,1,-1
 40 660 l 1,2,-1
 168 264 l 2,3,4
 178 233 178 233 186.5 206 c 128,-1,5
 195 179 195 179 203.5 152.5 c 128,-1,6
 212 126 212 126 220.5 98.5 c 128,-1,7
 229 71 229 71 240 41 c 1,8,-1
 244 41 l 1,9,10
 254 71 254 71 263 98.5 c 128,-1,11
 272 126 272 126 280.5 152.5 c 128,-1,12
 289 179 289 179 297.5 206 c 128,-1,13
 306 233 306 233 316 264 c 2,14,-1
 444 660 l 1,15,-1
 476 660 l 1,16,-1
 258 0 l 1,17,-1
 226 0 l 1,0,-1
EndSplineSet
Validated: 1
Substitution2: "'sups' Superscript lookup 27 subtable" V.sups
Substitution2: "'c2sc' Capitals to Small Capitals lookup 17 subtable" V.sc
AlternateSubs2: "'aalt' Access All Alternates lookup 1 subtable" V.sc V.sups
EndChar

StartChar: W
Encoding: 87 87 24
Width: 764
GlyphClass: 2
Flags: W
AnchorPoint: "Anchor-4" 386 -22 basechar 0
AnchorPoint: "Anchor-1" 382 682 basechar 0
LayerCount: 2
Fore
SplineSet
184 0 m 1,0,-1
 30 660 l 1,1,-1
 64 660 l 1,2,-1
 152 260 l 1,3,-1
 200 44 l 1,4,-1
 204 44 l 1,5,6
 216 98 216 98 229 152 c 128,-1,7
 242 206 242 206 256 260 c 2,8,-1
 364 660 l 1,9,-1
 400 660 l 1,10,-1
 508 260 l 1,11,-1
 562 44 l 1,12,-1
 566 44 l 1,13,14
 578 98 578 98 589 152 c 128,-1,15
 600 206 600 206 612 260 c 2,16,-1
 700 660 l 1,17,-1
 732 660 l 1,18,-1
 580 0 l 1,19,-1
 548 0 l 1,20,-1
 420 474 l 2,21,22
 411 513 411 513 402 548 c 128,-1,23
 393 583 393 583 384 622 c 1,24,-1
 380 622 l 1,25,26
 371 583 371 583 361 548 c 128,-1,27
 351 513 351 513 342 474 c 2,28,-1
 216 0 l 1,29,-1
 184 0 l 1,0,-1
EndSplineSet
Validated: 1
Substitution2: "'sups' Superscript lookup 27 subtable" W.sups
Substitution2: "'c2sc' Capitals to Small Capitals lookup 17 subtable" W.sc
AlternateSubs2: "'aalt' Access All Alternates lookup 1 subtable" W.sc W.sups
EndChar

StartChar: X
Encoding: 88 88 25
Width: 470
GlyphClass: 2
Flags: W
AnchorPoint: "Anchor-4" 234 -22 basechar 0
AnchorPoint: "Anchor-1" 236 682 basechar 0
LayerCount: 2
Fore
SplineSet
18 0 m 1,0,-1
 218 342 l 1,1,-1
 32 660 l 1,2,-1
 66 660 l 1,3,-1
 182 456 l 2,4,5
 196 433 196 433 207.5 414 c 128,-1,6
 219 395 219 395 236 368 c 1,7,-1
 240 368 l 1,8,9
 255 395 255 395 265.5 414 c 128,-1,10
 276 433 276 433 290 456 c 2,11,-1
 406 660 l 1,12,-1
 438 660 l 1,13,-1
 252 340 l 1,14,-1
 452 0 l 1,15,-1
 418 0 l 1,16,-1
 296 212 l 2,17,18
 282 236 282 236 267 261 c 128,-1,19
 252 286 252 286 234 316 c 1,20,-1
 230 316 l 1,21,22
 213 286 213 286 199.5 261 c 128,-1,23
 186 236 186 236 172 212 c 2,24,-1
 50 0 l 1,25,-1
 18 0 l 1,0,-1
EndSplineSet
Validated: 1
Substitution2: "'sups' Superscript lookup 27 subtable" X.sups
Substitution2: "'c2sc' Capitals to Small Capitals lookup 17 subtable" X.sc
AlternateSubs2: "'aalt' Access All Alternates lookup 1 subtable" X.sc X.sups
EndChar

StartChar: Y
Encoding: 89 89 26
Width: 436
GlyphClass: 2
Flags: W
AnchorPoint: "Anchor-4" 220 -22 basechar 0
AnchorPoint: "Anchor-1" 218 682 basechar 0
LayerCount: 2
Fore
SplineSet
202 0 m 1,0,-1
 202 272 l 1,1,-1
 4 660 l 1,2,-1
 38 660 l 1,3,-1
 144 446 l 2,4,5
 162 410 162 410 179 375 c 128,-1,6
 196 340 196 340 216 304 c 1,7,-1
 220 304 l 1,8,9
 240 340 240 340 258.5 375 c 128,-1,10
 277 410 277 410 294 446 c 2,11,-1
 400 660 l 1,12,-1
 432 660 l 1,13,-1
 234 272 l 1,14,-1
 234 0 l 1,15,-1
 202 0 l 1,0,-1
EndSplineSet
Validated: 1
Substitution2: "'sups' Superscript lookup 27 subtable" Y.sups
Substitution2: "'c2sc' Capitals to Small Capitals lookup 17 subtable" Y.sc
AlternateSubs2: "'aalt' Access All Alternates lookup 1 subtable" Y.sc Y.sups
EndChar

StartChar: Z
Encoding: 90 90 27
Width: 538
GlyphClass: 2
Flags: W
AnchorPoint: "Anchor-4" 282 -22 basechar 0
AnchorPoint: "Anchor-1" 278 682 basechar 0
LayerCount: 2
Fore
SplineSet
52 0 m 1,0,-1
 52 18 l 1,1,-1
 444 632 l 1,2,-1
 86 632 l 1,3,-1
 86 660 l 1,4,-1
 484 660 l 1,5,-1
 484 642 l 1,6,-1
 92 28 l 1,7,-1
 488 28 l 1,8,-1
 488 0 l 1,9,-1
 52 0 l 1,0,-1
EndSplineSet
Validated: 1
Substitution2: "'sups' Superscript lookup 27 subtable" Z.sups
Substitution2: "'c2sc' Capitals to Small Capitals lookup 17 subtable" Z.sc
AlternateSubs2: "'aalt' Access All Alternates lookup 1 subtable" Z.sc Z.sups
EndChar

StartChar: a
Encoding: 97 97 28
Width: 540
GlyphClass: 2
Flags: W
LayerCount: 2
Fore
SplineSet
254 16 m 0,0,1
 296 16 296 16 334.5 37.5 c 128,-1,2
 373 59 373 59 414 100 c 1,3,-1
 414 262 l 1,4,-1
 414 396 l 1,5,6
 373 432 373 432 338.5 447 c 128,-1,7
 304 462 304 462 266 462 c 128,-1,8
 228 462 228 462 195 444.5 c 128,-1,9
 162 427 162 427 138 396.5 c 128,-1,10
 114 366 114 366 100 325 c 128,-1,11
 86 284 86 284 86 238 c 0,12,13
 86 188 86 188 97 147.5 c 128,-1,14
 108 107 108 107 129.5 77.5 c 128,-1,15
 151 48 151 48 182 32 c 128,-1,16
 213 16 213 16 254 16 c 0,0,1
252 -12 m 0,17,18
 161 -12 161 -12 107.5 52 c 128,-1,19
 54 116 54 116 54 238 c 0,20,21
 54 296 54 296 71 342.5 c 128,-1,22
 88 389 88 389 117.5 422 c 128,-1,23
 147 455 147 455 185.5 472.5 c 128,-1,24
 224 490 224 490 268 490 c 128,-1,25
 312 490 312 490 344.5 474.5 c 128,-1,26
 377 459 377 459 412 432 c 1,27,-1
 414 432 l 1,28,-1
 416 478 l 1,29,-1
 444 478 l 1,30,-1
 444 262 l 1,31,-1
 444 46 l 2,32,33
 444 16 444 16 464 16 c 0,34,35
 467 16 467 16 470.5 16 c 128,-1,36
 474 16 474 16 482 18 c 1,37,-1
 488 -8 l 1,38,39
 482 -10 482 -10 476.5 -11 c 128,-1,40
 471 -12 471 -12 462 -12 c 0,41,42
 439 -12 439 -12 426.5 2.5 c 128,-1,43
 414 17 414 17 414 52 c 2,44,-1
 414 64 l 1,45,-1
 412 64 l 1,46,47
 382 34 382 34 342 11 c 128,-1,48
 302 -12 302 -12 252 -12 c 0,17,18
EndSplineSet
Validated: 1
Substitution2: "'ss02' Style Set 2 lookup 39 subtable" a.a
Substitution2: "'sups' Superscript lookup 26 subtable" a.sups
Substitution2: "'smcp' Lowercase to Small Capitals lookup 20 subtable" A.sc
AlternateSubs2: "'aalt' Access All Alternates lookup 1 subtable" A.sc a.sups a.a
EndChar

StartChar: b
Encoding: 98 98 29
Width: 538
GlyphClass: 2
Flags: W
AnchorPoint: "Anchor-4" 276 -22 basechar 0
AnchorPoint: "Anchor-0" 114 730 basechar 0
LayerCount: 2
Fore
SplineSet
274 -12 m 0,0,1
 239 -12 239 -12 201 4.5 c 128,-1,2
 163 21 163 21 128 48 c 1,3,-1
 126 48 l 1,4,-1
 122 0 l 1,5,-1
 96 0 l 1,6,-1
 96 722 l 1,7,-1
 126 722 l 1,8,-1
 126 508 l 1,9,-1
 124 412 l 1,10,11
 162 444 162 444 205.5 467 c 128,-1,12
 249 490 249 490 294 490 c 0,13,14
 391 490 391 490 438.5 423.5 c 128,-1,15
 486 357 486 357 486 246 c 0,16,17
 486 185 486 185 469 137 c 128,-1,18
 452 89 452 89 423 56 c 128,-1,19
 394 23 394 23 355.5 5.5 c 128,-1,20
 317 -12 317 -12 274 -12 c 0,0,1
276 16 m 0,21,22
 315 16 315 16 347.5 33 c 128,-1,23
 380 50 380 50 404 80.5 c 128,-1,24
 428 111 428 111 441 153.5 c 128,-1,25
 454 196 454 196 454 246 c 0,26,27
 454 292 454 292 445.5 331.5 c 128,-1,28
 437 371 437 371 417.5 400 c 128,-1,29
 398 429 398 429 367 445.5 c 128,-1,30
 336 462 336 462 292 462 c 0,31,32
 254 462 254 462 212.5 440.5 c 128,-1,33
 171 419 171 419 126 378 c 1,34,-1
 126 82 l 1,35,36
 168 46 168 46 207.5 31 c 128,-1,37
 247 16 247 16 276 16 c 0,21,22
EndSplineSet
Validated: 1
Substitution2: "'sups' Superscript lookup 26 subtable" b.sups
Substitution2: "'smcp' Lowercase to Small Capitals lookup 20 subtable" B.sc
AlternateSubs2: "'aalt' Access All Alternates lookup 1 subtable" B.sc b.sups
EndChar

StartChar: c
Encoding: 99 99 30
Width: 446
GlyphClass: 2
Flags: W
AnchorPoint: "Anchor-4" 266 -22 basechar 0
AnchorPoint: "Anchor-3" 266 0 basechar 0
AnchorPoint: "Anchor-0" 268 502 basechar 0
LayerCount: 2
Fore
SplineSet
268 -12 m 0,0,1
 222 -12 222 -12 183 5 c 128,-1,2
 144 22 144 22 115.5 54 c 128,-1,3
 87 86 87 86 70.5 132.5 c 128,-1,4
 54 179 54 179 54 238 c 0,5,6
 54 298 54 298 71.5 345 c 128,-1,7
 89 392 89 392 118.5 424 c 128,-1,8
 148 456 148 456 186.5 473 c 128,-1,9
 225 490 225 490 268 490 c 0,10,11
 318 490 318 490 351 471.5 c 128,-1,12
 384 453 384 453 408 430 c 1,13,-1
 388 408 l 1,14,15
 364 431 364 431 335 446.5 c 128,-1,16
 306 462 306 462 268 462 c 256,17,18
 230 462 230 462 196.5 445.5 c 128,-1,19
 163 429 163 429 138.5 399.5 c 128,-1,20
 114 370 114 370 100 328.5 c 128,-1,21
 86 287 86 287 86 238 c 0,22,23
 86 188 86 188 99 147.5 c 128,-1,24
 112 107 112 107 136 77.5 c 128,-1,25
 160 48 160 48 193.5 32 c 128,-1,26
 227 16 227 16 268 16 c 256,27,28
 309 16 309 16 342.5 33 c 128,-1,29
 376 50 376 50 402 74 c 1,30,-1
 420 52 l 1,31,32
 390 25 390 25 352.5 6.5 c 128,-1,33
 315 -12 315 -12 268 -12 c 0,0,1
EndSplineSet
Validated: 1
Substitution2: "'sups' Superscript lookup 26 subtable" c.sups
Substitution2: "'smcp' Lowercase to Small Capitals lookup 20 subtable" C.sc
AlternateSubs2: "'aalt' Access All Alternates lookup 1 subtable" C.sc c.sups
EndChar

StartChar: d
Encoding: 100 100 31
Width: 540
GlyphClass: 2
Flags: W
AnchorPoint: "Anchor-4" 292 -22 basechar 0
AnchorPoint: "Anchor-0" 380 730 basechar 0
LayerCount: 2
Fore
SplineSet
252 -12 m 0,0,1
 161 -12 161 -12 107.5 52 c 128,-1,2
 54 116 54 116 54 238 c 0,3,4
 54 296 54 296 71 342.5 c 128,-1,5
 88 389 88 389 117.5 422 c 128,-1,6
 147 455 147 455 185.5 472.5 c 128,-1,7
 224 490 224 490 268 490 c 128,-1,8
 312 490 312 490 345 474.5 c 128,-1,9
 378 459 378 459 416 430 c 1,10,-1
 414 520 l 1,11,-1
 414 722 l 1,12,-1
 444 722 l 1,13,-1
 444 262 l 1,14,-1
 444 46 l 2,15,16
 444 16 444 16 464 16 c 0,17,18
 467 16 467 16 470.5 16 c 128,-1,19
 474 16 474 16 482 18 c 1,20,-1
 488 -8 l 1,21,22
 482 -10 482 -10 476.5 -11 c 128,-1,23
 471 -12 471 -12 462 -12 c 0,24,25
 439 -12 439 -12 426.5 2.5 c 128,-1,26
 414 17 414 17 414 52 c 2,27,-1
 414 64 l 1,28,-1
 412 64 l 1,29,30
 382 34 382 34 342 11 c 128,-1,31
 302 -12 302 -12 252 -12 c 0,0,1
254 16 m 0,32,33
 296 16 296 16 334.5 37.5 c 128,-1,34
 373 59 373 59 414 100 c 1,35,-1
 414 262 l 1,36,-1
 414 396 l 1,37,38
 373 432 373 432 338.5 447 c 128,-1,39
 304 462 304 462 266 462 c 128,-1,40
 228 462 228 462 195 444.5 c 128,-1,41
 162 427 162 427 138 396.5 c 128,-1,42
 114 366 114 366 100 325 c 128,-1,43
 86 284 86 284 86 238 c 0,44,45
 86 188 86 188 97 147.5 c 128,-1,46
 108 107 108 107 129.5 77.5 c 128,-1,47
 151 48 151 48 182 32 c 128,-1,48
 213 16 213 16 254 16 c 0,32,33
EndSplineSet
Validated: 1
Substitution2: "'sups' Superscript lookup 26 subtable" d.sups
Substitution2: "'smcp' Lowercase to Small Capitals lookup 20 subtable" D.sc
AlternateSubs2: "'aalt' Access All Alternates lookup 1 subtable" D.sc d.sups
EndChar

StartChar: e
Encoding: 101 101 32
Width: 478
GlyphClass: 2
Flags: W
AnchorPoint: "Anchor-7" 382 0 basechar 0
AnchorPoint: "Anchor-4" 256 -22 basechar 0
AnchorPoint: "Anchor-0" 260 502 basechar 0
LayerCount: 2
Fore
SplineSet
272 -12 m 0,0,1
 227 -12 227 -12 187.5 5 c 128,-1,2
 148 22 148 22 118 54.5 c 128,-1,3
 88 87 88 87 71 133 c 128,-1,4
 54 179 54 179 54 238 c 0,5,6
 54 296 54 296 71.5 343 c 128,-1,7
 89 390 89 390 117.5 422.5 c 128,-1,8
 146 455 146 455 183 472.5 c 128,-1,9
 220 490 220 490 260 490 c 0,10,11
 343 490 343 490 391.5 433.5 c 128,-1,12
 440 377 440 377 440 270 c 0,13,14
 440 262 440 262 440 254.5 c 128,-1,15
 440 247 440 247 438 238 c 1,16,-1
 86 238 l 1,17,18
 86 190 86 190 99.5 149.5 c 128,-1,19
 113 109 113 109 137.5 79 c 128,-1,20
 162 49 162 49 196.5 32.5 c 128,-1,21
 231 16 231 16 274 16 c 0,22,23
 315 16 315 16 347 28 c 128,-1,24
 379 40 379 40 406 60 c 1,25,-1
 420 34 l 1,26,27
 393 17 393 17 359.5 2.5 c 128,-1,28
 326 -12 326 -12 272 -12 c 0,0,1
86 266 m 1,29,-1
 410 266 l 1,30,31
 410 366 410 366 369 414 c 128,-1,32
 328 462 328 462 260 462 c 0,33,34
 228 462 228 462 198 448.5 c 128,-1,35
 168 435 168 435 144.5 409.5 c 128,-1,36
 121 384 121 384 105.5 348 c 128,-1,37
 90 312 90 312 86 266 c 1,29,-1
EndSplineSet
Validated: 1
Substitution2: "'sups' Superscript lookup 26 subtable" e.sups
Substitution2: "'smcp' Lowercase to Small Capitals lookup 20 subtable" E.sc
AlternateSubs2: "'aalt' Access All Alternates lookup 1 subtable" E.sc e.sups
EndChar

StartChar: f
Encoding: 102 102 33
Width: 252
GlyphClass: 2
Flags: W
AnchorPoint: "Anchor-4" 116 -22 basechar 0
AnchorPoint: "Anchor-0" 212 740 basechar 0
LayerCount: 2
Fore
SplineSet
100 0 m 1,0,-1
 100 450 l 1,1,-1
 34 450 l 1,2,-1
 34 474 l 1,3,-1
 100 478 l 1,4,-1
 100 596 l 2,5,6
 100 667 100 667 129.5 700.5 c 128,-1,7
 159 734 159 734 210 734 c 0,8,9
 241 734 241 734 276 718 c 1,10,-1
 266 692 l 1,11,12
 251 700 251 700 236.5 703 c 128,-1,13
 222 706 222 706 208 706 c 0,14,15
 167 706 167 706 148.5 676 c 128,-1,16
 130 646 130 646 130 592 c 2,17,-1
 130 478 l 1,18,-1
 244 478 l 1,19,-1
 244 450 l 1,20,-1
 130 450 l 1,21,-1
 130 0 l 1,22,-1
 100 0 l 1,0,-1
EndSplineSet
Validated: 1
Substitution2: "'sups' Superscript lookup 26 subtable" f.sups
Substitution2: "'smcp' Lowercase to Small Capitals lookup 20 subtable" F.sc
AlternateSubs2: "'aalt' Access All Alternates lookup 1 subtable" F.sc f.sups
EndChar

StartChar: g
Encoding: 103 103 34
Width: 540
GlyphClass: 2
Flags: W
LayerCount: 2
Fore
SplineSet
258 -234 m 4,0,1
 208 -234 208 -234 167.5 -220 c 132,-1,2
 127 -206 127 -206 92 -182 c 5,3,-1
 108 -156 l 5,4,5
 144 -183 144 -183 181.5 -195 c 132,-1,6
 219 -207 219 -207 258 -207 c 4,7,8
 335 -207 335 -207 374.5 -162.5 c 132,-1,9
 414 -118 414 -118 414 -40 c 6,10,-1
 414 76 l 5,11,12
 384 45 384 45 343 21.5 c 132,-1,13
 302 -2 302 -2 252 -2 c 4,14,15
 162 -2 162 -2 108 61 c 132,-1,16
 54 124 54 124 54 244 c 4,17,18
 54 301 54 301 71 346.5 c 132,-1,19
 88 392 88 392 117.5 424 c 132,-1,20
 147 456 147 456 185.5 473 c 132,-1,21
 224 490 224 490 268 490 c 260,22,23
 312 490 312 490 344.5 475 c 132,-1,24
 377 460 377 460 410 434 c 5,25,-1
 412 434 l 5,26,-1
 416 478 l 5,27,-1
 444 478 l 5,28,-1
 444 -48 l 6,29,30
 444 -133 444 -133 395.5 -183.5 c 132,-1,31
 347 -234 347 -234 258 -234 c 4,0,1
254 26 m 4,32,33
 296 26 296 26 334.5 47.5 c 132,-1,34
 373 69 373 69 414 110 c 5,35,-1
 414 396 l 5,36,37
 373 432 373 432 338.5 447 c 132,-1,38
 304 462 304 462 266 462 c 260,39,40
 228 462 228 462 195 445 c 132,-1,41
 162 428 162 428 138 398.5 c 132,-1,42
 114 369 114 369 100 329.5 c 132,-1,43
 86 290 86 290 86 244 c 4,44,45
 86 195 86 195 97 155 c 132,-1,46
 108 115 108 115 129.5 86.5 c 132,-1,47
 151 58 151 58 182 42 c 132,-1,48
 213 26 213 26 254 26 c 4,32,33
EndSplineSet
Validated: 1
Substitution2: "'ss03' Style Set 3 lookup 41 subtable" g.a
Substitution2: "'sups' Superscript lookup 26 subtable" g.sups
Substitution2: "'smcp' Lowercase to Small Capitals lookup 20 subtable" G.sc
AlternateSubs2: "'aalt' Access All Alternates lookup 1 subtable" G.sc g.sups g.a
EndChar

StartChar: h
Encoding: 104 104 35
Width: 522
GlyphClass: 2
Flags: W
AnchorPoint: "Anchor-4" 280 -22 basechar 0
AnchorPoint: "Anchor-0" 112 730 basechar 0
LayerCount: 2
Fore
SplineSet
96 0 m 1,0,-1
 96 722 l 1,1,-1
 126 722 l 1,2,-1
 126 400 l 1,3,4
 165 439 165 439 204.5 464.5 c 128,-1,5
 244 490 244 490 294 490 c 0,6,7
 368 490 368 490 403 446 c 128,-1,8
 438 402 438 402 438 308 c 2,9,-1
 438 262 l 1,10,-1
 438 46 l 2,11,12
 438 16 438 16 458 16 c 0,13,14
 461 16 461 16 464.5 16 c 128,-1,15
 468 16 468 16 476 18 c 1,16,-1
 482 -8 l 1,17,18
 476 -10 476 -10 470.5 -11 c 128,-1,19
 465 -12 465 -12 456 -12 c 0,20,21
 433 -12 433 -12 420.5 2.5 c 128,-1,22
 408 17 408 17 408 52 c 2,23,-1
 408 60 l 1,24,-1
 408 262 l 1,25,-1
 408 304 l 2,26,27
 408 384 408 384 381 423 c 128,-1,28
 354 462 354 462 292 462 c 0,29,30
 247 462 247 462 209.5 438 c 128,-1,31
 172 414 172 414 126 366 c 1,32,-1
 126 0 l 1,33,-1
 96 0 l 1,0,-1
EndSplineSet
Validated: 1
Substitution2: "'sups' Superscript lookup 26 subtable" h.sups
Substitution2: "'smcp' Lowercase to Small Capitals lookup 20 subtable" H.sc
AlternateSubs2: "'aalt' Access All Alternates lookup 1 subtable" H.sc h.sups
EndChar

StartChar: i
Encoding: 105 105 36
Width: 222
GlyphClass: 2
Flags: W
AnchorPoint: "Anchor-7" 130 0 basechar 0
AnchorPoint: "Anchor-4" 110 -22 basechar 0
AnchorPoint: "Anchor-0" 110 672 basechar 0
LayerCount: 2
Fore
SplineSet
96 0 m 1,0,-1
 96 478 l 1,1,-1
 126 478 l 1,2,-1
 126 0 l 1,3,-1
 96 0 l 1,0,-1
112 600 m 256,4,5
 98 600 98 600 88 609.5 c 128,-1,6
 78 619 78 619 78 634 c 0,7,8
 78 651 78 651 88 659.5 c 128,-1,9
 98 668 98 668 112 668 c 256,10,11
 126 668 126 668 136 659.5 c 128,-1,12
 146 651 146 651 146 634 c 0,13,14
 146 619 146 619 136 609.5 c 128,-1,15
 126 600 126 600 112 600 c 256,4,5
EndSplineSet
Validated: 1
Substitution2: "'sups' Superscript lookup 26 subtable" i.sups
Substitution2: "'smcp' Lowercase to Small Capitals lookup 20 subtable" I.sc
Substitution2: "'locl' Localized Forms in Latin lookup 2 subtable" i.trk
AlternateSubs2: "'aalt' Access All Alternates lookup 1 subtable" i.trk I.sc i.sups
EndChar

StartChar: j
Encoding: 106 106 37
Width: 222
GlyphClass: 2
Flags: W
AnchorPoint: "Anchor-4" 44 -228 basechar 0
AnchorPoint: "Anchor-0" 112 672 basechar 0
LayerCount: 2
Fore
SplineSet
28 -234 m 0,0,1
 13 -234 13 -234 -3 -230.5 c 128,-1,2
 -19 -227 -19 -227 -30 -222 c 1,3,-1
 -22 -196 l 1,4,5
 -13 -199 -13 -199 1 -202.5 c 128,-1,6
 15 -206 15 -206 30 -206 c 0,7,8
 51 -206 51 -206 64 -198 c 128,-1,9
 77 -190 77 -190 84 -175.5 c 128,-1,10
 91 -161 91 -161 93.5 -141 c 128,-1,11
 96 -121 96 -121 96 -98 c 2,12,-1
 96 478 l 1,13,-1
 126 478 l 1,14,-1
 126 -102 l 2,15,16
 126 -171 126 -171 102 -202.5 c 128,-1,17
 78 -234 78 -234 28 -234 c 0,0,1
112 600 m 256,18,19
 98 600 98 600 88 609.5 c 128,-1,20
 78 619 78 619 78 634 c 0,21,22
 78 651 78 651 88 659.5 c 128,-1,23
 98 668 98 668 112 668 c 256,24,25
 126 668 126 668 136 659.5 c 128,-1,26
 146 651 146 651 146 634 c 0,27,28
 146 619 146 619 136 609.5 c 128,-1,29
 126 600 126 600 112 600 c 256,18,19
EndSplineSet
Validated: 1
Substitution2: "'sups' Superscript lookup 26 subtable" j.sups
Substitution2: "'smcp' Lowercase to Small Capitals lookup 20 subtable" J.sc
AlternateSubs2: "'aalt' Access All Alternates lookup 1 subtable" J.sc j.sups
EndChar

StartChar: k
Encoding: 107 107 38
Width: 452
GlyphClass: 2
Flags: W
AnchorPoint: "Anchor-4" 252 -22 basechar 0
AnchorPoint: "Anchor-0" 114 730 basechar 0
LayerCount: 2
Fore
SplineSet
96 0 m 1,0,-1
 96 722 l 1,1,-1
 126 722 l 1,2,-1
 126 174 l 1,3,-1
 128 174 l 1,4,-1
 376 478 l 1,5,-1
 412 478 l 1,6,-1
 258 290 l 1,7,-1
 440 0 l 1,8,-1
 406 0 l 1,9,-1
 240 266 l 1,10,-1
 126 132 l 1,11,-1
 126 0 l 1,12,-1
 96 0 l 1,0,-1
EndSplineSet
Validated: 1
Substitution2: "'sups' Superscript lookup 26 subtable" k.sups
Substitution2: "'smcp' Lowercase to Small Capitals lookup 20 subtable" K.sc
AlternateSubs2: "'aalt' Access All Alternates lookup 1 subtable" K.sc k.sups
EndChar

StartChar: l
Encoding: 108 108 39
Width: 230
GlyphClass: 2
Flags: W
AnchorPoint: "Anchor-4" 110 -22 basechar 0
AnchorPoint: "Anchor-0" 110 730 basechar 0
LayerCount: 2
Fore
SplineSet
144 -12 m 4,0,1
 121 -12 121 -12 108.5 2.5 c 132,-1,2
 96 17 96 17 96 52 c 6,3,-1
 96 722 l 5,4,-1
 126 722 l 5,5,-1
 126 46 l 6,6,7
 126 16 126 16 146 16 c 4,8,9
 149 16 149 16 152.5 16 c 132,-1,10
 156 16 156 16 164 18 c 5,11,-1
 170 -8 l 5,12,13
 164 -10 164 -10 158.5 -11 c 132,-1,14
 153 -12 153 -12 144 -12 c 4,0,1
EndSplineSet
Validated: 1
Substitution2: "'ss01' Style Set 1 lookup 36 subtable" l.a
Substitution2: "'sups' Superscript lookup 26 subtable" l.sups
Substitution2: "'smcp' Lowercase to Small Capitals lookup 20 subtable" L.sc
AlternateSubs2: "'aalt' Access All Alternates lookup 1 subtable" L.sc l.sups l.a
EndChar

StartChar: m
Encoding: 109 109 40
Width: 806
GlyphClass: 2
Flags: W
AnchorPoint: "Anchor-4" 414 -22 basechar 0
AnchorPoint: "Anchor-0" 404 502 basechar 0
LayerCount: 2
Fore
SplineSet
96 0 m 1,0,-1
 96 478 l 1,1,-1
 122 478 l 1,2,-1
 126 402 l 1,3,-1
 128 402 l 1,4,5
 161 440 161 440 201 465 c 128,-1,6
 241 490 241 490 280 490 c 0,7,8
 339 490 339 490 369.5 462.5 c 128,-1,9
 400 435 400 435 412 390 c 1,10,11
 454 437 454 437 494.5 463.5 c 128,-1,12
 535 490 535 490 576 490 c 0,13,14
 647 490 647 490 682.5 446 c 128,-1,15
 718 402 718 402 718 308 c 2,16,-1
 718 262 l 1,17,-1
 718 46 l 2,18,19
 718 16 718 16 738 16 c 0,20,21
 741 16 741 16 744.5 16 c 128,-1,22
 748 16 748 16 756 18 c 1,23,-1
 762 -8 l 1,24,25
 756 -10 756 -10 750.5 -11 c 128,-1,26
 745 -12 745 -12 736 -12 c 0,27,28
 713 -12 713 -12 700.5 2.5 c 128,-1,29
 688 17 688 17 688 52 c 2,30,-1
 688 60 l 1,31,-1
 688 262 l 1,32,-1
 688 304 l 2,33,34
 688 384 688 384 660.5 423 c 128,-1,35
 633 462 633 462 574 462 c 0,36,37
 538 462 538 462 501 438 c 128,-1,38
 464 414 464 414 422 366 c 1,39,-1
 422 0 l 1,40,-1
 392 0 l 1,41,-1
 392 304 l 2,42,43
 392 384 392 384 364.5 423 c 128,-1,44
 337 462 337 462 278 462 c 0,45,46
 210 462 210 462 126 366 c 1,47,-1
 126 0 l 1,48,-1
 96 0 l 1,0,-1
EndSplineSet
Validated: 1
Substitution2: "'sups' Superscript lookup 26 subtable" m.sups
Substitution2: "'smcp' Lowercase to Small Capitals lookup 20 subtable" M.sc
AlternateSubs2: "'aalt' Access All Alternates lookup 1 subtable" M.sc m.sups
EndChar

StartChar: n
Encoding: 110 110 41
Width: 526
GlyphClass: 2
Flags: W
AnchorPoint: "Anchor-4" 268 -22 basechar 0
AnchorPoint: "Anchor-0" 278 502 basechar 0
LayerCount: 2
Fore
SplineSet
96 0 m 1,0,-1
 96 478 l 1,1,-1
 122 478 l 1,2,-1
 126 402 l 1,3,-1
 128 402 l 1,4,5
 166 440 166 440 205 465 c 128,-1,6
 244 490 244 490 294 490 c 0,7,8
 368 490 368 490 403 446 c 128,-1,9
 438 402 438 402 438 308 c 2,10,-1
 438 262 l 1,11,-1
 438 46 l 2,12,13
 438 16 438 16 458 16 c 0,14,15
 461 16 461 16 464.5 16 c 128,-1,16
 468 16 468 16 476 18 c 1,17,-1
 482 -8 l 1,18,19
 476 -10 476 -10 470.5 -11 c 128,-1,20
 465 -12 465 -12 456 -12 c 0,21,22
 433 -12 433 -12 420.5 2.5 c 128,-1,23
 408 17 408 17 408 52 c 2,24,-1
 408 60 l 1,25,-1
 408 262 l 1,26,-1
 408 304 l 2,27,28
 408 384 408 384 381 423 c 128,-1,29
 354 462 354 462 292 462 c 0,30,31
 247 462 247 462 209.5 438 c 128,-1,32
 172 414 172 414 126 366 c 1,33,-1
 126 0 l 1,34,-1
 96 0 l 1,0,-1
EndSplineSet
Validated: 1
Substitution2: "'sups' Superscript lookup 26 subtable" n.sups
Substitution2: "'smcp' Lowercase to Small Capitals lookup 20 subtable" N.sc
AlternateSubs2: "'aalt' Access All Alternates lookup 1 subtable" N.sc n.sups
EndChar

StartChar: o
Encoding: 111 111 42
Width: 532
GlyphClass: 2
Flags: W
AnchorPoint: "Anchor-7" 312 0 basechar 0
AnchorPoint: "Anchor-6" 358 478 basechar 0
AnchorPoint: "Anchor-4" 266 -22 basechar 0
AnchorPoint: "Anchor-0" 266 502 basechar 0
LayerCount: 2
Fore
SplineSet
266 -12 m 256,0,1
 223 -12 223 -12 184.5 5 c 128,-1,2
 146 22 146 22 117 54 c 128,-1,3
 88 86 88 86 71 132.5 c 128,-1,4
 54 179 54 179 54 238 c 0,5,6
 54 298 54 298 71 345 c 128,-1,7
 88 392 88 392 117 424 c 128,-1,8
 146 456 146 456 184.5 473 c 128,-1,9
 223 490 223 490 266 490 c 256,10,11
 309 490 309 490 347.5 473 c 128,-1,12
 386 456 386 456 415 424 c 128,-1,13
 444 392 444 392 461 345 c 128,-1,14
 478 298 478 298 478 238 c 0,15,16
 478 179 478 179 461 132.5 c 128,-1,17
 444 86 444 86 415 54 c 128,-1,18
 386 22 386 22 347.5 5 c 128,-1,19
 309 -12 309 -12 266 -12 c 256,0,1
266 16 m 256,20,21
 304 16 304 16 337 32 c 128,-1,22
 370 48 370 48 394 77.5 c 128,-1,23
 418 107 418 107 432 147.5 c 128,-1,24
 446 188 446 188 446 238 c 0,25,26
 446 287 446 287 432 328.5 c 128,-1,27
 418 370 418 370 394 399.5 c 128,-1,28
 370 429 370 429 337 445.5 c 128,-1,29
 304 462 304 462 266 462 c 256,30,31
 228 462 228 462 195 445.5 c 128,-1,32
 162 429 162 429 138 399.5 c 128,-1,33
 114 370 114 370 100 328.5 c 128,-1,34
 86 287 86 287 86 238 c 0,35,36
 86 188 86 188 100 147.5 c 128,-1,37
 114 107 114 107 138 77.5 c 128,-1,38
 162 48 162 48 195 32 c 128,-1,39
 228 16 228 16 266 16 c 256,20,21
EndSplineSet
Validated: 1
Substitution2: "'sups' Superscript lookup 26 subtable" o.sups
Substitution2: "'smcp' Lowercase to Small Capitals lookup 20 subtable" O.sc
AlternateSubs2: "'aalt' Access All Alternates lookup 1 subtable" O.sc o.sups
EndChar

StartChar: p
Encoding: 112 112 43
Width: 540
GlyphClass: 2
Flags: W
AnchorPoint: "Anchor-4" 106 -218 basechar 0
AnchorPoint: "Anchor-0" 278 502 basechar 0
LayerCount: 2
Fore
SplineSet
96 -222 m 1,0,-1
 96 478 l 1,1,-1
 122 478 l 1,2,-1
 126 416 l 1,3,-1
 128 416 l 1,4,5
 164 445 164 445 206.5 467.5 c 128,-1,6
 249 490 249 490 294 490 c 0,7,8
 391 490 391 490 438.5 423.5 c 128,-1,9
 486 357 486 357 486 246 c 0,10,11
 486 185 486 185 469 137 c 128,-1,12
 452 89 452 89 423 56 c 128,-1,13
 394 23 394 23 355.5 5.5 c 128,-1,14
 317 -12 317 -12 274 -12 c 0,15,16
 239 -12 239 -12 202 3.5 c 128,-1,17
 165 19 165 19 126 48 c 1,18,-1
 126 -222 l 1,19,-1
 96 -222 l 1,0,-1
276 16 m 0,20,21
 315 16 315 16 347.5 33 c 128,-1,22
 380 50 380 50 404 80.5 c 128,-1,23
 428 111 428 111 441 153.5 c 128,-1,24
 454 196 454 196 454 246 c 0,25,26
 454 292 454 292 445.5 331.5 c 128,-1,27
 437 371 437 371 417.5 400 c 128,-1,28
 398 429 398 429 367 445.5 c 128,-1,29
 336 462 336 462 292 462 c 0,30,31
 254 462 254 462 213.5 440.5 c 128,-1,32
 173 419 173 419 126 378 c 1,33,-1
 126 82 l 1,34,35
 170 46 170 46 208.5 31 c 128,-1,36
 247 16 247 16 276 16 c 0,20,21
EndSplineSet
Validated: 1
Substitution2: "'sups' Superscript lookup 26 subtable" p.sups
Substitution2: "'smcp' Lowercase to Small Capitals lookup 20 subtable" P.sc
AlternateSubs2: "'aalt' Access All Alternates lookup 1 subtable" P.sc p.sups
EndChar

StartChar: q
Encoding: 113 113 44
Width: 540
GlyphClass: 2
Flags: W
AnchorPoint: "Anchor-4" 422 -218 basechar 0
AnchorPoint: "Anchor-0" 266 502 basechar 0
LayerCount: 2
Fore
SplineSet
254 16 m 0,0,1
 296 16 296 16 334.5 37.5 c 128,-1,2
 373 59 373 59 414 100 c 1,3,-1
 414 396 l 1,4,5
 373 432 373 432 338.5 447 c 128,-1,6
 304 462 304 462 266 462 c 128,-1,7
 228 462 228 462 195 444.5 c 128,-1,8
 162 427 162 427 138 396.5 c 128,-1,9
 114 366 114 366 100 325 c 128,-1,10
 86 284 86 284 86 238 c 0,11,12
 86 188 86 188 97 147.5 c 128,-1,13
 108 107 108 107 129.5 77.5 c 128,-1,14
 151 48 151 48 182 32 c 128,-1,15
 213 16 213 16 254 16 c 0,0,1
462 -226 m 0,16,17
 439 -226 439 -226 426.5 -211.5 c 128,-1,18
 414 -197 414 -197 414 -162 c 2,19,-1
 414 -152 l 1,20,-1
 414 -32 l 1,21,-1
 414 48 l 1,22,-1
 415.632653061 48 l 1,23,-1
 416 66 l 1,24,25
 383 34 383 34 342.5 11 c 128,-1,26
 302 -12 302 -12 252 -12 c 0,27,28
 161 -12 161 -12 107.5 52 c 128,-1,29
 54 116 54 116 54 238 c 0,30,31
 54 296 54 296 71 342.5 c 128,-1,32
 88 389 88 389 117.5 422 c 128,-1,33
 147 455 147 455 185.5 472.5 c 128,-1,34
 224 490 224 490 268 490 c 128,-1,35
 312 490 312 490 344.5 475 c 128,-1,36
 377 460 377 460 412 434 c 1,37,-1
 414 434 l 1,38,-1
 418 478 l 1,39,-1
 444 478 l 1,40,-1
 444 48 l 1,41,-1
 444 -168 l 2,42,43
 444 -198 444 -198 464 -198 c 0,44,45
 467 -198 467 -198 470.5 -198 c 128,-1,46
 474 -198 474 -198 482 -196 c 1,47,-1
 488 -222 l 1,48,49
 482 -224 482 -224 476.5 -225 c 128,-1,50
 471 -226 471 -226 462 -226 c 0,16,17
EndSplineSet
Validated: 524289
Substitution2: "'sups' Superscript lookup 26 subtable" q.sups
Substitution2: "'smcp' Lowercase to Small Capitals lookup 20 subtable" Q.sc
AlternateSubs2: "'aalt' Access All Alternates lookup 1 subtable" Q.sc q.sups
EndChar

StartChar: r
Encoding: 114 114 45
Width: 306
GlyphClass: 2
Flags: W
AnchorPoint: "Anchor-4" 110 -22 basechar 0
AnchorPoint: "Anchor-0" 192 502 basechar 0
LayerCount: 2
Fore
SplineSet
96 0 m 1,0,-1
 96 478 l 1,1,-1
 122 478 l 1,2,-1
 126 388 l 1,3,-1
 128 388 l 1,4,5
 152 432 152 432 186 461 c 128,-1,6
 220 490 220 490 264 490 c 0,7,8
 276 490 276 490 287 488 c 128,-1,9
 298 486 298 486 310 480 c 1,10,-1
 302 452 l 1,11,12
 290 457 290 457 282 458.5 c 128,-1,13
 274 460 274 460 260 460 c 0,14,15
 227 460 227 460 191 431.5 c 128,-1,16
 155 403 155 403 126 332 c 1,17,-1
 126 0 l 1,18,-1
 96 0 l 1,0,-1
EndSplineSet
Validated: 1
Substitution2: "'sups' Superscript lookup 26 subtable" r.sups
Substitution2: "'smcp' Lowercase to Small Capitals lookup 20 subtable" R.sc
AlternateSubs2: "'aalt' Access All Alternates lookup 1 subtable" R.sc r.sups
EndChar

StartChar: s
Encoding: 115 115 46
Width: 400
GlyphClass: 2
Flags: W
AnchorPoint: "Anchor-4" 216 -22 basechar 0
AnchorPoint: "Anchor-3" 216 0 basechar 0
AnchorPoint: "Anchor-0" 206 502 basechar 0
LayerCount: 2
Fore
SplineSet
208 -12 m 0,0,1
 154 -12 154 -12 110 7.5 c 128,-1,2
 66 27 66 27 34 54 c 1,3,-1
 54 78 l 1,4,5
 84 52 84 52 120 34 c 128,-1,6
 156 16 156 16 210 16 c 0,7,8
 240 16 240 16 263 24.5 c 128,-1,9
 286 33 286 33 301 47 c 128,-1,10
 316 61 316 61 324 79.5 c 128,-1,11
 332 98 332 98 332 118 c 0,12,13
 332 142 332 142 321 159.5 c 128,-1,14
 310 177 310 177 293 190.5 c 128,-1,15
 276 204 276 204 254.5 213 c 128,-1,16
 233 222 233 222 212 230 c 0,17,18
 184 240 184 240 156.5 251 c 128,-1,19
 129 262 129 262 106.5 277 c 128,-1,20
 84 292 84 292 70 313.5 c 128,-1,21
 56 335 56 335 56 366 c 0,22,23
 56 391 56 391 65.5 413.5 c 128,-1,24
 75 436 75 436 94 453 c 128,-1,25
 113 470 113 470 141 480 c 128,-1,26
 169 490 169 490 206 490 c 0,27,28
 242 490 242 490 277 476.5 c 128,-1,29
 312 463 312 463 338 442 c 1,30,-1
 320 418 l 1,31,32
 296 436 296 436 269 449 c 128,-1,33
 242 462 242 462 204 462 c 0,34,35
 174 462 174 462 152 454 c 128,-1,36
 130 446 130 446 116 432.5 c 128,-1,37
 102 419 102 419 95 402.5 c 128,-1,38
 88 386 88 386 88 368 c 0,39,40
 88 346 88 346 98 330.5 c 128,-1,41
 108 315 108 315 124.5 303.5 c 128,-1,42
 141 292 141 292 161.5 283 c 128,-1,43
 182 274 182 274 204 266 c 0,44,45
 232 255 232 255 261 244 c 128,-1,46
 290 233 290 233 312.5 217.5 c 128,-1,47
 335 202 335 202 349.5 178.5 c 128,-1,48
 364 155 364 155 364 120 c 0,49,50
 364 94 364 94 353.5 70 c 128,-1,51
 343 46 343 46 323.5 28 c 128,-1,52
 304 10 304 10 274.5 -1 c 128,-1,53
 245 -12 245 -12 208 -12 c 0,0,1
EndSplineSet
Validated: 1
Substitution2: "'sups' Superscript lookup 26 subtable" s.sups
Substitution2: "'smcp' Lowercase to Small Capitals lookup 20 subtable" S.sc
AlternateSubs2: "'aalt' Access All Alternates lookup 1 subtable" S.sc s.sups
EndChar

StartChar: t
Encoding: 116 116 47
Width: 302
GlyphClass: 2
Flags: W
AnchorPoint: "Anchor-4" 194 -22 basechar 0
AnchorPoint: "Anchor-3" 202 0 basechar 0
AnchorPoint: "Anchor-0" 124 630 basechar 0
LayerCount: 2
Fore
SplineSet
218 -12 m 0,0,1
 185 -12 185 -12 163.5 -2 c 128,-1,2
 142 8 142 8 129 26 c 128,-1,3
 116 44 116 44 111 69.5 c 128,-1,4
 106 95 106 95 106 126 c 2,5,-1
 106 450 l 1,6,-1
 30 450 l 1,7,-1
 30 474 l 1,8,-1
 106 478 l 1,9,-1
 110 618 l 1,10,-1
 136 618 l 1,11,-1
 136 478 l 1,12,-1
 278 478 l 1,13,-1
 278 450 l 1,14,-1
 136 450 l 1,15,-1
 136 122 l 2,16,17
 136 99 136 99 139.5 79.5 c 128,-1,18
 143 60 143 60 152 46 c 128,-1,19
 161 32 161 32 177.5 24 c 128,-1,20
 194 16 194 16 220 16 c 0,21,22
 234 16 234 16 251 21 c 128,-1,23
 268 26 268 26 282 32 c 1,24,-1
 292 6 l 1,25,26
 271 -2 271 -2 250.5 -7 c 128,-1,27
 230 -12 230 -12 218 -12 c 0,0,1
EndSplineSet
Validated: 1
Substitution2: "'sups' Superscript lookup 26 subtable" t.sups
Substitution2: "'smcp' Lowercase to Small Capitals lookup 20 subtable" T.sc
AlternateSubs2: "'aalt' Access All Alternates lookup 1 subtable" T.sc t.sups
EndChar

StartChar: u
Encoding: 117 117 48
Width: 524
GlyphClass: 2
Flags: W
AnchorPoint: "Anchor-7" 406 0 basechar 0
AnchorPoint: "Anchor-6" 396 488 basechar 0
AnchorPoint: "Anchor-4" 280 -22 basechar 0
AnchorPoint: "Anchor-0" 262 502 basechar 0
LayerCount: 2
Fore
SplineSet
232 -12 m 0,0,1
 158 -12 158 -12 123 32 c 128,-1,2
 88 76 88 76 88 170 c 2,3,-1
 88 478 l 1,4,-1
 118 478 l 1,5,-1
 118 174 l 2,6,7
 118 94 118 94 145 55 c 128,-1,8
 172 16 172 16 234 16 c 0,9,10
 279 16 279 16 316 41 c 128,-1,11
 353 66 353 66 398 120 c 1,12,-1
 398 262 l 1,13,-1
 398 478 l 1,14,-1
 428 478 l 1,15,-1
 428 262 l 1,16,-1
 428 46 l 2,17,18
 428 16 428 16 448 16 c 0,19,20
 451 16 451 16 454.5 16 c 128,-1,21
 458 16 458 16 466 18 c 1,22,-1
 472 -8 l 1,23,24
 466 -10 466 -10 460.5 -11 c 128,-1,25
 455 -12 455 -12 446 -12 c 0,26,27
 423 -12 423 -12 410.5 2.5 c 128,-1,28
 398 17 398 17 398 52 c 2,29,-1
 398 82 l 1,30,-1
 396 82 l 1,31,32
 360 40 360 40 321 14 c 128,-1,33
 282 -12 282 -12 232 -12 c 0,0,1
EndSplineSet
Validated: 1
Substitution2: "'sups' Superscript lookup 26 subtable" u.sups
Substitution2: "'smcp' Lowercase to Small Capitals lookup 20 subtable" U.sc
AlternateSubs2: "'aalt' Access All Alternates lookup 1 subtable" U.sc u.sups
EndChar

StartChar: v
Encoding: 118 118 49
Width: 422
GlyphClass: 2
Flags: W
AnchorPoint: "Anchor-4" 212 -22 basechar 0
AnchorPoint: "Anchor-0" 212 502 basechar 0
LayerCount: 2
Fore
SplineSet
194 0 m 1,0,-1
 12 478 l 1,1,-1
 46 478 l 1,2,-1
 160 168 l 2,3,4
 172 133 172 133 185 98.5 c 128,-1,5
 198 64 198 64 210 32 c 1,6,-1
 214 32 l 1,7,8
 226 64 226 64 239 98.5 c 128,-1,9
 252 133 252 133 264 168 c 2,10,-1
 378 478 l 1,11,-1
 410 478 l 1,12,-1
 230 0 l 1,13,-1
 194 0 l 1,0,-1
EndSplineSet
Validated: 1
Substitution2: "'sups' Superscript lookup 26 subtable" v.sups
Substitution2: "'smcp' Lowercase to Small Capitals lookup 20 subtable" V.sc
AlternateSubs2: "'aalt' Access All Alternates lookup 1 subtable" V.sc v.sups
EndChar

StartChar: w
Encoding: 119 119 50
Width: 672
GlyphClass: 2
Flags: W
AnchorPoint: "Anchor-4" 336 -22 basechar 0
AnchorPoint: "Anchor-0" 336 502 basechar 0
LayerCount: 2
Fore
SplineSet
168 0 m 1,0,-1
 24 478 l 1,1,-1
 58 478 l 1,2,-1
 150 156 l 2,3,4
 159 123 159 123 167.5 92.5 c 128,-1,5
 176 62 176 62 184 30 c 1,6,-1
 188 30 l 1,7,8
 197 62 197 62 206 92.5 c 128,-1,9
 215 123 215 123 224 156 c 2,10,-1
 316 478 l 1,11,-1
 358 478 l 1,12,-1
 450 156 l 2,13,14
 459 123 459 123 468 92.5 c 128,-1,15
 477 62 477 62 486 30 c 1,16,-1
 490 30 l 1,17,18
 499 62 499 62 508 92.5 c 128,-1,19
 517 123 517 123 526 156 c 2,20,-1
 616 478 l 1,21,-1
 648 478 l 1,22,-1
 508 0 l 1,23,-1
 466 0 l 1,24,-1
 376 312 l 2,25,26
 365 347 365 347 357 380 c 128,-1,27
 349 413 349 413 338 448 c 1,28,-1
 334 448 l 1,29,30
 325 413 325 413 315.5 379 c 128,-1,31
 306 345 306 345 294 310 c 2,32,-1
 206 0 l 1,33,-1
 168 0 l 1,0,-1
EndSplineSet
Validated: 1
Substitution2: "'sups' Superscript lookup 26 subtable" w.sups
Substitution2: "'smcp' Lowercase to Small Capitals lookup 20 subtable" W.sc
AlternateSubs2: "'aalt' Access All Alternates lookup 1 subtable" W.sc w.sups
EndChar

StartChar: x
Encoding: 120 120 51
Width: 392
GlyphClass: 2
Flags: W
AnchorPoint: "Anchor-4" 196 -22 basechar 0
AnchorPoint: "Anchor-0" 196 502 basechar 0
LayerCount: 2
Fore
SplineSet
14 0 m 1,0,-1
 178 250 l 1,1,-1
 28 478 l 1,2,-1
 62 478 l 1,3,-1
 144 350 l 2,4,5
 156 330 156 330 169 311 c 128,-1,6
 182 292 182 292 196 272 c 1,7,-1
 200 272 l 1,8,9
 214 292 214 292 226 311 c 128,-1,10
 238 330 238 330 252 350 c 2,11,-1
 332 478 l 1,12,-1
 364 478 l 1,13,-1
 214 248 l 1,14,-1
 378 0 l 1,15,-1
 344 0 l 1,16,-1
 254 138 l 2,17,18
 240 161 240 161 225.5 183 c 128,-1,19
 211 205 211 205 196 226 c 1,20,-1
 192 226 l 1,21,22
 177 205 177 205 163 183 c 128,-1,23
 149 161 149 161 134 138 c 2,24,-1
 46 0 l 1,25,-1
 14 0 l 1,0,-1
EndSplineSet
Validated: 1
Substitution2: "'sups' Superscript lookup 26 subtable" x.sups
Substitution2: "'smcp' Lowercase to Small Capitals lookup 20 subtable" X.sc
AlternateSubs2: "'aalt' Access All Alternates lookup 1 subtable" X.sc x.sups
EndChar

StartChar: y
Encoding: 121 121 52
Width: 424
GlyphClass: 2
Flags: W
AnchorPoint: "Anchor-4" 178 -242 basechar 0
AnchorPoint: "Anchor-0" 224 502 basechar 0
LayerCount: 2
Fore
SplineSet
66 -222 m 0,0,1
 40 -222 40 -222 20 -212 c 1,2,-1
 28 -184 l 1,3,4
 36 -187 36 -187 46.5 -189.5 c 128,-1,5
 57 -192 57 -192 68 -192 c 0,6,7
 113 -192 113 -192 144.5 -153.5 c 128,-1,8
 176 -115 176 -115 196 -56 c 2,9,-1
 210 -12 l 1,10,-1
 12 478 l 1,11,-1
 46 478 l 1,12,-1
 168 164 l 2,13,14
 180 134 180 134 194 98 c 128,-1,15
 208 62 208 62 222 30 c 1,16,-1
 226 30 l 1,17,18
 238 62 238 62 249.5 98 c 128,-1,19
 261 134 261 134 272 164 c 2,20,-1
 380 478 l 1,21,-1
 412 478 l 1,22,-1
 220 -68 l 2,23,24
 211 -96 211 -96 197.5 -123.5 c 128,-1,25
 184 -151 184 -151 165 -173 c 128,-1,26
 146 -195 146 -195 121.5 -208.5 c 128,-1,27
 97 -222 97 -222 66 -222 c 0,0,1
EndSplineSet
Validated: 1
Substitution2: "'sups' Superscript lookup 26 subtable" y.sups
Substitution2: "'smcp' Lowercase to Small Capitals lookup 20 subtable" Y.sc
AlternateSubs2: "'aalt' Access All Alternates lookup 1 subtable" Y.sc y.sups
EndChar

StartChar: z
Encoding: 122 122 53
Width: 396
GlyphClass: 2
Flags: W
AnchorPoint: "Anchor-4" 214 -22 basechar 0
AnchorPoint: "Anchor-0" 216 502 basechar 0
LayerCount: 2
Fore
SplineSet
26 0 m 1,0,-1
 26 16 l 1,1,-1
 320 450 l 1,2,-1
 58 450 l 1,3,-1
 58 478 l 1,4,-1
 360 478 l 1,5,-1
 360 462 l 1,6,-1
 66 28 l 1,7,-1
 370 28 l 1,8,-1
 370 0 l 1,9,-1
 26 0 l 1,0,-1
EndSplineSet
Validated: 1
Substitution2: "'sups' Superscript lookup 26 subtable" z.sups
Substitution2: "'smcp' Lowercase to Small Capitals lookup 20 subtable" Z.sc
AlternateSubs2: "'aalt' Access All Alternates lookup 1 subtable" Z.sc z.sups
EndChar

StartChar: Aogonek
Encoding: 260 260 75
Width: 520
GlyphClass: 2
Flags: W
AnchorPoint: "Anchor-1" 260 682 basechar 0
LayerCount: 2
Fore
SplineSet
488 -202 m 0,0,1
 455 -202 455 -202 431.5 -182.5 c 128,-1,2
 408 -163 408 -163 408 -122 c 0,3,4
 408 -86 408 -86 429.5 -53 c 128,-1,5
 451 -20 451 -20 478 0 c 1,6,-1
 476 0 l 1,7,-1
 394 236 l 1,8,-1
 125 236 l 1,9,-1
 42 0 l 1,10,-1
 10 0 l 1,11,-1
 246 660 l 1,12,-1
 274 660 l 1,13,-1
 510 0 l 1,14,15
 480 -23 480 -23 459 -55.5 c 128,-1,16
 438 -88 438 -88 438 -120 c 0,17,18
 438 -147 438 -147 454 -160.5 c 128,-1,19
 470 -174 470 -174 490 -174 c 0,20,21
 504 -174 504 -174 513.5 -171 c 128,-1,22
 523 -168 523 -168 534 -160 c 1,23,-1
 548 -180 l 1,24,25
 537 -189 537 -189 520 -195.5 c 128,-1,26
 503 -202 503 -202 488 -202 c 0,0,1
182 396 m 2,27,-1
 135 264 l 1,28,-1
 384 264 l 1,29,-1
 338 396 l 2,30,31
 317 456 317 456 298.5 510 c 128,-1,32
 280 564 280 564 262 626 c 1,33,-1
 258 626 l 1,34,35
 240 564 240 564 221.5 510 c 128,-1,36
 203 456 203 456 182 396 c 2,27,-1
EndSplineSet
Validated: 1
Substitution2: "'c2sc' Capitals to Small Capitals lookup 17 subtable" Aogonek.sc
Ligature2: "'ccmp' Glyph Composition/Decomposition lookup 11 subtable" A uni0328
Substitution2: "'aalt' Access All Alternates lookup 0 subtable" Aogonek.sc
EndChar

StartChar: AE
Encoding: 198 198 76
Width: 804
GlyphClass: 2
Flags: W
AnchorPoint: "Anchor-1" 586 694 basechar 0
LayerCount: 2
Fore
SplineSet
280 392 m 2,0,-1
 203 254 l 1,1,-1
 414 254 l 1,2,-1
 414 630 l 1,3,-1
 410 630 l 1,4,5
 378 573 378 573 345.5 513.5 c 128,-1,6
 313 454 313 454 280 392 c 2,0,-1
26 0 m 1,7,-1
 398 660 l 1,8,-1
 748 660 l 1,9,-1
 748 632 l 1,10,-1
 446 632 l 1,11,-1
 446 366 l 1,12,-1
 696 366 l 1,13,-1
 696 338 l 1,14,-1
 446 338 l 1,15,-1
 446 28 l 1,16,-1
 758 28 l 1,17,-1
 758 0 l 1,18,-1
 414 0 l 1,19,-1
 414 226 l 1,20,-1
 187 226 l 1,21,-1
 60 0 l 1,22,-1
 26 0 l 1,7,-1
EndSplineSet
Validated: 1
Substitution2: "'c2sc' Capitals to Small Capitals lookup 17 subtable" AE.sc
Substitution2: "'aalt' Access All Alternates lookup 0 subtable" AE.sc
EndChar

StartChar: uni0243
Encoding: 579 579 79
Width: 582
Flags: W
LayerCount: 2
Fore
SplineSet
112 0 m 1,0,-1
 112 178 l 1,1,-1
 34 178 l 1,2,-1
 34 204 l 1,3,-1
 112 206 l 1,4,-1
 112 660 l 1,5,-1
 284 660 l 2,6,7
 384 660 384 660 441 620.5 c 128,-1,8
 498 581 498 581 498 500 c 0,9,10
 498 447 498 447 468.5 409 c 128,-1,11
 439 371 439 371 380 356 c 1,12,-1
 380 352 l 1,13,14
 454 341 454 341 497 301 c 128,-1,15
 540 261 540 261 540 192 c 0,16,17
 540 97 540 97 474.5 48.5 c 128,-1,18
 409 0 409 0 296 0 c 2,19,-1
 112 0 l 1,0,-1
144 366 m 1,20,-1
 264 366 l 2,21,22
 372 366 372 366 419 400.5 c 128,-1,23
 466 435 466 435 466 504 c 0,24,25
 466 572 466 572 416.5 602 c 128,-1,26
 367 632 367 632 270 632 c 2,27,-1
 144 632 l 1,28,-1
 144 366 l 1,20,-1
144 28 m 1,29,-1
 284 28 l 2,30,31
 336 28 336 28 377.5 37.5 c 128,-1,32
 419 47 419 47 448 67 c 128,-1,33
 477 87 477 87 492.5 117.5 c 128,-1,34
 508 148 508 148 508 190 c 0,35,36
 508 265 508 265 449.5 301.5 c 128,-1,37
 391 338 391 338 284 338 c 2,38,-1
 144 338 l 1,39,-1
 144 206 l 1,40,-1
 316 206 l 1,41,-1
 316 178 l 1,42,-1
 144 178 l 1,43,-1
 144 28 l 1,29,-1
EndSplineSet
Validated: 1
Substitution2: "'c2sc' Capitals to Small Capitals lookup 17 subtable" uni0243.sc
Substitution2: "'aalt' Access All Alternates lookup 0 subtable" uni0243.sc
EndChar

StartChar: Eogonek
Encoding: 280 280 106
Width: 510
GlyphClass: 2
Flags: W
AnchorPoint: "Anchor-1" 282 682 basechar 0
LayerCount: 2
Fore
SplineSet
416 -202 m 0,0,1
 383 -202 383 -202 359.5 -182.5 c 128,-1,2
 336 -163 336 -163 336 -122 c 0,3,4
 336 -84 336 -84 357 -52 c 128,-1,5
 378 -20 378 -20 408 0 c 1,6,-1
 100 0 l 1,7,-1
 100 660 l 1,8,-1
 454 660 l 1,9,-1
 454 632 l 1,10,-1
 132 632 l 1,11,-1
 132 366 l 1,12,-1
 402 366 l 1,13,-1
 402 338 l 1,14,-1
 132 338 l 1,15,-1
 132 28 l 1,16,-1
 464 28 l 1,17,-1
 464 0 l 1,18,-1
 462 0 l 1,19,20
 445 -4 445 -4 428 -14.5 c 128,-1,21
 411 -25 411 -25 397 -41 c 128,-1,22
 383 -57 383 -57 374.5 -77.5 c 128,-1,23
 366 -98 366 -98 366 -120 c 0,24,25
 366 -147 366 -147 382 -160.5 c 128,-1,26
 398 -174 398 -174 418 -174 c 0,27,28
 432 -174 432 -174 441.5 -171 c 128,-1,29
 451 -168 451 -168 462 -160 c 1,30,-1
 476 -180 l 1,31,32
 465 -189 465 -189 448 -195.5 c 128,-1,33
 431 -202 431 -202 416 -202 c 0,0,1
EndSplineSet
Validated: 1
Substitution2: "'c2sc' Capitals to Small Capitals lookup 17 subtable" Eogonek.sc
Ligature2: "'ccmp' Glyph Composition/Decomposition lookup 11 subtable" E uni0328
Substitution2: "'aalt' Access All Alternates lookup 0 subtable" Eogonek.sc
EndChar

StartChar: uni0193
Encoding: 403 403 116
Width: 600
Flags: W
LayerCount: 2
Fore
SplineSet
334 -12 m 0,0,1
 271 -12 271 -12 219.5 12.5 c 128,-1,2
 168 37 168 37 132 82 c 128,-1,3
 96 127 96 127 76 190.5 c 128,-1,4
 56 254 56 254 56 332 c 256,5,6
 56 410 56 410 76.5 473 c 128,-1,7
 97 536 97 536 134.5 580 c 128,-1,8
 172 624 172 624 225.5 648 c 128,-1,9
 279 672 279 672 344 672 c 0,10,11
 386 672 386 672 418.5 663.5 c 128,-1,12
 451 655 451 655 475 643 c 1,13,14
 464 661 464 661 460 676 c 128,-1,15
 456 691 456 691 456 710 c 0,16,17
 456 750 456 750 482 771 c 128,-1,18
 508 792 508 792 544 792 c 0,19,20
 556 792 556 792 567 788.5 c 128,-1,21
 578 785 578 785 588 780 c 1,22,-1
 580 754 l 1,23,24
 572 757 572 757 563 760.5 c 128,-1,25
 554 764 554 764 542 764 c 0,26,27
 513 764 513 764 499.5 746 c 128,-1,28
 486 728 486 728 486 706 c 0,29,30
 486 681 486 681 493 662.5 c 128,-1,31
 500 644 500 644 520 614 c 1,32,-1
 500 592 l 1,33,34
 474 612 474 612 437 627 c 128,-1,35
 400 642 400 642 344 642 c 0,36,37
 285 642 285 642 238 620.5 c 128,-1,38
 191 599 191 599 158 558.5 c 128,-1,39
 125 518 125 518 107.5 460.5 c 128,-1,40
 90 403 90 403 90 332 c 256,41,42
 90 261 90 261 107 203 c 128,-1,43
 124 145 124 145 155.5 104 c 128,-1,44
 187 63 187 63 232.5 40.5 c 128,-1,45
 278 18 278 18 336 18 c 0,46,47
 384 18 384 18 426 32 c 128,-1,48
 468 46 468 46 494 72 c 1,49,-1
 494 290 l 1,50,-1
 330 290 l 1,51,-1
 330 318 l 1,52,-1
 526 318 l 1,53,-1
 526 62 l 1,54,55
 496 29 496 29 447.5 8.5 c 128,-1,56
 399 -12 399 -12 334 -12 c 0,0,1
EndSplineSet
Validated: 1
Substitution2: "'c2sc' Capitals to Small Capitals lookup 17 subtable" uni0193.sc
Substitution2: "'aalt' Access All Alternates lookup 0 subtable" uni0193.sc
EndChar

StartChar: Hbar
Encoding: 294 294 120
Width: 666
Flags: W
LayerCount: 2
Fore
SplineSet
38 496 m 1,0,-1
 38 520 l 1,1,-1
 120 524 l 1,2,-1
 120 660 l 1,3,-1
 152 660 l 1,4,-1
 152 524 l 1,5,-1
 522 524 l 1,6,-1
 522 660 l 1,7,-1
 554 660 l 1,8,-1
 554 524 l 1,9,-1
 628 524 l 1,10,-1
 628 496 l 1,11,-1
 554 496 l 1,12,-1
 554 0 l 1,13,-1
 522 0 l 1,14,-1
 522 338 l 1,15,-1
 152 338 l 1,16,-1
 152 0 l 1,17,-1
 120 0 l 1,18,-1
 120 496 l 1,19,-1
 38 496 l 1,0,-1
152 366 m 1,20,-1
 522 366 l 1,21,-1
 522 496 l 1,22,-1
 152 496 l 1,23,-1
 152 366 l 1,20,-1
EndSplineSet
Validated: 1
Substitution2: "'c2sc' Capitals to Small Capitals lookup 17 subtable" Hbar.sc
Substitution2: "'aalt' Access All Alternates lookup 0 subtable" Hbar.sc
EndChar

StartChar: Iogonek
Encoding: 302 302 131
Width: 300
GlyphClass: 2
Flags: W
AnchorPoint: "Anchor-1" 152 682 basechar 0
LayerCount: 2
Fore
SplineSet
156 -202 m 0,0,1
 123 -202 123 -202 99.5 -182.5 c 128,-1,2
 76 -163 76 -163 76 -122 c 0,3,4
 76 -86 76 -86 95 -54.5 c 128,-1,5
 114 -23 114 -23 141 0 c 1,6,-1
 42 0 l 1,7,-1
 42 28 l 1,8,-1
 134 28 l 1,9,-1
 134 632 l 1,10,-1
 42 632 l 1,11,-1
 42 660 l 1,12,-1
 258 660 l 1,13,-1
 258 632 l 1,14,-1
 166 632 l 1,15,-1
 166 28 l 1,16,-1
 258 28 l 1,17,-1
 258 0 l 1,18,-1
 176 0 l 1,19,20
 143 -25 143 -25 124.5 -56.5 c 128,-1,21
 106 -88 106 -88 106 -120 c 0,22,23
 106 -147 106 -147 122 -160.5 c 128,-1,24
 138 -174 138 -174 158 -174 c 0,25,26
 172 -174 172 -174 181.5 -171 c 128,-1,27
 191 -168 191 -168 202 -160 c 1,28,-1
 216 -180 l 1,29,30
 205 -189 205 -189 188 -195.5 c 128,-1,31
 171 -202 171 -202 156 -202 c 0,0,1
EndSplineSet
Validated: 1
Substitution2: "'ss04' Style Set 4 lookup 43 subtable" Iogonek.a
Substitution2: "'c2sc' Capitals to Small Capitals lookup 17 subtable" Iogonek.sc
Ligature2: "'ccmp' Glyph Composition/Decomposition lookup 11 subtable" I uni0328
AlternateSubs2: "'aalt' Access All Alternates lookup 1 subtable" Iogonek.sc Iogonek.a
EndChar

StartChar: Lslash
Encoding: 321 321 144
Width: 460
Flags: W
LayerCount: 2
Fore
SplineSet
22 220 m 1,0,-1
 8 244 l 1,1,-1
 104 294 l 1,2,-1
 104 660 l 1,3,-1
 136 660 l 1,4,-1
 136 308 l 1,5,-1
 326 408 l 1,6,-1
 340 384 l 1,7,-1
 136 278 l 1,8,-1
 136 28 l 1,9,-1
 446 28 l 1,10,-1
 446 0 l 1,11,-1
 104 0 l 1,12,-1
 104 264 l 1,13,-1
 22 220 l 1,0,-1
EndSplineSet
Validated: 1
Substitution2: "'c2sc' Capitals to Small Capitals lookup 17 subtable" Lslash.sc
Substitution2: "'aalt' Access All Alternates lookup 0 subtable" Lslash.sc
EndChar

StartChar: Oslash
Encoding: 216 216 173
Width: 648
GlyphClass: 2
Flags: W
AnchorPoint: "Anchor-1" 322 682 basechar 0
LayerCount: 2
Fore
SplineSet
328 -12 m 0,0,1
 274 -12 274 -12 227.5 9 c 128,-1,2
 181 30 181 30 146 69 c 1,3,-1
 80 -20 l 1,4,-1
 58 -4 l 1,5,-1
 128 91 l 1,6,7
 96 136 96 136 78 196.5 c 128,-1,8
 60 257 60 257 60 332 c 0,9,10
 60 410 60 410 80 473 c 128,-1,11
 100 536 100 536 135.5 580 c 128,-1,12
 171 624 171 624 220 648 c 128,-1,13
 269 672 269 672 328 672 c 0,14,15
 380 672 380 672 424.5 653 c 128,-1,16
 469 634 469 634 504 599 c 1,17,-1
 564 680 l 1,18,-1
 586 664 l 1,19,-1
 522 578 l 1,20,21
 557 533 557 533 576.5 471.5 c 128,-1,22
 596 410 596 410 596 332 c 256,23,24
 596 254 596 254 576 190.5 c 128,-1,25
 556 127 556 127 520.5 82 c 128,-1,26
 485 37 485 37 435.5 12.5 c 128,-1,27
 386 -12 386 -12 328 -12 c 0,0,1
94 332 m 0,28,29
 94 266 94 266 108 212.5 c 128,-1,30
 122 159 122 159 148 118 c 1,31,-1
 485 573 l 1,32,33
 424 642 424 642 328 642 c 0,34,35
 275 642 275 642 232 620.5 c 128,-1,36
 189 599 189 599 158.5 558.5 c 128,-1,37
 128 518 128 518 111 460.5 c 128,-1,38
 94 403 94 403 94 332 c 0,28,29
328 18 m 0,39,40
 380 18 380 18 423.5 40.5 c 128,-1,41
 467 63 467 63 497.5 104 c 128,-1,42
 528 145 528 145 545 203 c 128,-1,43
 562 261 562 261 562 332 c 0,44,45
 562 401 562 401 546.5 456 c 128,-1,46
 531 511 531 511 503 551 c 1,47,-1
 165 95 l 1,48,49
 196 58 196 58 237 38 c 128,-1,50
 278 18 278 18 328 18 c 0,39,40
EndSplineSet
Validated: 1
Substitution2: "'c2sc' Capitals to Small Capitals lookup 17 subtable" Oslash.sc
Substitution2: "'aalt' Access All Alternates lookup 0 subtable" Oslash.sc
EndChar

StartChar: OE
Encoding: 338 338 174
Width: 828
GlyphClass: 2
Flags: W
AnchorPoint: "Anchor-1" 534 682 basechar 0
LayerCount: 2
Fore
SplineSet
366 0 m 2,0,1
 287 0 287 0 229 24.5 c 128,-1,2
 171 49 171 49 132.5 92.5 c 128,-1,3
 94 136 94 136 75 197 c 128,-1,4
 56 258 56 258 56 332 c 0,5,6
 56 405 56 405 75 465.5 c 128,-1,7
 94 526 94 526 132.5 569.5 c 128,-1,8
 171 613 171 613 229 636.5 c 128,-1,9
 287 660 287 660 366 660 c 2,10,-1
 772 660 l 1,11,-1
 772 632 l 1,12,-1
 470 632 l 1,13,-1
 470 366 l 1,14,-1
 720 366 l 1,15,-1
 720 338 l 1,16,-1
 470 338 l 1,17,-1
 470 28 l 1,18,-1
 782 28 l 1,19,-1
 782 0 l 1,20,-1
 366 0 l 2,0,1
370 28 m 2,21,-1
 438 28 l 1,22,-1
 438 632 l 1,23,-1
 370 632 l 2,24,25
 297 632 297 632 244.5 609.5 c 128,-1,26
 192 587 192 587 157.5 547 c 128,-1,27
 123 507 123 507 106.5 452 c 128,-1,28
 90 397 90 397 90 332 c 256,29,30
 90 267 90 267 106.5 211 c 128,-1,31
 123 155 123 155 157.5 114.5 c 128,-1,32
 192 74 192 74 244.5 51 c 128,-1,33
 297 28 297 28 370 28 c 2,21,-1
EndSplineSet
Validated: 1
Substitution2: "'c2sc' Capitals to Small Capitals lookup 17 subtable" OE.sc
Substitution2: "'aalt' Access All Alternates lookup 0 subtable" OE.sc
EndChar

StartChar: Ohorn
Encoding: 416 416 175
Width: 648
GlyphClass: 2
Flags: W
AnchorPoint: "Anchor-4" 322 -22 basechar 0
AnchorPoint: "Anchor-1" 328 682 basechar 0
LayerCount: 2
Fore
SplineSet
328 -12 m 0,0,1
 269 -12 269 -12 220 12.5 c 128,-1,2
 171 37 171 37 135.5 82 c 128,-1,3
 100 127 100 127 80 190.5 c 128,-1,4
 60 254 60 254 60 332 c 256,5,6
 60 410 60 410 80 473 c 128,-1,7
 100 536 100 536 135.5 580 c 128,-1,8
 171 624 171 624 220 648 c 128,-1,9
 269 672 269 672 328 672 c 0,10,11
 395 672 395 672 450 640 c 1,12,13
 502 648 502 648 526 671.5 c 128,-1,14
 550 695 550 695 550 730 c 0,15,16
 550 741 550 741 547 755 c 128,-1,17
 544 769 544 769 536 782 c 1,18,-1
 566 798 l 1,19,20
 584 765 584 765 584 732 c 0,21,22
 584 685 584 685 555.5 657 c 128,-1,23
 527 629 527 629 483 618 c 1,24,25
 536 575 536 575 566 502 c 128,-1,26
 596 429 596 429 596 332 c 0,27,28
 596 254 596 254 576 190.5 c 128,-1,29
 556 127 556 127 520.5 82 c 128,-1,30
 485 37 485 37 435.5 12.5 c 128,-1,31
 386 -12 386 -12 328 -12 c 0,0,1
328 18 m 0,32,33
 380 18 380 18 423.5 40.5 c 128,-1,34
 467 63 467 63 497.5 104 c 128,-1,35
 528 145 528 145 545 203 c 128,-1,36
 562 261 562 261 562 332 c 256,37,38
 562 403 562 403 545 460.5 c 128,-1,39
 528 518 528 518 497.5 558.5 c 128,-1,40
 467 599 467 599 423.5 620.5 c 128,-1,41
 380 642 380 642 328 642 c 0,42,43
 275 642 275 642 232 620.5 c 128,-1,44
 189 599 189 599 158.5 558.5 c 128,-1,45
 128 518 128 518 111 460.5 c 128,-1,46
 94 403 94 403 94 332 c 256,47,48
 94 261 94 261 111 203 c 128,-1,49
 128 145 128 145 158.5 104 c 128,-1,50
 189 63 189 63 232 40.5 c 128,-1,51
 275 18 275 18 328 18 c 0,32,33
EndSplineSet
Validated: 1
Substitution2: "'c2sc' Capitals to Small Capitals lookup 17 subtable" Ohorn.sc
Substitution2: "'aalt' Access All Alternates lookup 0 subtable" Ohorn.sc
EndChar

StartChar: uni01EA
Encoding: 490 490 181
Width: 648
GlyphClass: 2
Flags: W
AnchorPoint: "Anchor-1" 322 682 basechar 0
LayerCount: 2
Fore
SplineSet
356 -202 m 0,0,1
 323 -202 323 -202 299.5 -182.5 c 128,-1,2
 276 -163 276 -163 276 -122 c 0,3,4
 276 -93 276 -93 291 -64.5 c 128,-1,5
 306 -36 306 -36 336 -12 c 1,6,7
 271 -13 271 -13 219.5 11.5 c 128,-1,8
 168 36 168 36 131.5 81 c 128,-1,9
 95 126 95 126 75.5 190 c 128,-1,10
 56 254 56 254 56 332 c 256,11,12
 56 410 56 410 76 473 c 128,-1,13
 96 536 96 536 131.5 580 c 128,-1,14
 167 624 167 624 216 648 c 128,-1,15
 265 672 265 672 324 672 c 0,16,17
 382 672 382 672 431.5 648 c 128,-1,18
 481 624 481 624 516.5 580 c 128,-1,19
 552 536 552 536 572 473 c 128,-1,20
 592 410 592 410 592 332 c 0,21,22
 592 201 592 201 541 119 c 128,-1,23
 490 37 490 37 390 -8 c 0,24,25
 346 -28 346 -28 326 -59.5 c 128,-1,26
 306 -91 306 -91 306 -120 c 0,27,28
 306 -147 306 -147 322 -160.5 c 128,-1,29
 338 -174 338 -174 358 -174 c 0,30,31
 372 -174 372 -174 381.5 -171 c 128,-1,32
 391 -168 391 -168 402 -160 c 1,33,-1
 416 -180 l 1,34,35
 405 -189 405 -189 388 -195.5 c 128,-1,36
 371 -202 371 -202 356 -202 c 0,0,1
324 18 m 0,37,38
 376 18 376 18 419.5 40.5 c 128,-1,39
 463 63 463 63 493.5 104 c 128,-1,40
 524 145 524 145 541 203 c 128,-1,41
 558 261 558 261 558 332 c 256,42,43
 558 403 558 403 541 460.5 c 128,-1,44
 524 518 524 518 493.5 558.5 c 128,-1,45
 463 599 463 599 419.5 620.5 c 128,-1,46
 376 642 376 642 324 642 c 0,47,48
 271 642 271 642 228 620.5 c 128,-1,49
 185 599 185 599 154.5 558.5 c 128,-1,50
 124 518 124 518 107 460.5 c 128,-1,51
 90 403 90 403 90 332 c 256,52,53
 90 261 90 261 107 203 c 128,-1,54
 124 145 124 145 154.5 104 c 128,-1,55
 185 63 185 63 228 40.5 c 128,-1,56
 271 18 271 18 324 18 c 0,37,38
EndSplineSet
Validated: 33
Substitution2: "'c2sc' Capitals to Small Capitals lookup 17 subtable" uni01EA.sc
Ligature2: "'ccmp' Glyph Composition/Decomposition lookup 11 subtable" O uni0328
Substitution2: "'aalt' Access All Alternates lookup 0 subtable" uni01EA.sc
EndChar

StartChar: uni1E9E
Encoding: 7838 7838 196
Width: 636
Flags: W
LayerCount: 2
Fore
SplineSet
410 -12 m 0,0,1
 359 -12 359 -12 312.5 8.5 c 128,-1,2
 266 29 266 29 234 68 c 1,3,-1
 258 92 l 1,4,5
 290 54 290 54 327 36 c 128,-1,6
 364 18 364 18 412 18 c 0,7,8
 481 18 481 18 518.5 59.5 c 128,-1,9
 556 101 556 101 556 164 c 0,10,11
 556 194 556 194 547 220.5 c 128,-1,12
 538 247 538 247 513.5 269.5 c 128,-1,13
 489 292 489 292 444.5 309.5 c 128,-1,14
 400 327 400 327 330 338 c 1,15,-1
 328 366 l 1,16,-1
 488 542 l 1,17,18
 468 584 468 584 430.5 613 c 128,-1,19
 393 642 393 642 334 642 c 0,20,21
 288 642 288 642 251 628.5 c 128,-1,22
 214 615 214 615 187.5 587 c 128,-1,23
 161 559 161 559 146.5 515.5 c 128,-1,24
 132 472 132 472 132 412 c 2,25,-1
 132 0 l 1,26,-1
 100 0 l 1,27,-1
 100 424 l 2,28,29
 100 485 100 485 117.5 531.5 c 128,-1,30
 135 578 135 578 166.5 609 c 128,-1,31
 198 640 198 640 241.5 656 c 128,-1,32
 285 672 285 672 336 672 c 0,33,34
 408 672 408 672 453 636 c 128,-1,35
 498 600 498 600 528 540 c 1,36,-1
 366 364 l 1,37,38
 430 354 430 354 473.5 335 c 128,-1,39
 517 316 517 316 542.5 290 c 128,-1,40
 568 264 568 264 579 232 c 128,-1,41
 590 200 590 200 590 166 c 0,42,43
 590 128 590 128 576 95.5 c 128,-1,44
 562 63 562 63 538 39 c 128,-1,45
 514 15 514 15 481 1.5 c 128,-1,46
 448 -12 448 -12 410 -12 c 0,0,1
EndSplineSet
Validated: 1
Substitution2: "'c2sc' Capitals to Small Capitals lookup 17 subtable" uni1E9E.sc
Substitution2: "'aalt' Access All Alternates lookup 0 subtable" uni1E9E.sc
EndChar

StartChar: uni0166
Encoding: 358 358 202
Width: 520
Flags: W
LayerCount: 2
Fore
SplineSet
244 0 m 1,0,-1
 244 336 l 1,1,-1
 116 336 l 1,2,-1
 116 362 l 1,3,-1
 200 364 l 1,4,-1
 244 364 l 1,5,-1
 244 632 l 1,6,-1
 30 632 l 1,7,-1
 30 660 l 1,8,-1
 490 660 l 1,9,-1
 490 632 l 1,10,-1
 276 632 l 1,11,-1
 276 364 l 1,12,-1
 404 364 l 1,13,-1
 404 336 l 1,14,-1
 276 336 l 1,15,-1
 276 0 l 1,16,-1
 244 0 l 1,0,-1
EndSplineSet
Validated: 1
Substitution2: "'c2sc' Capitals to Small Capitals lookup 17 subtable" uni0166.sc
Substitution2: "'aalt' Access All Alternates lookup 0 subtable" uni0166.sc
EndChar

StartChar: Uogonek
Encoding: 370 370 219
Width: 630
GlyphClass: 2
Flags: W
AnchorPoint: "Anchor-1" 314 682 basechar 0
LayerCount: 2
Fore
SplineSet
344 -202 m 0,0,1
 311 -202 311 -202 287.5 -182.5 c 128,-1,2
 264 -163 264 -163 264 -122 c 0,3,4
 264 -85 264 -85 284 -60.5 c 128,-1,5
 304 -36 304 -36 328 -12 c 1,6,7
 281 -13 281 -13 239 -1 c 128,-1,8
 197 11 197 11 165.5 41 c 128,-1,9
 134 71 134 71 116 121 c 128,-1,10
 98 171 98 171 98 246 c 2,11,-1
 98 660 l 1,12,-1
 130 660 l 1,13,-1
 130 254 l 2,14,15
 130 186 130 186 145 140.5 c 128,-1,16
 160 95 160 95 185.5 68 c 128,-1,17
 211 41 211 41 244.5 29.5 c 128,-1,18
 278 18 278 18 314 18 c 0,19,20
 351 18 351 18 385 29.5 c 128,-1,21
 419 41 419 41 445 68 c 128,-1,22
 471 95 471 95 486.5 140.5 c 128,-1,23
 502 186 502 186 502 254 c 2,24,-1
 502 660 l 1,25,-1
 532 660 l 1,26,-1
 532 246 l 2,27,28
 532 182 532 182 519 140 c 128,-1,29
 506 98 506 98 484.5 69.5 c 128,-1,30
 463 41 463 41 435.5 23.5 c 128,-1,31
 408 6 408 6 380 -8 c 0,32,33
 339 -29 339 -29 316.5 -61 c 128,-1,34
 294 -93 294 -93 294 -120 c 256,35,36
 294 -147 294 -147 310 -160.5 c 128,-1,37
 326 -174 326 -174 346 -174 c 0,38,39
 360 -174 360 -174 369.5 -171 c 128,-1,40
 379 -168 379 -168 390 -160 c 1,41,-1
 404 -180 l 1,42,43
 393 -189 393 -189 376 -195.5 c 128,-1,44
 359 -202 359 -202 344 -202 c 0,0,1
EndSplineSet
Validated: 33
Substitution2: "'c2sc' Capitals to Small Capitals lookup 17 subtable" Uogonek.sc
Ligature2: "'ccmp' Glyph Composition/Decomposition lookup 11 subtable" U uni0328
Substitution2: "'aalt' Access All Alternates lookup 0 subtable" Uogonek.sc
EndChar

StartChar: Uhorn
Encoding: 431 431 220
Width: 640
GlyphClass: 2
Flags: W
AnchorPoint: "Anchor-4" 314 -22 basechar 0
AnchorPoint: "Anchor-1" 316 682 basechar 0
LayerCount: 2
Fore
SplineSet
314 -12 m 256,0,1
 274 -12 274 -12 235.5 -0.5 c 128,-1,2
 197 11 197 11 166.5 40.5 c 128,-1,3
 136 70 136 70 117 119.5 c 128,-1,4
 98 169 98 169 98 246 c 2,5,-1
 98 660 l 1,6,-1
 130 660 l 1,7,-1
 130 254 l 2,8,9
 130 186 130 186 145 140.5 c 128,-1,10
 160 95 160 95 185.5 68 c 128,-1,11
 211 41 211 41 244.5 29.5 c 128,-1,12
 278 18 278 18 314 18 c 0,13,14
 351 18 351 18 385 29.5 c 128,-1,15
 419 41 419 41 445 68 c 128,-1,16
 471 95 471 95 486.5 140.5 c 128,-1,17
 502 186 502 186 502 254 c 2,18,-1
 502 660 l 1,19,-1
 504 660 l 1,20,21
 555 668 555 668 577.5 689.5 c 128,-1,22
 600 711 600 711 600 750 c 0,23,24
 600 761 600 761 597 775 c 128,-1,25
 594 789 594 789 586 802 c 1,26,-1
 616 818 l 1,27,28
 634 785 634 785 634 752 c 0,29,30
 634 725 634 725 625 706 c 128,-1,31
 616 687 616 687 601.5 673.5 c 128,-1,32
 587 660 587 660 569 651.5 c 128,-1,33
 551 643 551 643 532 638 c 1,34,-1
 532 246 l 2,35,36
 532 169 532 169 513 119.5 c 128,-1,37
 494 70 494 70 463 40.5 c 128,-1,38
 432 11 432 11 393 -0.5 c 128,-1,39
 354 -12 354 -12 314 -12 c 256,0,1
EndSplineSet
Validated: 1
Substitution2: "'c2sc' Capitals to Small Capitals lookup 17 subtable" Uhorn.sc
Substitution2: "'aalt' Access All Alternates lookup 0 subtable" Uhorn.sc
EndChar

StartChar: Eth
Encoding: 208 208 243
Width: 620
Flags: W
LayerCount: 2
Fore
SplineSet
38 336 m 1,0,-1
 38 362 l 1,1,-1
 120 364 l 1,2,-1
 120 660 l 1,3,-1
 268 660 l 2,4,5
 344 660 344 660 400 636.5 c 128,-1,6
 456 613 456 613 492.5 569.5 c 128,-1,7
 529 526 529 526 546.5 465.5 c 128,-1,8
 564 405 564 405 564 332 c 0,9,10
 564 258 564 258 546.5 197 c 128,-1,11
 529 136 529 136 492.5 92.5 c 128,-1,12
 456 49 456 49 400 24.5 c 128,-1,13
 344 0 344 0 268 0 c 2,14,-1
 120 0 l 1,15,-1
 120 336 l 1,16,-1
 38 336 l 1,0,-1
152 28 m 1,17,-1
 264 28 l 2,18,19
 334 28 334 28 384.5 51 c 128,-1,20
 435 74 435 74 467.5 114.5 c 128,-1,21
 500 155 500 155 515 211 c 128,-1,22
 530 267 530 267 530 332 c 256,23,24
 530 397 530 397 515 452 c 128,-1,25
 500 507 500 507 467.5 547 c 128,-1,26
 435 587 435 587 384.5 609.5 c 128,-1,27
 334 632 334 632 264 632 c 2,28,-1
 152 632 l 1,29,-1
 152 364 l 1,30,-1
 320 364 l 1,31,-1
 320 336 l 1,32,-1
 152 336 l 1,33,-1
 152 28 l 1,17,-1
EndSplineSet
Validated: 1
Substitution2: "'c2sc' Capitals to Small Capitals lookup 17 subtable" Eth.sc
Substitution2: "'aalt' Access All Alternates lookup 0 subtable" Eth.sc
EndChar

StartChar: Thorn
Encoding: 222 222 244
Width: 556
Flags: W
LayerCount: 2
Fore
SplineSet
100 0 m 1,0,-1
 100 660 l 1,1,-1
 132 660 l 1,2,-1
 132 540 l 1,3,-1
 272 540 l 2,4,5
 383 540 383 540 443.5 499.5 c 128,-1,6
 504 459 504 459 504 360 c 0,7,8
 504 265 504 265 444 218.5 c 128,-1,9
 384 172 384 172 272 172 c 2,10,-1
 132 172 l 1,11,-1
 132 0 l 1,12,-1
 100 0 l 1,0,-1
132 200 m 1,13,-1
 260 200 l 2,14,15
 367 200 367 200 418.5 237 c 128,-1,16
 470 274 470 274 470 360 c 0,17,18
 470 447 470 447 418 479.5 c 128,-1,19
 366 512 366 512 260 512 c 2,20,-1
 132 512 l 1,21,-1
 132 200 l 1,13,-1
EndSplineSet
Validated: 1
Substitution2: "'c2sc' Capitals to Small Capitals lookup 17 subtable" Thorn.sc
Substitution2: "'aalt' Access All Alternates lookup 0 subtable" Thorn.sc
EndChar

StartChar: uni018F
Encoding: 399 399 245
Width: 644
GlyphClass: 2
Flags: W
AnchorPoint: "Anchor-4" 336 -22 basechar 0
AnchorPoint: "Anchor-1" 338 682 basechar 0
LayerCount: 2
Fore
SplineSet
320 -12 m 0,0,1
 258 -12 258 -12 210.5 13 c 128,-1,2
 163 38 163 38 130.5 83 c 128,-1,3
 98 128 98 128 81 190 c 128,-1,4
 64 252 64 252 64 326 c 2,5,-1
 64 332 l 1,6,-1
 556 332 l 1,7,8
 556 480 556 480 497.5 562 c 128,-1,9
 439 644 439 644 326 644 c 0,10,11
 275 644 275 644 229.5 626 c 128,-1,12
 184 608 184 608 152 576 c 1,13,-1
 134 598 l 1,14,15
 166 630 166 630 215 651 c 128,-1,16
 264 672 264 672 324 672 c 0,17,18
 452 672 452 672 520 583.5 c 128,-1,19
 588 495 588 495 588 332 c 0,20,21
 588 251 588 251 569 187 c 128,-1,22
 550 123 550 123 515.5 79 c 128,-1,23
 481 35 481 35 431 11.5 c 128,-1,24
 381 -12 381 -12 320 -12 c 0,0,1
320 16 m 0,25,26
 373 16 373 16 415 36 c 128,-1,27
 457 56 457 56 487 93 c 128,-1,28
 517 130 517 130 534.5 183.5 c 128,-1,29
 552 237 552 237 555 304 c 1,30,-1
 96 304 l 1,31,32
 97 239 97 239 114 185.5 c 128,-1,33
 131 132 131 132 160.5 94.5 c 128,-1,34
 190 57 190 57 230.5 36.5 c 128,-1,35
 271 16 271 16 320 16 c 0,25,26
EndSplineSet
Validated: 1
Substitution2: "'c2sc' Capitals to Small Capitals lookup 17 subtable" uni018F.sc
Substitution2: "'aalt' Access All Alternates lookup 0 subtable" uni018F.sc
EndChar

StartChar: uni014A
Encoding: 330 330 246
Width: 610
GlyphClass: 2
Flags: W
AnchorPoint: "Anchor-1" 330 682 basechar 0
LayerCount: 2
Fore
SplineSet
402 -12 m 0,0,1
 385 -12 385 -12 365.5 -9 c 128,-1,2
 346 -6 346 -6 332 0 c 1,3,-1
 344 32 l 1,4,5
 356 26 356 26 369 23 c 128,-1,6
 382 20 382 20 400 20 c 0,7,8
 424 20 424 20 446 36 c 128,-1,9
 468 52 468 52 484.5 89 c 128,-1,10
 501 126 501 126 510.5 187 c 128,-1,11
 520 248 520 248 520 338 c 0,12,13
 520 426 520 426 505.5 485 c 128,-1,14
 491 544 491 544 464.5 578.5 c 128,-1,15
 438 613 438 613 401.5 627.5 c 128,-1,16
 365 642 365 642 322 642 c 0,17,18
 299 642 299 642 272.5 633 c 128,-1,19
 246 624 246 624 220.5 609 c 128,-1,20
 195 594 195 594 172 574 c 128,-1,21
 149 554 149 554 132 532 c 1,22,-1
 132 0 l 1,23,-1
 100 0 l 1,24,-1
 100 660 l 1,25,-1
 132 660 l 1,26,-1
 132 570 l 1,27,28
 149 589 149 589 171 607.5 c 128,-1,29
 193 626 193 626 218 640.5 c 128,-1,30
 243 655 243 655 270 663.5 c 128,-1,31
 297 672 297 672 324 672 c 0,32,33
 373 672 373 672 415.5 654.5 c 128,-1,34
 458 637 458 637 488.5 597.5 c 128,-1,35
 519 558 519 558 536.5 494 c 128,-1,36
 554 430 554 430 554 338 c 0,37,38
 554 237 554 237 541.5 170 c 128,-1,39
 529 103 529 103 508 62.5 c 128,-1,40
 487 22 487 22 459.5 5 c 128,-1,41
 432 -12 432 -12 402 -12 c 0,0,1
EndSplineSet
Validated: 1
Substitution2: "'c2sc' Capitals to Small Capitals lookup 17 subtable" uni014A.sc
Substitution2: "'salt' Stylistic Alternatives lookup 3 subtable" uni014A.a
AlternateSubs2: "'aalt' Access All Alternates lookup 1 subtable" uni014A.a uni014A.sc
EndChar

StartChar: uni0132
Encoding: 306 306 247
Width: 464
Flags: W
LayerCount: 2
Fore
SplineSet
100 0 m 1,0,-1
 100 660 l 1,1,-1
 132 660 l 1,2,-1
 132 0 l 1,3,-1
 100 0 l 1,0,-1
264 -152 m 0,4,5
 249 -152 249 -152 233 -148.5 c 128,-1,6
 217 -145 217 -145 206 -140 c 1,7,-1
 214 -110 l 1,8,9
 223 -113 223 -113 237 -116.5 c 128,-1,10
 251 -120 251 -120 266 -120 c 0,11,12
 287 -120 287 -120 300 -112 c 128,-1,13
 313 -104 313 -104 320 -89.5 c 128,-1,14
 327 -75 327 -75 329.5 -55 c 128,-1,15
 332 -35 332 -35 332 -12 c 2,16,-1
 332 660 l 1,17,-1
 364 660 l 1,18,-1
 364 -20 l 2,19,20
 364 -89 364 -89 339 -120.5 c 128,-1,21
 314 -152 314 -152 264 -152 c 0,4,5
EndSplineSet
Validated: 1
Substitution2: "'c2sc' Capitals to Small Capitals lookup 17 subtable" uni0132.sc
Substitution2: "'aalt' Access All Alternates lookup 0 subtable" uni0132.sc
EndChar

StartChar: aogonek
Encoding: 261 261 269
Width: 486
GlyphClass: 2
Flags: W
AnchorPoint: "Anchor-0" 260 502 basechar 0
LayerCount: 2
Fore
SplineSet
366 -202 m 0,0,1
 333 -202 333 -202 310.5 -182.5 c 128,-1,2
 288 -163 288 -163 288 -122 c 0,3,4
 288 -84 288 -84 314 -49.5 c 128,-1,5
 340 -15 340 -15 378 8 c 1,6,-1
 374 64 l 1,7,-1
 372 64 l 1,8,9
 334 34 334 34 290 11 c 128,-1,10
 246 -12 246 -12 198 -12 c 0,11,12
 170 -12 170 -12 145 -4.5 c 128,-1,13
 120 3 120 3 101 18.5 c 128,-1,14
 82 34 82 34 71 58 c 128,-1,15
 60 82 60 82 60 116 c 0,16,17
 60 197 60 197 136 238.5 c 128,-1,18
 212 280 212 280 374 298 c 1,19,20
 375 327 375 327 370.5 356.5 c 128,-1,21
 366 386 366 386 353 409.5 c 128,-1,22
 340 433 340 433 316.5 447.5 c 128,-1,23
 293 462 293 462 256 462 c 0,24,25
 230 462 230 462 207 456.5 c 128,-1,26
 184 451 184 451 164 442 c 128,-1,27
 144 433 144 433 127.5 423 c 128,-1,28
 111 413 111 413 100 404 c 1,29,-1
 84 428 l 1,30,31
 95 436 95 436 112.5 447 c 128,-1,32
 130 458 130 458 152.5 467.5 c 128,-1,33
 175 477 175 477 202 483.5 c 128,-1,34
 229 490 229 490 258 490 c 0,35,36
 300 490 300 490 328 475.5 c 128,-1,37
 356 461 356 461 373 436 c 128,-1,38
 390 411 390 411 397 378.5 c 128,-1,39
 404 346 404 346 404 310 c 2,40,-1
 404 0 l 1,41,42
 368 -20 368 -20 343 -53.5 c 128,-1,43
 318 -87 318 -87 318 -120 c 0,44,45
 318 -147 318 -147 333 -160.5 c 128,-1,46
 348 -174 348 -174 368 -174 c 0,47,48
 382 -174 382 -174 391.5 -171 c 128,-1,49
 401 -168 401 -168 412 -160 c 1,50,-1
 426 -180 l 1,51,52
 415 -189 415 -189 398 -195.5 c 128,-1,53
 381 -202 381 -202 366 -202 c 0,0,1
200 16 m 0,54,55
 244 16 244 16 285 36.5 c 128,-1,56
 326 57 326 57 374 98 c 1,57,-1
 374 272 l 1,58,59
 295 263 295 263 241 249.5 c 128,-1,60
 187 236 187 236 154 217 c 128,-1,61
 121 198 121 198 106.5 173.5 c 128,-1,62
 92 149 92 149 92 118 c 0,63,64
 92 90 92 90 100.5 70.5 c 128,-1,65
 109 51 109 51 124 39 c 128,-1,66
 139 27 139 27 158.5 21.5 c 128,-1,67
 178 16 178 16 200 16 c 0,54,55
EndSplineSet
Validated: 33
Substitution2: "'ss02' Style Set 2 lookup 39 subtable" aogonek.a
Substitution2: "'smcp' Lowercase to Small Capitals lookup 20 subtable" Aogonek.sc
Ligature2: "'ccmp' Glyph Composition/Decomposition lookup 11 subtable" a uni0328
AlternateSubs2: "'aalt' Access All Alternates lookup 1 subtable" Aogonek.sc aogonek.a
EndChar

StartChar: ae
Encoding: 230 230 270
Width: 784
GlyphClass: 2
Flags: W
AnchorPoint: "Anchor-4" 428 -22 basechar 0
AnchorPoint: "Anchor-0" 414 502 basechar 0
LayerCount: 2
Fore
SplineSet
206 -12 m 0,0,1
 178 -12 178 -12 153 -4.5 c 128,-1,2
 128 3 128 3 109 18.5 c 128,-1,3
 90 34 90 34 79 58 c 128,-1,4
 68 82 68 82 68 116 c 0,5,6
 68 197 68 197 144 238.5 c 128,-1,7
 220 280 220 280 376 298 c 1,8,9
 377 327 377 327 372.5 356.5 c 128,-1,10
 368 386 368 386 355 409.5 c 128,-1,11
 342 433 342 433 318.5 447.5 c 128,-1,12
 295 462 295 462 258 462 c 0,13,14
 235 462 235 462 212.5 456.5 c 128,-1,15
 190 451 190 451 170.5 442 c 128,-1,16
 151 433 151 433 135 423 c 128,-1,17
 119 413 119 413 108 404 c 1,18,-1
 92 428 l 1,19,20
 103 436 103 436 120.5 447 c 128,-1,21
 138 458 138 458 160 467.5 c 128,-1,22
 182 477 182 477 207.5 483.5 c 128,-1,23
 233 490 233 490 260 490 c 0,24,25
 320 490 320 490 354.5 455.5 c 128,-1,26
 389 421 389 421 400 364 c 1,27,28
 426 421 426 421 471 455.5 c 128,-1,29
 516 490 516 490 570 490 c 0,30,31
 653 490 653 490 699.5 433.5 c 128,-1,32
 746 377 746 377 746 270 c 0,33,34
 746 262 746 262 746 254.5 c 128,-1,35
 746 247 746 247 744 238 c 1,36,-1
 406 238 l 1,37,38
 405 190 405 190 418.5 149.5 c 128,-1,39
 432 109 432 109 456 79 c 128,-1,40
 480 49 480 49 513 32.5 c 128,-1,41
 546 16 546 16 584 16 c 0,42,43
 625 16 625 16 655 28 c 128,-1,44
 685 40 685 40 712 60 c 1,45,-1
 726 34 l 1,46,47
 712 26 712 26 698 17.5 c 128,-1,48
 684 9 684 9 667.5 2.5 c 128,-1,49
 651 -4 651 -4 630 -8 c 128,-1,50
 609 -12 609 -12 582 -12 c 0,51,52
 549 -12 549 -12 523 -3 c 128,-1,53
 497 6 497 6 476 20.5 c 128,-1,54
 455 35 455 35 439 53 c 128,-1,55
 423 71 423 71 410 90 c 1,56,57
 387 67 387 67 360.5 48 c 128,-1,58
 334 29 334 29 307 15.5 c 128,-1,59
 280 2 280 2 254 -5 c 128,-1,60
 228 -12 228 -12 206 -12 c 0,0,1
208 16 m 0,61,62
 249 16 249 16 301.5 42 c 128,-1,63
 354 68 354 68 398 116 c 1,64,65
 387 139 387 139 381.5 173.5 c 128,-1,66
 376 208 376 208 376 244 c 2,67,-1
 376 272 l 1,68,69
 301 263 301 263 248.5 249.5 c 128,-1,70
 196 236 196 236 163 217 c 128,-1,71
 130 198 130 198 115 173.5 c 128,-1,72
 100 149 100 149 100 118 c 0,73,74
 100 90 100 90 108.5 70.5 c 128,-1,75
 117 51 117 51 132 39 c 128,-1,76
 147 27 147 27 166.5 21.5 c 128,-1,77
 186 16 186 16 208 16 c 0,61,62
406 264 m 1,78,-1
 716 264 l 1,79,80
 716 364 716 364 677 413 c 128,-1,81
 638 462 638 462 570 462 c 0,82,83
 538 462 538 462 510 447.5 c 128,-1,84
 482 433 482 433 460 406.5 c 128,-1,85
 438 380 438 380 424 343.5 c 128,-1,86
 410 307 410 307 406 264 c 1,78,-1
EndSplineSet
Validated: 33
Substitution2: "'smcp' Lowercase to Small Capitals lookup 20 subtable" AE.sc
Substitution2: "'aalt' Access All Alternates lookup 0 subtable" AE.sc
EndChar

StartChar: uni0180
Encoding: 384 384 273
Width: 522
Flags: W
LayerCount: 2
Fore
SplineSet
274 -12 m 0,0,1
 239 -12 239 -12 201 4.5 c 128,-1,2
 163 21 163 21 128 48 c 1,3,-1
 126 48 l 1,4,-1
 122 0 l 1,5,-1
 96 0 l 1,6,-1
 96 584 l 1,7,-1
 18 584 l 1,8,-1
 18 608 l 1,9,-1
 96 612 l 1,10,-1
 96 722 l 1,11,-1
 126 722 l 1,12,-1
 126 612 l 1,13,-1
 318 612 l 1,14,-1
 318 584 l 1,15,-1
 126 584 l 1,16,-1
 126 476 l 1,17,-1
 124 380 l 1,18,19
 162 412 162 412 205.5 435 c 128,-1,20
 249 458 249 458 294 458 c 0,21,22
 343 458 343 458 379 442 c 128,-1,23
 415 426 415 426 439 396 c 128,-1,24
 463 366 463 366 474.5 324 c 128,-1,25
 486 282 486 282 486 230 c 0,26,27
 486 173 486 173 469 128 c 128,-1,28
 452 83 452 83 423 52 c 128,-1,29
 394 21 394 21 355.5 4.5 c 128,-1,30
 317 -12 317 -12 274 -12 c 0,0,1
276 16 m 0,31,32
 315 16 315 16 347.5 32 c 128,-1,33
 380 48 380 48 404 76.5 c 128,-1,34
 428 105 428 105 441 144 c 128,-1,35
 454 183 454 183 454 230 c 0,36,37
 454 272 454 272 445.5 308.5 c 128,-1,38
 437 345 437 345 417.5 372 c 128,-1,39
 398 399 398 399 367 414.5 c 128,-1,40
 336 430 336 430 292 430 c 0,41,42
 254 430 254 430 212.5 408.5 c 128,-1,43
 171 387 171 387 126 346 c 1,44,-1
 126 82 l 1,45,46
 168 46 168 46 207.5 31 c 128,-1,47
 247 16 247 16 276 16 c 0,31,32
EndSplineSet
Validated: 1
Substitution2: "'smcp' Lowercase to Small Capitals lookup 20 subtable" uni0243.sc
Substitution2: "'aalt' Access All Alternates lookup 0 subtable" uni0243.sc
EndChar

StartChar: dcroat
Encoding: 273 273 283
Width: 540
Flags: W
LayerCount: 2
Fore
SplineSet
252 -12 m 0,0,1
 162 -12 162 -12 108 48 c 128,-1,2
 54 108 54 108 54 222 c 0,3,4
 54 276 54 276 71 319.5 c 128,-1,5
 88 363 88 363 117.5 394 c 128,-1,6
 147 425 147 425 185.5 441.5 c 128,-1,7
 224 458 224 458 268 458 c 256,8,9
 312 458 312 458 345 442.5 c 128,-1,10
 378 427 378 427 416 398 c 1,11,-1
 414 488 l 1,12,-1
 414 584 l 1,13,-1
 242 584 l 1,14,-1
 242 612 l 1,15,-1
 414 612 l 1,16,-1
 414 722 l 1,17,-1
 444 722 l 1,18,-1
 444 612 l 1,19,-1
 520 612 l 1,20,-1
 520 588 l 1,21,-1
 444 584 l 1,22,-1
 444 0 l 1,23,-1
 418 0 l 1,24,-1
 414 64 l 1,25,-1
 412 64 l 1,26,27
 382 34 382 34 342 11 c 128,-1,28
 302 -12 302 -12 252 -12 c 0,0,1
254 16 m 0,29,30
 296 16 296 16 334.5 37.5 c 128,-1,31
 373 59 373 59 414 100 c 1,32,-1
 414 364 l 1,33,34
 373 400 373 400 338.5 415 c 128,-1,35
 304 430 304 430 266 430 c 256,36,37
 228 430 228 430 195 413.5 c 128,-1,38
 162 397 162 397 138 368.5 c 128,-1,39
 114 340 114 340 100 302.5 c 128,-1,40
 86 265 86 265 86 222 c 0,41,42
 86 176 86 176 97 138 c 128,-1,43
 108 100 108 100 129.5 73 c 128,-1,44
 151 46 151 46 182 31 c 128,-1,45
 213 16 213 16 254 16 c 0,29,30
EndSplineSet
Validated: 1
Substitution2: "'smcp' Lowercase to Small Capitals lookup 20 subtable" Dcroat.sc
Substitution2: "'aalt' Access All Alternates lookup 0 subtable" Dcroat.sc
EndChar

StartChar: eogonek
Encoding: 281 281 300
Width: 478
GlyphClass: 2
Flags: W
AnchorPoint: "Anchor-0" 260 502 basechar 0
LayerCount: 2
Fore
SplineSet
354 -202 m 0,0,1
 321 -202 321 -202 298.5 -182.5 c 128,-1,2
 276 -163 276 -163 276 -122 c 0,3,4
 276 -103 276 -103 282 -85.5 c 128,-1,5
 288 -68 288 -68 297.5 -52.5 c 128,-1,6
 307 -37 307 -37 318 -24 c 128,-1,7
 329 -11 329 -11 340 -2 c 1,8,9
 323 -8 323 -8 306.5 -10 c 128,-1,10
 290 -12 290 -12 272 -12 c 0,11,12
 227 -12 227 -12 187.5 5 c 128,-1,13
 148 22 148 22 118 54.5 c 128,-1,14
 88 87 88 87 71 133 c 128,-1,15
 54 179 54 179 54 238 c 0,16,17
 54 296 54 296 71.5 343 c 128,-1,18
 89 390 89 390 117.5 422.5 c 128,-1,19
 146 455 146 455 183 472.5 c 128,-1,20
 220 490 220 490 260 490 c 0,21,22
 343 490 343 490 391.5 433.5 c 128,-1,23
 440 377 440 377 440 270 c 0,24,25
 440 262 440 262 440 254.5 c 128,-1,26
 440 247 440 247 438 238 c 1,27,-1
 86 238 l 1,28,29
 86 190 86 190 99.5 149.5 c 128,-1,30
 113 109 113 109 137.5 79 c 128,-1,31
 162 49 162 49 196.5 32.5 c 128,-1,32
 231 16 231 16 274 16 c 0,33,34
 315 16 315 16 347 28 c 128,-1,35
 379 40 379 40 406 60 c 1,36,-1
 420 34 l 1,37,38
 355 -14 355 -14 330.5 -50.5 c 128,-1,39
 306 -87 306 -87 306 -120 c 0,40,41
 306 -147 306 -147 321 -160.5 c 128,-1,42
 336 -174 336 -174 356 -174 c 0,43,44
 370 -174 370 -174 379.5 -171 c 128,-1,45
 389 -168 389 -168 400 -160 c 1,46,-1
 414 -180 l 1,47,48
 403 -189 403 -189 386 -195.5 c 128,-1,49
 369 -202 369 -202 354 -202 c 0,0,1
86 266 m 1,50,-1
 410 266 l 1,51,52
 410 366 410 366 369 414 c 128,-1,53
 328 462 328 462 260 462 c 0,54,55
 228 462 228 462 198 448.5 c 128,-1,56
 168 435 168 435 144.5 409.5 c 128,-1,57
 121 384 121 384 105.5 348 c 128,-1,58
 90 312 90 312 86 266 c 1,50,-1
EndSplineSet
Validated: 1
Substitution2: "'smcp' Lowercase to Small Capitals lookup 20 subtable" Eogonek.sc
Ligature2: "'ccmp' Glyph Composition/Decomposition lookup 11 subtable" e uni0328
Substitution2: "'aalt' Access All Alternates lookup 0 subtable" Eogonek.sc
EndChar

StartChar: hbar
Encoding: 295 295 314
Width: 522
Flags: W
LayerCount: 2
Fore
SplineSet
96 0 m 1,0,-1
 96 584 l 1,1,-1
 18 584 l 1,2,-1
 18 608 l 1,3,-1
 96 612 l 1,4,-1
 96 722 l 1,5,-1
 126 722 l 1,6,-1
 126 612 l 1,7,-1
 318 612 l 1,8,-1
 318 584 l 1,9,-1
 126 584 l 1,10,-1
 126 368 l 1,11,12
 165 407 165 407 204.5 432.5 c 128,-1,13
 244 458 244 458 294 458 c 0,14,15
 368 458 368 458 403 414 c 128,-1,16
 438 370 438 370 438 276 c 2,17,-1
 438 0 l 1,18,-1
 408 0 l 1,19,-1
 408 272 l 2,20,21
 408 352 408 352 381 391 c 128,-1,22
 354 430 354 430 292 430 c 0,23,24
 247 430 247 430 209.5 406 c 128,-1,25
 172 382 172 382 126 334 c 1,26,-1
 126 0 l 1,27,-1
 96 0 l 1,0,-1
EndSplineSet
Validated: 1
Substitution2: "'smcp' Lowercase to Small Capitals lookup 20 subtable" Hbar.sc
Substitution2: "'aalt' Access All Alternates lookup 0 subtable" Hbar.sc
EndChar

StartChar: iogonek
Encoding: 303 303 324
Width: 222
GlyphClass: 3
Flags: W
LayerCount: 2
Fore
SplineSet
114 -202 m 0,0,1
 81 -202 81 -202 58.5 -182.5 c 128,-1,2
 36 -163 36 -163 36 -122 c 0,3,4
 36 -84 36 -84 55.5 -55 c 128,-1,5
 75 -26 75 -26 98 0 c 1,6,-1
 96 0 l 1,7,-1
 96 478 l 1,8,-1
 126 478 l 1,9,-1
 126 0 l 1,10,11
 103 -27 103 -27 84.5 -57 c 128,-1,12
 66 -87 66 -87 66 -120 c 0,13,14
 66 -147 66 -147 81 -160.5 c 128,-1,15
 96 -174 96 -174 116 -174 c 0,16,17
 130 -174 130 -174 139.5 -171 c 128,-1,18
 149 -168 149 -168 160 -160 c 1,19,-1
 174 -180 l 1,20,21
 163 -189 163 -189 146 -195.5 c 128,-1,22
 129 -202 129 -202 114 -202 c 0,0,1
110 600 m 256,23,24
 96 600 96 600 86 609.5 c 128,-1,25
 76 619 76 619 76 634 c 0,26,27
 76 651 76 651 86 659.5 c 128,-1,28
 96 668 96 668 110 668 c 256,29,30
 124 668 124 668 134 659.5 c 128,-1,31
 144 651 144 651 144 634 c 0,32,33
 144 619 144 619 134 609.5 c 128,-1,34
 124 600 124 600 110 600 c 256,23,24
EndSplineSet
Validated: 1
Substitution2: "Single Substitution lookup 49 subtable" iogonek.d
Substitution2: "'smcp' Lowercase to Small Capitals lookup 20 subtable" Iogonek.sc
Ligature2: "'ccmp' Glyph Composition/Decomposition lookup 11 subtable" i uni0328
Substitution2: "'aalt' Access All Alternates lookup 0 subtable" Iogonek.sc
EndChar

StartChar: iogonek.d
Encoding: 1114115 -1 325
Width: 222
GlyphClass: 2
Flags: W
AnchorPoint: "Anchor-0" 112 502 basechar 0
LayerCount: 2
Fore
SplineSet
114 -202 m 0,0,1
 81 -202 81 -202 58.5 -182.5 c 128,-1,2
 36 -163 36 -163 36 -122 c 0,3,4
 36 -84 36 -84 55.5 -55 c 128,-1,5
 75 -26 75 -26 98 0 c 1,6,-1
 96 0 l 1,7,-1
 96 478 l 1,8,-1
 126 478 l 1,9,-1
 126 0 l 1,10,11
 103 -27 103 -27 84.5 -57 c 128,-1,12
 66 -87 66 -87 66 -120 c 0,13,14
 66 -147 66 -147 81 -160.5 c 128,-1,15
 96 -174 96 -174 116 -174 c 0,16,17
 130 -174 130 -174 139.5 -171 c 128,-1,18
 149 -168 149 -168 160 -160 c 1,19,-1
 174 -180 l 1,20,21
 163 -189 163 -189 146 -195.5 c 128,-1,22
 129 -202 129 -202 114 -202 c 0,0,1
EndSplineSet
Validated: 1
Ligature2: "Ligature Substitution lookup 48 subtable" i uni0328
Substitution2: "'smcp' Lowercase to Small Capitals lookup 20 subtable" Iogonek.sc
Substitution2: "'aalt' Access All Alternates lookup 0 subtable" Iogonek.sc
EndChar

StartChar: dotlessi
Encoding: 305 305 327
Width: 222
GlyphClass: 2
Flags: W
AnchorPoint: "Anchor-7" 130 0 basechar 0
AnchorPoint: "Anchor-4" 110 -22 basechar 0
AnchorPoint: "Anchor-0" 112 502 basechar 0
LayerCount: 2
Fore
SplineSet
96 0 m 1,0,-1
 96 478 l 1,1,-1
 126 478 l 1,2,-1
 126 0 l 1,3,-1
 96 0 l 1,0,-1
EndSplineSet
Validated: 1
EndChar

StartChar: kgreenlandic
Encoding: 312 312 332
Width: 452
Flags: W
LayerCount: 2
Fore
SplineSet
96 0 m 1,0,-1
 96 478 l 1,1,-1
 126 478 l 1,2,-1
 126 174 l 1,3,-1
 128 174 l 1,4,-1
 376 478 l 1,5,-1
 412 478 l 1,6,-1
 258 290 l 1,7,-1
 440 0 l 1,8,-1
 406 0 l 1,9,-1
 240 266 l 1,10,-1
 126 132 l 1,11,-1
 126 0 l 1,12,-1
 96 0 l 1,0,-1
EndSplineSet
Validated: 1
EndChar

StartChar: lslash
Encoding: 322 322 340
Width: 230
Flags: W
LayerCount: 2
Fore
SplineSet
144 -12 m 0,0,1
 121 -12 121 -12 108.5 2.5 c 128,-1,2
 96 17 96 17 96 52 c 2,3,-1
 96 376 l 1,4,-1
 28 332 l 1,5,-1
 14 354 l 1,6,-1
 96 408 l 1,7,-1
 96 722 l 1,8,-1
 126 722 l 1,9,-1
 126 426 l 1,10,-1
 184 466 l 1,11,-1
 198 444 l 1,12,-1
 126 394 l 1,13,-1
 126 46 l 2,14,15
 126 16 126 16 146 16 c 0,16,17
 149 16 149 16 152.5 16 c 128,-1,18
 156 16 156 16 164 18 c 1,19,-1
 170 -8 l 1,20,21
 164 -10 164 -10 158.5 -11 c 128,-1,22
 153 -12 153 -12 144 -12 c 0,0,1
EndSplineSet
Validated: 1
Substitution2: "'ss01' Style Set 1 lookup 36 subtable" lslash.a
Substitution2: "'smcp' Lowercase to Small Capitals lookup 20 subtable" Lslash.sc
AlternateSubs2: "'aalt' Access All Alternates lookup 1 subtable" Lslash.sc lslash.a
EndChar

StartChar: oslash
Encoding: 248 248 370
Width: 532
GlyphClass: 2
Flags: W
AnchorPoint: "Anchor-0" 266 502 basechar 0
LayerCount: 2
Fore
SplineSet
266 -12 m 0,0,1
 226 -12 226 -12 190 2.5 c 128,-1,2
 154 17 154 17 125 46 c 1,3,-1
 68 -22 l 1,4,-1
 46 -4 l 1,5,-1
 106 68 l 1,6,7
 82 100 82 100 68 142 c 128,-1,8
 54 184 54 184 54 238 c 0,9,10
 54 298 54 298 71 345 c 128,-1,11
 88 392 88 392 117 424 c 128,-1,12
 146 456 146 456 184.5 473 c 128,-1,13
 223 490 223 490 266 490 c 0,14,15
 307 490 307 490 343 475 c 128,-1,16
 379 460 379 460 408 431 c 1,17,-1
 464 498 l 1,18,-1
 486 480 l 1,19,-1
 427 409 l 1,20,21
 451 377 451 377 464.5 334.5 c 128,-1,22
 478 292 478 292 478 238 c 0,23,24
 478 179 478 179 461 132.5 c 128,-1,25
 444 86 444 86 415 54 c 128,-1,26
 386 22 386 22 347.5 5 c 128,-1,27
 309 -12 309 -12 266 -12 c 0,0,1
86 238 m 0,28,29
 86 194 86 194 96.5 157.5 c 128,-1,30
 107 121 107 121 126 93 c 1,31,-1
 388 407 l 1,32,33
 364 433 364 433 333 447.5 c 128,-1,34
 302 462 302 462 266 462 c 0,35,36
 228 462 228 462 195 445.5 c 128,-1,37
 162 429 162 429 138 399.5 c 128,-1,38
 114 370 114 370 100 328.5 c 128,-1,39
 86 287 86 287 86 238 c 0,28,29
266 16 m 0,40,41
 304 16 304 16 337 32 c 128,-1,42
 370 48 370 48 394 77.5 c 128,-1,43
 418 107 418 107 432 147.5 c 128,-1,44
 446 188 446 188 446 238 c 0,45,46
 446 282 446 282 435.5 318.5 c 128,-1,47
 425 355 425 355 406 384 c 1,48,-1
 144 70 l 1,49,50
 168 44 168 44 199 30 c 128,-1,51
 230 16 230 16 266 16 c 0,40,41
EndSplineSet
Validated: 1
Substitution2: "'smcp' Lowercase to Small Capitals lookup 20 subtable" Oslash.sc
Substitution2: "'aalt' Access All Alternates lookup 0 subtable" Oslash.sc
EndChar

StartChar: oe
Encoding: 339 339 371
Width: 852
GlyphClass: 2
Flags: W
AnchorPoint: "Anchor-0" 452 502 basechar 0
LayerCount: 2
Fore
SplineSet
262 -12 m 0,0,1
 221 -12 221 -12 183 5 c 128,-1,2
 145 22 145 22 116.5 54 c 128,-1,3
 88 86 88 86 71 132.5 c 128,-1,4
 54 179 54 179 54 238 c 0,5,6
 54 298 54 298 71 345 c 128,-1,7
 88 392 88 392 116.5 424 c 128,-1,8
 145 456 145 456 183 473 c 128,-1,9
 221 490 221 490 262 490 c 0,10,11
 321 490 321 490 373.5 452.5 c 128,-1,12
 426 415 426 415 452 340 c 1,13,14
 478 409 478 409 526 449.5 c 128,-1,15
 574 490 574 490 634 490 c 0,16,17
 717 490 717 490 765.5 433.5 c 128,-1,18
 814 377 814 377 814 270 c 0,19,20
 814 262 814 262 814 254.5 c 128,-1,21
 814 247 814 247 812 238 c 1,22,-1
 468 238 l 1,23,24
 467 190 467 190 481 149.5 c 128,-1,25
 495 109 495 109 519 79 c 128,-1,26
 543 49 543 49 576.5 32.5 c 128,-1,27
 610 16 610 16 648 16 c 0,28,29
 689 16 689 16 721 28 c 128,-1,30
 753 40 753 40 780 60 c 1,31,-1
 794 34 l 1,32,33
 767 17 767 17 733.5 2.5 c 128,-1,34
 700 -12 700 -12 646 -12 c 0,35,36
 580 -12 580 -12 529 28 c 128,-1,37
 478 68 478 68 452 136 c 1,38,39
 425 62 425 62 376 25 c 128,-1,40
 327 -12 327 -12 262 -12 c 0,0,1
262 16 m 256,41,42
 300 16 300 16 332.5 32 c 128,-1,43
 365 48 365 48 388.5 77.5 c 128,-1,44
 412 107 412 107 425 147.5 c 128,-1,45
 438 188 438 188 438 238 c 0,46,47
 438 287 438 287 425 328.5 c 128,-1,48
 412 370 412 370 388.5 399.5 c 128,-1,49
 365 429 365 429 332.5 445.5 c 128,-1,50
 300 462 300 462 262 462 c 256,51,52
 224 462 224 462 192 445.5 c 128,-1,53
 160 429 160 429 136.5 399.5 c 128,-1,54
 113 370 113 370 99.5 328.5 c 128,-1,55
 86 287 86 287 86 238 c 0,56,57
 86 188 86 188 99.5 147.5 c 128,-1,58
 113 107 113 107 136.5 77.5 c 128,-1,59
 160 48 160 48 192 32 c 128,-1,60
 224 16 224 16 262 16 c 256,41,42
468 264 m 1,61,-1
 784 264 l 1,62,63
 784 364 784 364 743 413 c 128,-1,64
 702 462 702 462 634 462 c 0,65,66
 602 462 602 462 574 447.5 c 128,-1,67
 546 433 546 433 523.5 406.5 c 128,-1,68
 501 380 501 380 486.5 343.5 c 128,-1,69
 472 307 472 307 468 264 c 1,61,-1
EndSplineSet
Validated: 33
Substitution2: "'smcp' Lowercase to Small Capitals lookup 20 subtable" OE.sc
Substitution2: "'aalt' Access All Alternates lookup 0 subtable" OE.sc
EndChar

StartChar: ohorn
Encoding: 417 417 372
Width: 532
GlyphClass: 2
Flags: W
AnchorPoint: "Anchor-4" 266 -22 basechar 0
AnchorPoint: "Anchor-0" 266 502 basechar 0
LayerCount: 2
Fore
SplineSet
266 -12 m 256,0,1
 223 -12 223 -12 184.5 5 c 128,-1,2
 146 22 146 22 117 54 c 128,-1,3
 88 86 88 86 71 132.5 c 128,-1,4
 54 179 54 179 54 238 c 0,5,6
 54 298 54 298 71 345 c 128,-1,7
 88 392 88 392 117 424 c 128,-1,8
 146 456 146 456 184.5 473 c 128,-1,9
 223 490 223 490 266 490 c 0,10,11
 314 490 314 490 358 468 c 1,12,13
 460 486 460 486 460 568 c 0,14,15
 460 579 460 579 457 593 c 128,-1,16
 454 607 454 607 446 620 c 1,17,-1
 474 636 l 1,18,19
 482 619 482 619 487 603 c 128,-1,20
 492 587 492 587 492 570 c 0,21,22
 492 542 492 542 483 521.5 c 128,-1,23
 474 501 474 501 459.5 486.5 c 128,-1,24
 445 472 445 472 426.5 463 c 128,-1,25
 408 454 408 454 389 448 c 1,26,27
 429 416 429 416 453.5 363 c 128,-1,28
 478 310 478 310 478 238 c 0,29,30
 478 179 478 179 461 132.5 c 128,-1,31
 444 86 444 86 415 54 c 128,-1,32
 386 22 386 22 347.5 5 c 128,-1,33
 309 -12 309 -12 266 -12 c 256,0,1
266 16 m 256,34,35
 304 16 304 16 337 32 c 128,-1,36
 370 48 370 48 394 77.5 c 128,-1,37
 418 107 418 107 432 147.5 c 128,-1,38
 446 188 446 188 446 238 c 0,39,40
 446 287 446 287 432 328.5 c 128,-1,41
 418 370 418 370 394 399.5 c 128,-1,42
 370 429 370 429 337 445.5 c 128,-1,43
 304 462 304 462 266 462 c 256,44,45
 228 462 228 462 195 445.5 c 128,-1,46
 162 429 162 429 138 399.5 c 128,-1,47
 114 370 114 370 100 328.5 c 128,-1,48
 86 287 86 287 86 238 c 0,49,50
 86 188 86 188 100 147.5 c 128,-1,51
 114 107 114 107 138 77.5 c 128,-1,52
 162 48 162 48 195 32 c 128,-1,53
 228 16 228 16 266 16 c 256,34,35
EndSplineSet
Validated: 1
Substitution2: "'smcp' Lowercase to Small Capitals lookup 20 subtable" Ohorn.sc
Substitution2: "'aalt' Access All Alternates lookup 0 subtable" Ohorn.sc
EndChar

StartChar: uni01EB
Encoding: 491 491 378
Width: 532
GlyphClass: 2
Flags: W
AnchorPoint: "Anchor-0" 266 502 basechar 0
LayerCount: 2
Fore
SplineSet
294 -202 m 0,0,1
 261 -202 261 -202 238.5 -182.5 c 128,-1,2
 216 -163 216 -163 216 -122 c 0,3,4
 216 -103 216 -103 221.5 -86 c 128,-1,5
 227 -69 227 -69 235.5 -55 c 128,-1,6
 244 -41 244 -41 254 -30 c 128,-1,7
 264 -19 264 -19 272 -12 c 1,8,9
 227 -12 227 -12 187.5 5 c 128,-1,10
 148 22 148 22 118 54 c 128,-1,11
 88 86 88 86 71 132.5 c 128,-1,12
 54 179 54 179 54 238 c 0,13,14
 54 298 54 298 71 345 c 128,-1,15
 88 392 88 392 117 424 c 128,-1,16
 146 456 146 456 184.5 473 c 128,-1,17
 223 490 223 490 266 490 c 256,18,19
 309 490 309 490 347.5 473 c 128,-1,20
 386 456 386 456 415 424 c 128,-1,21
 444 392 444 392 461 345 c 128,-1,22
 478 298 478 298 478 238 c 0,23,24
 478 186 478 186 466.5 147 c 128,-1,25
 455 108 455 108 434.5 79 c 128,-1,26
 414 50 414 50 385 29 c 128,-1,27
 356 8 356 8 322 -8 c 0,28,29
 289 -23 289 -23 267.5 -55 c 128,-1,30
 246 -87 246 -87 246 -120 c 0,31,32
 246 -147 246 -147 261 -160.5 c 128,-1,33
 276 -174 276 -174 296 -174 c 0,34,35
 310 -174 310 -174 319.5 -171 c 128,-1,36
 329 -168 329 -168 340 -160 c 1,37,-1
 354 -180 l 1,38,39
 343 -189 343 -189 326 -195.5 c 128,-1,40
 309 -202 309 -202 294 -202 c 0,0,1
266 16 m 256,41,42
 304 16 304 16 337 32 c 128,-1,43
 370 48 370 48 394 77.5 c 128,-1,44
 418 107 418 107 432 147.5 c 128,-1,45
 446 188 446 188 446 238 c 0,46,47
 446 287 446 287 432 328.5 c 128,-1,48
 418 370 418 370 394 399.5 c 128,-1,49
 370 429 370 429 337 445.5 c 128,-1,50
 304 462 304 462 266 462 c 256,51,52
 228 462 228 462 195 445.5 c 128,-1,53
 162 429 162 429 138 399.5 c 128,-1,54
 114 370 114 370 100 328.5 c 128,-1,55
 86 287 86 287 86 238 c 0,56,57
 86 188 86 188 100 147.5 c 128,-1,58
 114 107 114 107 138 77.5 c 128,-1,59
 162 48 162 48 195 32 c 128,-1,60
 228 16 228 16 266 16 c 256,41,42
EndSplineSet
Validated: 1
Substitution2: "'smcp' Lowercase to Small Capitals lookup 20 subtable" uni01EA.sc
Ligature2: "'ccmp' Glyph Composition/Decomposition lookup 11 subtable" o uni0328
Substitution2: "'aalt' Access All Alternates lookup 0 subtable" uni01EA.sc
EndChar

StartChar: germandbls
Encoding: 223 223 393
Width: 530
Flags: W
LayerCount: 2
Fore
SplineSet
360 -12 m 0,0,1
 321 -12 321 -12 287 2 c 128,-1,2
 253 16 253 16 226 40 c 1,3,-1
 244 64 l 1,4,5
 273 40 273 40 300 28 c 128,-1,6
 327 16 327 16 360 16 c 0,7,8
 387 16 387 16 407 25 c 128,-1,9
 427 34 427 34 440.5 49 c 128,-1,10
 454 64 454 64 461 83 c 128,-1,11
 468 102 468 102 468 122 c 0,12,13
 468 159 468 159 452 182 c 128,-1,14
 436 205 436 205 412.5 221 c 128,-1,15
 389 237 389 237 361 249.5 c 128,-1,16
 333 262 333 262 309.5 278 c 128,-1,17
 286 294 286 294 270 316.5 c 128,-1,18
 254 339 254 339 254 376 c 256,19,20
 254 413 254 413 270 440 c 128,-1,21
 286 467 286 467 305 491 c 128,-1,22
 324 515 324 515 340 540 c 128,-1,23
 356 565 356 565 356 600 c 0,24,25
 356 645 356 645 331 674.5 c 128,-1,26
 306 704 306 704 256 704 c 0,27,28
 197 704 197 704 161.5 660.5 c 128,-1,29
 126 617 126 617 126 524 c 2,30,-1
 126 0 l 1,31,-1
 96 0 l 1,32,-1
 96 538 l 2,33,34
 96 630 96 630 141 681 c 128,-1,35
 186 732 186 732 258 732 c 0,36,37
 288 732 288 732 312 722 c 128,-1,38
 336 712 336 712 353 694.5 c 128,-1,39
 370 677 370 677 379 653.5 c 128,-1,40
 388 630 388 630 388 602 c 0,41,42
 388 563 388 563 372 535 c 128,-1,43
 356 507 356 507 337 482.5 c 128,-1,44
 318 458 318 458 302 433.5 c 128,-1,45
 286 409 286 409 286 378 c 0,46,47
 286 348 286 348 302 329 c 128,-1,48
 318 310 318 310 341.5 296 c 128,-1,49
 365 282 365 282 393 269 c 128,-1,50
 421 256 421 256 444.5 238 c 128,-1,51
 468 220 468 220 484 193 c 128,-1,52
 500 166 500 166 500 124 c 0,53,54
 500 95 500 95 489.5 70 c 128,-1,55
 479 45 479 45 460 27 c 128,-1,56
 441 9 441 9 415.5 -1.5 c 128,-1,57
 390 -12 390 -12 360 -12 c 0,0,1
EndSplineSet
Validated: 1
Substitution2: "'smcp' Lowercase to Small Capitals lookup 20 subtable" uni1E9E.sc
Substitution2: "'aalt' Access All Alternates lookup 0 subtable" uni1E9E.sc
EndChar

StartChar: uni0167
Encoding: 359 359 400
Width: 302
Flags: W
LayerCount: 2
Fore
SplineSet
30 238 m 1,0,-1
 30 262 l 1,1,-1
 106 266 l 1,2,-1
 106 450 l 1,3,-1
 30 450 l 1,4,-1
 30 474 l 1,5,-1
 106 478 l 1,6,-1
 110 618 l 1,7,-1
 136 618 l 1,8,-1
 136 478 l 1,9,-1
 278 478 l 1,10,-1
 278 450 l 1,11,-1
 136 450 l 1,12,-1
 136 266 l 1,13,-1
 278 266 l 1,14,-1
 278 238 l 1,15,-1
 136 238 l 1,16,-1
 136 122 l 2,17,18
 136 99 136 99 139.5 79.5 c 128,-1,19
 143 60 143 60 152 46 c 128,-1,20
 161 32 161 32 177.5 24 c 128,-1,21
 194 16 194 16 220 16 c 0,22,23
 234 16 234 16 251 21 c 128,-1,24
 268 26 268 26 282 32 c 1,25,-1
 292 6 l 1,26,27
 271 -2 271 -2 250.5 -7 c 128,-1,28
 230 -12 230 -12 218 -12 c 0,29,30
 185 -12 185 -12 163.5 -2 c 128,-1,31
 142 8 142 8 129 26 c 128,-1,32
 116 44 116 44 111 69.5 c 128,-1,33
 106 95 106 95 106 126 c 2,34,-1
 106 238 l 1,35,-1
 30 238 l 1,0,-1
EndSplineSet
Validated: 1
Substitution2: "'smcp' Lowercase to Small Capitals lookup 20 subtable" uni0166.sc
Substitution2: "'aalt' Access All Alternates lookup 0 subtable" uni0166.sc
EndChar

StartChar: uogonek
Encoding: 371 371 417
Width: 524
GlyphClass: 2
Flags: W
AnchorPoint: "Anchor-0" 264 502 basechar 0
LayerCount: 2
Fore
SplineSet
390 -202 m 0,0,1
 357 -202 357 -202 334.5 -182.5 c 128,-1,2
 312 -163 312 -163 312 -122 c 0,3,4
 312 -84 312 -84 336 -53 c 128,-1,5
 360 -22 360 -22 402 8 c 1,6,-1
 398 82 l 1,7,-1
 396 82 l 1,8,9
 360 40 360 40 321 14 c 128,-1,10
 282 -12 282 -12 232 -12 c 0,11,12
 158 -12 158 -12 123 32 c 128,-1,13
 88 76 88 76 88 170 c 2,14,-1
 88 478 l 1,15,-1
 118 478 l 1,16,-1
 118 174 l 2,17,18
 118 94 118 94 144.5 55 c 128,-1,19
 171 16 171 16 234 16 c 0,20,21
 279 16 279 16 316 41 c 128,-1,22
 353 66 353 66 398 120 c 1,23,-1
 398 478 l 1,24,-1
 428 478 l 1,25,-1
 428 0 l 1,26,27
 387 -27 387 -27 364.5 -57 c 128,-1,28
 342 -87 342 -87 342 -120 c 0,29,30
 342 -147 342 -147 357 -160.5 c 128,-1,31
 372 -174 372 -174 392 -174 c 0,32,33
 406 -174 406 -174 415.5 -171 c 128,-1,34
 425 -168 425 -168 436 -160 c 1,35,-1
 450 -180 l 1,36,37
 439 -189 439 -189 422 -195.5 c 128,-1,38
 405 -202 405 -202 390 -202 c 0,0,1
EndSplineSet
Validated: 1
Substitution2: "'smcp' Lowercase to Small Capitals lookup 20 subtable" Uogonek.sc
Ligature2: "'ccmp' Glyph Composition/Decomposition lookup 11 subtable" u uni0328
Substitution2: "'aalt' Access All Alternates lookup 0 subtable" Uogonek.sc
EndChar

StartChar: uhorn
Encoding: 432 432 418
Width: 524
GlyphClass: 2
Flags: W
AnchorPoint: "Anchor-4" 280 -22 basechar 0
AnchorPoint: "Anchor-0" 262 502 basechar 0
LayerCount: 2
Fore
SplineSet
428 458 m 1,0,-1
 428 0 l 1,1,-1
 402 0 l 1,2,-1
 398 82 l 1,3,-1
 396 82 l 1,4,5
 360 40 360 40 321 14 c 128,-1,6
 282 -12 282 -12 232 -12 c 0,7,8
 158 -12 158 -12 123 32 c 128,-1,9
 88 76 88 76 88 170 c 2,10,-1
 88 478 l 1,11,-1
 118 478 l 1,12,-1
 118 174 l 2,13,14
 118 94 118 94 145 55 c 128,-1,15
 172 16 172 16 234 16 c 0,16,17
 279 16 279 16 316 41 c 128,-1,18
 353 66 353 66 398 120 c 1,19,-1
 398 478 l 1,20,-1
 400 478 l 1,21,22
 441 486 441 486 463.5 510 c 128,-1,23
 486 534 486 534 486 578 c 0,24,25
 486 589 486 589 483 603 c 128,-1,26
 480 617 480 617 472 630 c 1,27,-1
 500 646 l 1,28,29
 518 613 518 613 518 580 c 0,30,31
 518 550 518 550 509.5 529 c 128,-1,32
 501 508 501 508 487.5 493.5 c 128,-1,33
 474 479 474 479 458 471 c 128,-1,34
 442 463 442 463 428 458 c 1,0,-1
EndSplineSet
Validated: 1
Substitution2: "'smcp' Lowercase to Small Capitals lookup 20 subtable" Uhorn.sc
Substitution2: "'aalt' Access All Alternates lookup 0 subtable" Uhorn.sc
EndChar

StartChar: eth
Encoding: 240 240 441
Width: 532
Flags: W
LayerCount: 2
Fore
SplineSet
266 -12 m 0,0,1
 227 -12 227 -12 190 3.5 c 128,-1,2
 153 19 153 19 124.5 49 c 128,-1,3
 96 79 96 79 79 121.5 c 128,-1,4
 62 164 62 164 62 218 c 0,5,6
 62 267 62 267 77 307.5 c 128,-1,7
 92 348 92 348 119 377.5 c 128,-1,8
 146 407 146 407 184.5 423.5 c 128,-1,9
 223 440 223 440 270 440 c 0,10,11
 361 440 361 440 423 361 c 1,12,13
 409 439 409 439 378 495 c 128,-1,14
 347 551 347 551 303 594 c 1,15,-1
 162 520 l 1,16,-1
 150 542 l 1,17,-1
 283 612 l 1,18,19
 254 638 254 638 222 659 c 128,-1,20
 190 680 190 680 156 700 c 1,21,-1
 172 722 l 1,22,23
 209 702 209 702 243.5 678.5 c 128,-1,24
 278 655 278 655 310 626 c 1,25,-1
 452 700 l 1,26,-1
 464 678 l 1,27,-1
 329 607 l 1,28,29
 389 546 389 546 426.5 460 c 128,-1,30
 464 374 464 374 464 250 c 0,31,32
 464 190 464 190 449.5 141.5 c 128,-1,33
 435 93 435 93 408.5 59 c 128,-1,34
 382 25 382 25 345.5 6.5 c 128,-1,35
 309 -12 309 -12 266 -12 c 0,0,1
266 16 m 0,36,37
 309 16 309 16 340.5 34.5 c 128,-1,38
 372 53 372 53 392.5 85 c 128,-1,39
 413 117 413 117 422.5 159.5 c 128,-1,40
 432 202 432 202 432 250 c 0,41,42
 432 285 432 285 429 315 c 1,43,44
 409 345 409 345 388.5 364 c 128,-1,45
 368 383 368 383 347.5 393.5 c 128,-1,46
 327 404 327 404 307 408 c 128,-1,47
 287 412 287 412 268 412 c 0,48,49
 225 412 225 412 192.5 396 c 128,-1,50
 160 380 160 380 138 353 c 128,-1,51
 116 326 116 326 105 291 c 128,-1,52
 94 256 94 256 94 218 c 0,53,54
 94 174 94 174 107.5 137 c 128,-1,55
 121 100 121 100 144.5 73 c 128,-1,56
 168 46 168 46 199.5 31 c 128,-1,57
 231 16 231 16 266 16 c 0,36,37
EndSplineSet
Validated: 1
Substitution2: "'smcp' Lowercase to Small Capitals lookup 20 subtable" Eth.sc
Substitution2: "'aalt' Access All Alternates lookup 0 subtable" Eth.sc
EndChar

StartChar: thorn
Encoding: 254 254 442
Width: 540
GlyphClass: 2
Flags: W
AnchorPoint: "Anchor-4" 276 -22 basechar 0
AnchorPoint: "Anchor-0" 114 730 basechar 0
LayerCount: 2
Fore
SplineSet
96 -222 m 1,0,-1
 96 722 l 1,1,-1
 126 722 l 1,2,-1
 126 416 l 1,3,4
 164 445 164 445 206.5 467.5 c 128,-1,5
 249 490 249 490 294 490 c 0,6,7
 391 490 391 490 438.5 423.5 c 128,-1,8
 486 357 486 357 486 246 c 0,9,10
 486 185 486 185 469 137 c 128,-1,11
 452 89 452 89 423 56 c 128,-1,12
 394 23 394 23 355.5 5.5 c 128,-1,13
 317 -12 317 -12 274 -12 c 0,14,15
 239 -12 239 -12 202 3.5 c 128,-1,16
 165 19 165 19 126 48 c 1,17,-1
 126 -222 l 1,18,-1
 96 -222 l 1,0,-1
276 16 m 0,19,20
 315 16 315 16 347.5 33 c 128,-1,21
 380 50 380 50 404 80.5 c 128,-1,22
 428 111 428 111 441 153.5 c 128,-1,23
 454 196 454 196 454 246 c 0,24,25
 454 292 454 292 445.5 331.5 c 128,-1,26
 437 371 437 371 417.5 400 c 128,-1,27
 398 429 398 429 367 445.5 c 128,-1,28
 336 462 336 462 292 462 c 0,29,30
 254 462 254 462 213.5 440.5 c 128,-1,31
 173 419 173 419 126 378 c 1,32,-1
 126 82 l 1,33,34
 170 46 170 46 208.5 31 c 128,-1,35
 247 16 247 16 276 16 c 0,19,20
EndSplineSet
Validated: 1
Substitution2: "'smcp' Lowercase to Small Capitals lookup 20 subtable" Thorn.sc
Substitution2: "'aalt' Access All Alternates lookup 0 subtable" Thorn.sc
EndChar

StartChar: uni014B
Encoding: 331 331 443
Width: 526
GlyphClass: 2
Flags: W
AnchorPoint: "Anchor-0" 278 502 basechar 0
LayerCount: 2
Fore
SplineSet
340 -180 m 0,0,1
 325 -180 325 -180 309 -176.5 c 128,-1,2
 293 -173 293 -173 282 -168 c 1,3,-1
 290 -142 l 1,4,5
 299 -145 299 -145 313 -148.5 c 128,-1,6
 327 -152 327 -152 342 -152 c 0,7,8
 363 -152 363 -152 376 -144 c 128,-1,9
 389 -136 389 -136 396 -121.5 c 128,-1,10
 403 -107 403 -107 405.5 -87 c 128,-1,11
 408 -67 408 -67 408 -44 c 2,12,-1
 408 304 l 2,13,14
 408 384 408 384 381 423 c 128,-1,15
 354 462 354 462 292 462 c 0,16,17
 247 462 247 462 209.5 438 c 128,-1,18
 172 414 172 414 126 366 c 1,19,-1
 126 0 l 1,20,-1
 96 0 l 1,21,-1
 96 478 l 1,22,-1
 122 478 l 1,23,-1
 126 402 l 1,24,-1
 128 402 l 1,25,26
 166 440 166 440 205 465 c 128,-1,27
 244 490 244 490 294 490 c 0,28,29
 368 490 368 490 403 446 c 128,-1,30
 438 402 438 402 438 308 c 2,31,-1
 438 -48 l 2,32,33
 438 -117 438 -117 414 -148.5 c 128,-1,34
 390 -180 390 -180 340 -180 c 0,0,1
EndSplineSet
Validated: 1
Substitution2: "'smcp' Lowercase to Small Capitals lookup 20 subtable" uni014A.sc
Substitution2: "'aalt' Access All Alternates lookup 0 subtable" uni014A.sc
EndChar

StartChar: uni0237
Encoding: 567 567 444
Width: 222
GlyphClass: 2
Flags: W
AnchorPoint: "Anchor-0" 112 502 basechar 0
LayerCount: 2
Fore
SplineSet
28 -234 m 0,0,1
 13 -234 13 -234 -3 -230.5 c 128,-1,2
 -19 -227 -19 -227 -30 -222 c 1,3,-1
 -22 -196 l 1,4,5
 -13 -199 -13 -199 1 -202.5 c 128,-1,6
 15 -206 15 -206 30 -206 c 0,7,8
 51 -206 51 -206 64 -198 c 128,-1,9
 77 -190 77 -190 84 -175.5 c 128,-1,10
 91 -161 91 -161 93.5 -141 c 128,-1,11
 96 -121 96 -121 96 -98 c 2,12,-1
 96 478 l 1,13,-1
 126 478 l 1,14,-1
 126 -102 l 2,15,16
 126 -171 126 -171 102 -202.5 c 128,-1,17
 78 -234 78 -234 28 -234 c 0,0,1
EndSplineSet
Validated: 1
EndChar

StartChar: uni0133
Encoding: 307 307 445
Width: 444
Flags: W
LayerCount: 2
Fore
SplineSet
96 0 m 1,0,-1
 96 478 l 1,1,-1
 126 478 l 1,2,-1
 126 0 l 1,3,-1
 96 0 l 1,0,-1
112 600 m 256,4,5
 98 600 98 600 88 609.5 c 128,-1,6
 78 619 78 619 78 634 c 0,7,8
 78 651 78 651 88 659.5 c 128,-1,9
 98 668 98 668 112 668 c 256,10,11
 126 668 126 668 136 659.5 c 128,-1,12
 146 651 146 651 146 634 c 0,13,14
 146 619 146 619 136 609.5 c 128,-1,15
 126 600 126 600 112 600 c 256,4,5
250 -234 m 0,16,17
 235 -234 235 -234 219 -230.5 c 128,-1,18
 203 -227 203 -227 192 -222 c 1,19,-1
 200 -196 l 1,20,21
 209 -199 209 -199 223 -202.5 c 128,-1,22
 237 -206 237 -206 252 -206 c 0,23,24
 273 -206 273 -206 286 -198 c 128,-1,25
 299 -190 299 -190 306 -175.5 c 128,-1,26
 313 -161 313 -161 315.5 -141 c 128,-1,27
 318 -121 318 -121 318 -98 c 2,28,-1
 318 478 l 1,29,-1
 348 478 l 1,30,-1
 348 -102 l 2,31,32
 348 -171 348 -171 324 -202.5 c 128,-1,33
 300 -234 300 -234 250 -234 c 0,16,17
334 600 m 256,34,35
 320 600 320 600 310 609.5 c 128,-1,36
 300 619 300 619 300 634 c 0,37,38
 300 651 300 651 310 659.5 c 128,-1,39
 320 668 320 668 334 668 c 256,40,41
 348 668 348 668 358 659.5 c 128,-1,42
 368 651 368 651 368 634 c 0,43,44
 368 619 368 619 358 609.5 c 128,-1,45
 348 600 348 600 334 600 c 256,34,35
EndSplineSet
Validated: 1
Substitution2: "'smcp' Lowercase to Small Capitals lookup 20 subtable" uni0132.sc
Substitution2: "'aalt' Access All Alternates lookup 0 subtable" uni0132.sc
EndChar

StartChar: uni0250
Encoding: 592 592 446
Width: 494
GlyphClass: 2
Flags: W
AnchorPoint: "Anchor-7" 324 0 basechar 0
AnchorPoint: "Anchor-4" 272 -22 basechar 0
AnchorPoint: "Anchor-0" 270 502 basechar 0
LayerCount: 2
Fore
SplineSet
264 -12 m 0,0,1
 213 -12 213 -12 179 3.5 c 128,-1,2
 145 19 145 19 125 45 c 128,-1,3
 105 71 105 71 96.5 105.5 c 128,-1,4
 88 140 88 140 88 178 c 2,5,-1
 88 478 l 1,6,-1
 114 478 l 1,7,-1
 118 404 l 1,8,-1
 120 404 l 1,9,10
 160 443 160 443 208 466.5 c 128,-1,11
 256 490 256 490 304 490 c 0,12,13
 330 490 330 490 353 483 c 128,-1,14
 376 476 376 476 393.5 462 c 128,-1,15
 411 448 411 448 421.5 425 c 128,-1,16
 432 402 432 402 432 371 c 0,17,18
 432 286 432 286 356 242.5 c 128,-1,19
 280 199 280 199 118 180 c 1,20,21
 117 153 117 153 122.5 124 c 128,-1,22
 128 95 128 95 144.5 71 c 128,-1,23
 161 47 161 47 190 31.5 c 128,-1,24
 219 16 219 16 266 16 c 0,25,26
 290 16 290 16 312 21.5 c 128,-1,27
 334 27 334 27 352.5 36 c 128,-1,28
 371 45 371 45 386 55 c 128,-1,29
 401 65 401 65 412 74 c 1,30,-1
 428 50 l 1,31,32
 417 42 417 42 400.5 31 c 128,-1,33
 384 20 384 20 363 10.5 c 128,-1,34
 342 1 342 1 316.5 -5.5 c 128,-1,35
 291 -12 291 -12 264 -12 c 0,0,1
118 206 m 1,36,37
 197 216 197 216 251 230.5 c 128,-1,38
 305 245 305 245 338 265 c 128,-1,39
 371 285 371 285 385.5 311 c 128,-1,40
 400 337 400 337 400 370 c 0,41,42
 400 420 400 420 371 441 c 128,-1,43
 342 462 342 462 302 462 c 0,44,45
 260 462 260 462 214.5 440.5 c 128,-1,46
 169 419 169 419 118 368 c 1,47,-1
 118 206 l 1,36,37
EndSplineSet
Validated: 33
EndChar

StartChar: uni0252
Encoding: 594 594 447
Width: 540
GlyphClass: 2
Flags: W
AnchorPoint: "Anchor-4" 280 -22 basechar 0
AnchorPoint: "Anchor-0" 286 502 basechar 0
LayerCount: 2
Fore
SplineSet
274 -12 m 0,0,1
 239 -12 239 -12 202.5 3.5 c 128,-1,2
 166 19 166 19 128 46 c 1,3,-1
 126 46 l 1,4,-1
 124 0 l 1,5,-1
 96 0 l 1,6,-1
 96 478 l 1,7,-1
 122 478 l 1,8,-1
 126 414 l 1,9,-1
 128 414 l 1,10,11
 164 444 164 444 206.5 467 c 128,-1,12
 249 490 249 490 294 490 c 0,13,14
 391 490 391 490 438.5 423.5 c 128,-1,15
 486 357 486 357 486 246 c 0,16,17
 486 185 486 185 469 137 c 128,-1,18
 452 89 452 89 423 56 c 128,-1,19
 394 23 394 23 355.5 5.5 c 128,-1,20
 317 -12 317 -12 274 -12 c 0,0,1
276 16 m 0,21,22
 315 16 315 16 347.5 33 c 128,-1,23
 380 50 380 50 404 80.5 c 128,-1,24
 428 111 428 111 441 153.5 c 128,-1,25
 454 196 454 196 454 246 c 0,26,27
 454 292 454 292 445.5 331.5 c 128,-1,28
 437 371 437 371 417.5 400 c 128,-1,29
 398 429 398 429 367 445.5 c 128,-1,30
 336 462 336 462 292 462 c 0,31,32
 254 462 254 462 213.5 440.5 c 128,-1,33
 173 419 173 419 126 378 c 1,34,-1
 126 82 l 1,35,36
 170 46 170 46 208.5 31 c 128,-1,37
 247 16 247 16 276 16 c 0,21,22
EndSplineSet
Validated: 1
EndChar

StartChar: uni0253
Encoding: 595 595 448
Width: 540
GlyphClass: 2
Flags: W
AnchorPoint: "Anchor-4" 276 -22 basechar 0
LayerCount: 2
Fore
SplineSet
274 -12 m 0,0,1
 239 -12 239 -12 201 3 c 128,-1,2
 163 18 163 18 128 44 c 1,3,-1
 126 44 l 1,4,-1
 122 0 l 1,5,-1
 96 0 l 1,6,-1
 96 566 l 2,7,8
 96 647 96 647 133.5 690.5 c 128,-1,9
 171 734 171 734 236 734 c 0,10,11
 251 734 251 734 269 730 c 128,-1,12
 287 726 287 726 304 718 c 1,13,-1
 292 692 l 1,14,15
 277 700 277 700 262.5 703 c 128,-1,16
 248 706 248 706 234 706 c 0,17,18
 177 706 177 706 151.5 665.5 c 128,-1,19
 126 625 126 625 126 562 c 2,20,-1
 124 412 l 1,21,22
 162 444 162 444 205.5 467 c 128,-1,23
 249 490 249 490 294 490 c 0,24,25
 391 490 391 490 438.5 423.5 c 128,-1,26
 486 357 486 357 486 246 c 0,27,28
 486 185 486 185 469 137 c 128,-1,29
 452 89 452 89 423 56 c 128,-1,30
 394 23 394 23 355.5 5.5 c 128,-1,31
 317 -12 317 -12 274 -12 c 0,0,1
276 16 m 0,32,33
 315 16 315 16 347.5 33 c 128,-1,34
 380 50 380 50 404 80.5 c 128,-1,35
 428 111 428 111 441 153.5 c 128,-1,36
 454 196 454 196 454 246 c 0,37,38
 454 292 454 292 445.5 331.5 c 128,-1,39
 437 371 437 371 417.5 400 c 128,-1,40
 398 429 398 429 367 445.5 c 128,-1,41
 336 462 336 462 292 462 c 0,42,43
 254 462 254 462 212.5 440.5 c 128,-1,44
 171 419 171 419 126 378 c 1,45,-1
 126 82 l 1,46,47
 168 46 168 46 207.5 31 c 128,-1,48
 247 16 247 16 276 16 c 0,32,33
EndSplineSet
Validated: 1
EndChar

StartChar: uni0254
Encoding: 596 596 449
Width: 446
Flags: W
LayerCount: 2
Fore
SplineSet
178 -12 m 0,0,1
 131 -12 131 -12 93.5 6.5 c 128,-1,2
 56 25 56 25 26 52 c 1,3,-1
 44 74 l 1,4,5
 70 50 70 50 103.5 33 c 128,-1,6
 137 16 137 16 178 16 c 0,7,8
 218 16 218 16 251.5 32 c 128,-1,9
 285 48 285 48 309 77.5 c 128,-1,10
 333 107 333 107 346.5 147.5 c 128,-1,11
 360 188 360 188 360 238 c 256,12,13
 360 288 360 288 346.5 329.5 c 128,-1,14
 333 371 333 371 310 400.5 c 128,-1,15
 287 430 287 430 255.5 446 c 128,-1,16
 224 462 224 462 188 462 c 0,17,18
 144 462 144 462 114 447 c 128,-1,19
 84 432 84 432 58 408 c 1,20,-1
 38 430 l 1,21,22
 65 454 65 454 99 472 c 128,-1,23
 133 490 133 490 190 490 c 0,24,25
 230 490 230 490 266.5 473.5 c 128,-1,26
 303 457 303 457 331 425 c 128,-1,27
 359 393 359 393 375.5 346 c 128,-1,28
 392 299 392 299 392 238 c 0,29,30
 392 179 392 179 375.5 132.5 c 128,-1,31
 359 86 359 86 330 54 c 128,-1,32
 301 22 301 22 262 5 c 128,-1,33
 223 -12 223 -12 178 -12 c 0,0,1
EndSplineSet
Validated: 1
EndChar

StartChar: uni0255
Encoding: 597 597 450
Width: 446
GlyphClass: 2
Flags: W
AnchorPoint: "Anchor-0" 268 502 basechar 0
LayerCount: 2
Fore
SplineSet
276 16 m 0,0,1
 321 16 321 16 351.5 33.5 c 128,-1,2
 382 51 382 51 382 80 c 0,3,4
 382 100 382 100 366.5 117 c 128,-1,5
 351 134 351 134 318 134 c 0,6,7
 283 134 283 134 244.5 111 c 128,-1,8
 206 88 206 88 174 48 c 1,9,10
 220 16 220 16 276 16 c 0,0,1
112 -66 m 1,11,-1
 84 -56 l 1,12,13
 95 -29 95 -29 107.5 -5 c 128,-1,14
 120 19 120 19 134 41 c 1,15,16
 98 73 98 73 76 122.5 c 128,-1,17
 54 172 54 172 54 238 c 0,18,19
 54 298 54 298 71.5 345 c 128,-1,20
 89 392 89 392 118.5 424 c 128,-1,21
 148 456 148 456 186.5 473 c 128,-1,22
 225 490 225 490 268 490 c 0,23,24
 318 490 318 490 351 471.5 c 128,-1,25
 384 453 384 453 408 430 c 1,26,-1
 388 408 l 1,27,28
 364 431 364 431 335 446.5 c 128,-1,29
 306 462 306 462 268 462 c 256,30,31
 230 462 230 462 196.5 445.5 c 128,-1,32
 163 429 163 429 138.5 399.5 c 128,-1,33
 114 370 114 370 100 328.5 c 128,-1,34
 86 287 86 287 86 238 c 0,35,36
 86 183 86 183 104 139 c 128,-1,37
 122 95 122 95 153 66 c 1,38,39
 188 111 188 111 230.5 136.5 c 128,-1,40
 273 162 273 162 318 162 c 0,41,42
 365 162 365 162 389.5 138.5 c 128,-1,43
 414 115 414 115 414 82 c 0,44,45
 414 43 414 43 377 15.5 c 128,-1,46
 340 -12 340 -12 276 -12 c 0,47,48
 244 -12 244 -12 213 -3 c 128,-1,49
 182 6 182 6 156 24 c 1,50,51
 128 -18 128 -18 112 -66 c 1,11,-1
EndSplineSet
Validated: 1
EndChar

StartChar: uni0256
Encoding: 598 598 451
Width: 540
Flags: W
LayerCount: 2
Fore
SplineSet
502 -180 m 0,0,1
 457 -180 457 -180 435.5 -151 c 128,-1,2
 414 -122 414 -122 414 -54 c 2,3,-1
 416 66 l 1,4,5
 383 34 383 34 342.5 11 c 128,-1,6
 302 -12 302 -12 252 -12 c 0,7,8
 161 -12 161 -12 107.5 52 c 128,-1,9
 54 116 54 116 54 238 c 0,10,11
 54 296 54 296 71 342.5 c 128,-1,12
 88 389 88 389 117.5 422 c 128,-1,13
 147 455 147 455 185.5 472.5 c 128,-1,14
 224 490 224 490 268 490 c 256,15,16
 312 490 312 490 345 474.5 c 128,-1,17
 378 459 378 459 416 430 c 1,18,-1
 414 520 l 1,19,-1
 414 734 l 1,20,-1
 444 734 l 1,21,-1
 444 -50 l 2,22,23
 444 -95 444 -95 455.5 -123.5 c 128,-1,24
 467 -152 467 -152 500 -152 c 0,25,26
 512 -152 512 -152 523 -148.5 c 128,-1,27
 534 -145 534 -145 542 -142 c 1,28,-1
 550 -168 l 1,29,30
 542 -173 542 -173 528 -176.5 c 128,-1,31
 514 -180 514 -180 502 -180 c 0,0,1
254 16 m 0,32,33
 296 16 296 16 334.5 37.5 c 128,-1,34
 373 59 373 59 414 100 c 1,35,-1
 414 396 l 1,36,37
 373 432 373 432 338.5 447 c 128,-1,38
 304 462 304 462 266 462 c 256,39,40
 228 462 228 462 195 444.5 c 128,-1,41
 162 427 162 427 138 396.5 c 128,-1,42
 114 366 114 366 100 325 c 128,-1,43
 86 284 86 284 86 238 c 0,44,45
 86 188 86 188 97 147.5 c 128,-1,46
 108 107 108 107 129.5 77.5 c 128,-1,47
 151 48 151 48 182 32 c 128,-1,48
 213 16 213 16 254 16 c 0,32,33
EndSplineSet
Validated: 1
EndChar

StartChar: uni0257
Encoding: 599 599 452
Width: 540
GlyphClass: 2
Flags: W
AnchorPoint: "Anchor-4" 292 -22 basechar 0
LayerCount: 2
Fore
SplineSet
252 -12 m 0,0,1
 161 -12 161 -12 107.5 52 c 128,-1,2
 54 116 54 116 54 238 c 0,3,4
 54 296 54 296 71 342.5 c 128,-1,5
 88 389 88 389 117.5 422 c 128,-1,6
 147 455 147 455 185.5 472.5 c 128,-1,7
 224 490 224 490 268 490 c 256,8,9
 312 490 312 490 345 474.5 c 128,-1,10
 378 459 378 459 416 430 c 1,11,-1
 414 604 l 2,12,13
 414 673 414 673 440 704.5 c 128,-1,14
 466 736 466 736 510 736 c 0,15,16
 534 736 534 736 556 726 c 1,17,-1
 548 700 l 1,18,19
 540 703 540 703 530 705.5 c 128,-1,20
 520 708 520 708 508 708 c 0,21,22
 472 708 472 708 458 677.5 c 128,-1,23
 444 647 444 647 444 600 c 2,24,-1
 444 0 l 1,25,-1
 418 0 l 1,26,-1
 414 64 l 1,27,-1
 412 64 l 1,28,29
 382 34 382 34 342 11 c 128,-1,30
 302 -12 302 -12 252 -12 c 0,0,1
254 16 m 0,31,32
 296 16 296 16 334.5 37.5 c 128,-1,33
 373 59 373 59 414 100 c 1,34,-1
 414 396 l 1,35,36
 373 432 373 432 338.5 447 c 128,-1,37
 304 462 304 462 266 462 c 256,38,39
 228 462 228 462 195 444.5 c 128,-1,40
 162 427 162 427 138 396.5 c 128,-1,41
 114 366 114 366 100 325 c 128,-1,42
 86 284 86 284 86 238 c 0,43,44
 86 188 86 188 97 147.5 c 128,-1,45
 108 107 108 107 129.5 77.5 c 128,-1,46
 151 48 151 48 182 32 c 128,-1,47
 213 16 213 16 254 16 c 0,31,32
EndSplineSet
Validated: 1
EndChar

StartChar: uni0258
Encoding: 600 600 453
Width: 478
GlyphClass: 2
Flags: W
AnchorPoint: "Anchor-7" 226 0 basechar 0
AnchorPoint: "Anchor-4" 244 -22 basechar 0
AnchorPoint: "Anchor-0" 230 502 basechar 0
LayerCount: 2
Fore
SplineSet
210 -12 m 0,0,1
 156 -12 156 -12 120.5 2.5 c 128,-1,2
 85 17 85 17 58 34 c 1,3,-1
 72 60 l 1,4,5
 99 40 99 40 133 28 c 128,-1,6
 167 16 167 16 208 16 c 0,7,8
 252 16 252 16 286.5 32.5 c 128,-1,9
 321 49 321 49 344.5 79 c 128,-1,10
 368 109 368 109 380 149.5 c 128,-1,11
 392 190 392 190 392 238 c 1,12,-1
 40 238 l 1,13,14
 38 247 38 247 38 254.5 c 128,-1,15
 38 262 38 262 38 270 c 0,16,17
 38 323 38 323 52 364 c 128,-1,18
 66 405 66 405 91.5 433 c 128,-1,19
 117 461 117 461 152 475.5 c 128,-1,20
 187 490 187 490 228 490 c 0,21,22
 271 490 271 490 307 472.5 c 128,-1,23
 343 455 343 455 369 422.5 c 128,-1,24
 395 390 395 390 409.5 343 c 128,-1,25
 424 296 424 296 424 238 c 0,26,27
 424 179 424 179 408 133 c 128,-1,28
 392 87 392 87 363.5 54.5 c 128,-1,29
 335 22 335 22 295.5 5 c 128,-1,30
 256 -12 256 -12 210 -12 c 0,0,1
68 266 m 1,31,-1
 392 266 l 1,32,33
 384 358 384 358 341.5 410 c 128,-1,34
 299 462 299 462 228 462 c 0,35,36
 194 462 194 462 165 450 c 128,-1,37
 136 438 136 438 114.5 413.5 c 128,-1,38
 93 389 93 389 80.5 352 c 128,-1,39
 68 315 68 315 68 266 c 1,31,-1
EndSplineSet
Validated: 1
EndChar

StartChar: uni0251
Encoding: 593 593 454
Width: 486
GlyphClass: 2
Flags: W
LayerCount: 2
Fore
SplineSet
200 16 m 0,0,1
 244 16 244 16 285 36.5 c 128,-1,2
 326 57 326 57 374 98 c 1,3,-1
 374 262 l 1,4,-1
 374 272 l 1,5,6
 295 263 295 263 241 249.5 c 128,-1,7
 187 236 187 236 154 217 c 128,-1,8
 121 198 121 198 106.5 173.5 c 128,-1,9
 92 149 92 149 92 118 c 0,10,11
 92 90 92 90 100.5 70.5 c 128,-1,12
 109 51 109 51 124 39 c 128,-1,13
 139 27 139 27 158.5 21.5 c 128,-1,14
 178 16 178 16 200 16 c 0,0,1
198 -12 m 0,15,16
 170 -12 170 -12 145 -4.5 c 128,-1,17
 120 3 120 3 101 18.5 c 128,-1,18
 82 34 82 34 71 58.5 c 128,-1,19
 60 83 60 83 60 117 c 0,20,21
 60 197 60 197 136 238.5 c 128,-1,22
 212 280 212 280 374 298 c 1,23,24
 375 327 375 327 370.5 356.5 c 128,-1,25
 366 386 366 386 353 409.5 c 128,-1,26
 340 433 340 433 316.5 447.5 c 128,-1,27
 293 462 293 462 256 462 c 0,28,29
 230 462 230 462 207 456.5 c 128,-1,30
 184 451 184 451 164 442 c 128,-1,31
 144 433 144 433 127.5 423 c 128,-1,32
 111 413 111 413 100 404 c 1,33,-1
 84 428 l 1,34,35
 95 436 95 436 112.5 447 c 128,-1,36
 130 458 130 458 152.5 467.5 c 128,-1,37
 175 477 175 477 202 483.5 c 128,-1,38
 229 490 229 490 258 490 c 0,39,40
 300 490 300 490 328 475.5 c 128,-1,41
 356 461 356 461 373 436 c 128,-1,42
 390 411 390 411 397 378.5 c 128,-1,43
 404 346 404 346 404 310 c 2,44,-1
 404 262 l 1,45,-1
 404 46 l 2,46,47
 404 16 404 16 424 16 c 0,48,49
 427 16 427 16 430.5 16 c 128,-1,50
 434 16 434 16 442 18 c 1,51,-1
 448 -8 l 1,52,53
 442 -10 442 -10 436.5 -11 c 128,-1,54
 431 -12 431 -12 422 -12 c 0,55,56
 399 -12 399 -12 386.5 2.5 c 128,-1,57
 374 17 374 17 374 52 c 2,58,-1
 374 64 l 1,59,-1
 372 64 l 1,60,61
 334 34 334 34 290 11 c 128,-1,62
 246 -12 246 -12 198 -12 c 0,15,16
EndSplineSet
Validated: 33
EndChar

StartChar: uni0259
Encoding: 601 601 456
Width: 478
GlyphClass: 2
Flags: W
AnchorPoint: "Anchor-7" 230 0 basechar 0
AnchorPoint: "Anchor-4" 230 -22 basechar 0
AnchorPoint: "Anchor-0" 232 502 basechar 0
LayerCount: 2
Fore
SplineSet
228 -12 m 0,0,1
 187 -12 187 -12 152.5 2.5 c 128,-1,2
 118 17 118 17 92.5 46 c 128,-1,3
 67 75 67 75 52.5 118 c 128,-1,4
 38 161 38 161 38 218 c 0,5,6
 38 226 38 226 38 234.5 c 128,-1,7
 38 243 38 243 40 252 c 1,8,-1
 392 252 l 1,9,10
 392 296 392 296 380.5 334.5 c 128,-1,11
 369 373 369 373 347.5 401.5 c 128,-1,12
 326 430 326 430 294 446 c 128,-1,13
 262 462 262 462 222 462 c 0,14,15
 178 462 178 462 144.5 448.5 c 128,-1,16
 111 435 111 435 82 414 c 1,17,-1
 68 440 l 1,18,19
 97 460 97 460 133.5 475 c 128,-1,20
 170 490 170 490 224 490 c 0,21,22
 267 490 267 490 304 473.5 c 128,-1,23
 341 457 341 457 367.5 425 c 128,-1,24
 394 393 394 393 409 346.5 c 128,-1,25
 424 300 424 300 424 240 c 0,26,27
 424 181 424 181 409.5 134.5 c 128,-1,28
 395 88 395 88 369 55.5 c 128,-1,29
 343 23 343 23 307 5.5 c 128,-1,30
 271 -12 271 -12 228 -12 c 0,0,1
228 16 m 0,31,32
 300 16 300 16 342.5 71.5 c 128,-1,33
 385 127 385 127 392 224 c 1,34,-1
 68 224 l 1,35,36
 68 170 68 170 80 130.5 c 128,-1,37
 92 91 92 91 113.5 65.5 c 128,-1,38
 135 40 135 40 164 28 c 128,-1,39
 193 16 193 16 228 16 c 0,31,32
EndSplineSet
Validated: 1
Substitution2: "'sups' Superscript lookup 26 subtable" uni0259.sups
Substitution2: "'smcp' Lowercase to Small Capitals lookup 20 subtable" uni018F.sc
AlternateSubs2: "'aalt' Access All Alternates lookup 1 subtable" uni018F.sc uni0259.sups
EndChar

StartChar: uni025A
Encoding: 602 602 457
Width: 600
GlyphClass: 2
Flags: W
AnchorPoint: "Anchor-0" 222 502 basechar 0
LayerCount: 2
Fore
SplineSet
240 -12 m 0,0,1
 196 -12 196 -12 161 3 c 128,-1,2
 126 18 126 18 100 44.5 c 128,-1,3
 74 71 74 71 58 106 c 128,-1,4
 42 141 42 141 38 182 c 1,5,-1
 385 318 l 1,6,7
 368 390 368 390 323.5 426 c 128,-1,8
 279 462 279 462 222 462 c 0,9,10
 175 462 175 462 144 448.5 c 128,-1,11
 113 435 113 435 84 414 c 1,12,-1
 70 440 l 1,13,14
 84 450 84 450 99 459 c 128,-1,15
 114 468 114 468 132 475 c 128,-1,16
 150 482 150 482 172 486 c 128,-1,17
 194 490 194 490 222 490 c 0,18,19
 255 490 255 490 285.5 480 c 128,-1,20
 316 470 316 470 341.5 449.5 c 128,-1,21
 367 429 367 429 386 399 c 128,-1,22
 405 369 405 369 415 330 c 1,23,-1
 488 358 l 1,24,-1
 512 348 l 1,25,26
 516 319 516 319 521 302 c 128,-1,27
 526 285 526 285 533 276 c 128,-1,28
 540 267 540 267 548 264.5 c 128,-1,29
 556 262 556 262 566 262 c 0,30,31
 577 262 577 262 587 267 c 128,-1,32
 597 272 597 272 604 280 c 1,33,-1
 620 258 l 1,34,35
 610 250 610 250 596 242 c 128,-1,36
 582 234 582 234 562 234 c 0,37,38
 538 234 538 234 515 255.5 c 128,-1,39
 492 277 492 277 486 328 c 1,40,-1
 421 303 l 1,41,42
 423 288 423 288 424.5 272 c 128,-1,43
 426 256 426 256 426 239 c 0,44,45
 426 188 426 188 413 142 c 128,-1,46
 400 96 400 96 376 62 c 128,-1,47
 352 28 352 28 317.5 8 c 128,-1,48
 283 -12 283 -12 240 -12 c 0,0,1
240 16 m 0,49,50
 277 16 277 16 305.5 34 c 128,-1,51
 334 52 334 52 353.5 82.5 c 128,-1,52
 373 113 373 113 383.5 153 c 128,-1,53
 394 193 394 193 394 238 c 0,54,55
 394 268 394 268 390 291 c 1,56,-1
 70 166 l 1,57,58
 82 95 82 95 128 55.5 c 128,-1,59
 174 16 174 16 240 16 c 0,49,50
EndSplineSet
Validated: 1
EndChar

StartChar: uni025B
Encoding: 603 603 458
Width: 422
GlyphClass: 2
Flags: W
AnchorPoint: "Anchor-4" 246 -22 basechar 0
AnchorPoint: "Anchor-0" 230 502 basechar 0
LayerCount: 2
Fore
SplineSet
234 -12 m 0,0,1
 193 -12 193 -12 160 -1.5 c 128,-1,2
 127 9 127 9 103.5 27.5 c 128,-1,3
 80 46 80 46 67 71.5 c 128,-1,4
 54 97 54 97 54 128 c 0,5,6
 54 155 54 155 64 176 c 128,-1,7
 74 197 74 197 89.5 212 c 128,-1,8
 105 227 105 227 124.5 237 c 128,-1,9
 144 247 144 247 164 252 c 1,10,-1
 164 256 l 1,11,12
 126 271 126 271 104 300.5 c 128,-1,13
 82 330 82 330 82 368 c 0,14,15
 82 398 82 398 94.5 421 c 128,-1,16
 107 444 107 444 128.5 459 c 128,-1,17
 150 474 150 474 178 482 c 128,-1,18
 206 490 206 490 238 490 c 0,19,20
 282 490 282 490 315 476 c 128,-1,21
 348 462 348 462 376 439 c 1,22,-1
 360 416 l 1,23,24
 331 437 331 437 301.5 449.5 c 128,-1,25
 272 462 272 462 236 462 c 0,26,27
 212 462 212 462 189.5 456.5 c 128,-1,28
 167 451 167 451 150.5 439 c 128,-1,29
 134 427 134 427 124 409 c 128,-1,30
 114 391 114 391 114 366 c 0,31,32
 114 324 114 324 149 295 c 128,-1,33
 184 266 184 266 262 266 c 2,34,-1
 306 266 l 1,35,-1
 306 238 l 1,36,-1
 248 238 l 2,37,38
 171 238 171 238 128.5 209 c 128,-1,39
 86 180 86 180 86 129 c 0,40,41
 86 77 86 77 128 46.5 c 128,-1,42
 170 16 170 16 238 16 c 0,43,44
 280 16 280 16 313 29 c 128,-1,45
 346 42 346 42 383 71 c 1,46,-1
 400 47 l 1,47,48
 361 16 361 16 323 2 c 128,-1,49
 285 -12 285 -12 234 -12 c 0,0,1
EndSplineSet
Validated: 1
EndChar

StartChar: uni025C
Encoding: 604 604 459
Width: 440
GlyphClass: 2
Flags: W
AnchorPoint: "Anchor-4" 216 -22 basechar 0
AnchorPoint: "Anchor-0" 212 502 basechar 0
LayerCount: 2
Fore
SplineSet
206 -12 m 0,0,1
 155 -12 155 -12 117 2 c 128,-1,2
 79 16 79 16 40 47 c 1,3,-1
 57 71 l 1,4,5
 94 42 94 42 127 29 c 128,-1,6
 160 16 160 16 202 16 c 0,7,8
 270 16 270 16 312 46.5 c 128,-1,9
 354 77 354 77 354 129 c 0,10,11
 354 180 354 180 311.5 209 c 128,-1,12
 269 238 269 238 192 238 c 2,13,-1
 134 238 l 1,14,-1
 134 266 l 1,15,-1
 178 266 l 2,16,17
 256 266 256 266 291 295 c 128,-1,18
 326 324 326 324 326 366 c 0,19,20
 326 416 326 416 292.5 439 c 128,-1,21
 259 462 259 462 210 462 c 0,22,23
 174 462 174 462 141.5 449.5 c 128,-1,24
 109 437 109 437 80 416 c 1,25,-1
 64 439 l 1,26,27
 92 462 92 462 128 476 c 128,-1,28
 164 490 164 490 208 490 c 0,29,30
 239 490 239 490 266.5 482 c 128,-1,31
 294 474 294 474 314.5 459 c 128,-1,32
 335 444 335 444 346.5 421 c 128,-1,33
 358 398 358 398 358 368 c 0,34,35
 358 330 358 330 336 300.5 c 128,-1,36
 314 271 314 271 276 256 c 1,37,-1
 276 252 l 1,38,39
 295 247 295 247 315 237 c 128,-1,40
 335 227 335 227 350.5 212 c 128,-1,41
 366 197 366 197 376 176 c 128,-1,42
 386 155 386 155 386 128 c 0,43,44
 386 97 386 97 373 71.5 c 128,-1,45
 360 46 360 46 336.5 27.5 c 128,-1,46
 313 9 313 9 279.5 -1.5 c 128,-1,47
 246 -12 246 -12 206 -12 c 0,0,1
EndSplineSet
Validated: 1
EndChar

StartChar: uni025E
Encoding: 606 606 460
Width: 530
GlyphClass: 2
Flags: W
AnchorPoint: "Anchor-4" 270 -22 basechar 0
AnchorPoint: "Anchor-0" 250 502 basechar 0
LayerCount: 2
Fore
SplineSet
250 -12 m 0,0,1
 205 -12 205 -12 168.5 -1.5 c 128,-1,2
 132 9 132 9 106.5 27.5 c 128,-1,3
 81 46 81 46 67.5 71.5 c 128,-1,4
 54 97 54 97 54 128 c 0,5,6
 54 155 54 155 64 176 c 128,-1,7
 74 197 74 197 89.5 212 c 128,-1,8
 105 227 105 227 124.5 237 c 128,-1,9
 144 247 144 247 164 252 c 1,10,-1
 164 256 l 1,11,12
 126 271 126 271 104 300.5 c 128,-1,13
 82 330 82 330 82 368 c 0,14,15
 82 398 82 398 94.5 421 c 128,-1,16
 107 444 107 444 128.5 459 c 128,-1,17
 150 474 150 474 179.5 482 c 128,-1,18
 209 490 209 490 244 490 c 0,19,20
 293 490 293 490 335.5 474 c 128,-1,21
 378 458 378 458 409.5 426.5 c 128,-1,22
 441 395 441 395 458.5 347.5 c 128,-1,23
 476 300 476 300 476 238 c 256,24,25
 476 176 476 176 458.5 129.5 c 128,-1,26
 441 83 441 83 411 51.5 c 128,-1,27
 381 20 381 20 339.5 4 c 128,-1,28
 298 -12 298 -12 250 -12 c 0,0,1
252 16 m 0,29,30
 295 16 295 16 330.5 31.5 c 128,-1,31
 366 47 366 47 391.5 75.5 c 128,-1,32
 417 104 417 104 430.5 145 c 128,-1,33
 444 186 444 186 444 238 c 256,34,35
 444 290 444 290 429.5 331.5 c 128,-1,36
 415 373 415 373 389 402 c 128,-1,37
 363 431 363 431 326 446.5 c 128,-1,38
 289 462 289 462 244 462 c 0,39,40
 188 462 188 462 151 438.5 c 128,-1,41
 114 415 114 415 114 366 c 0,42,43
 114 324 114 324 149 295 c 128,-1,44
 184 266 184 266 262 266 c 2,45,-1
 286 266 l 1,46,-1
 286 238 l 1,47,-1
 248 238 l 2,48,49
 171 238 171 238 128.5 209 c 128,-1,50
 86 180 86 180 86 129 c 0,51,52
 86 77 86 77 130.5 46.5 c 128,-1,53
 175 16 175 16 252 16 c 0,29,30
EndSplineSet
Validated: 1
EndChar

StartChar: uni025F
Encoding: 607 607 461
Width: 230
GlyphClass: 2
Flags: W
AnchorPoint: "Anchor-0" 116 502 basechar 0
LayerCount: 2
Fore
SplineSet
32 -234 m 0,0,1
 17 -234 17 -234 1 -230.5 c 128,-1,2
 -15 -227 -15 -227 -26 -222 c 1,3,-1
 -18 -196 l 1,4,5
 -9 -199 -9 -199 5 -202.5 c 128,-1,6
 19 -206 19 -206 34 -206 c 0,7,8
 55 -206 55 -206 68 -198 c 128,-1,9
 81 -190 81 -190 88 -175.5 c 128,-1,10
 95 -161 95 -161 97.5 -141 c 128,-1,11
 100 -121 100 -121 100 -98 c 2,12,-1
 100 238 l 1,13,-1
 4 238 l 1,14,-1
 4 262 l 1,15,-1
 100 266 l 1,16,-1
 100 478 l 1,17,-1
 130 478 l 1,18,-1
 130 266 l 1,19,-1
 222 266 l 1,20,-1
 222 238 l 1,21,-1
 130 238 l 1,22,-1
 130 -102 l 2,23,24
 130 -171 130 -171 106 -202.5 c 128,-1,25
 82 -234 82 -234 32 -234 c 0,0,1
EndSplineSet
Validated: 1
EndChar

StartChar: uni0260
Encoding: 608 608 462
Width: 540
GlyphClass: 2
Flags: W
AnchorPoint: "Anchor-0" 274 502 basechar 0
LayerCount: 2
Fore
SplineSet
258 -234 m 0,0,1
 208 -234 208 -234 167.5 -220 c 128,-1,2
 127 -206 127 -206 92 -182 c 1,3,-1
 108 -156 l 1,4,5
 144 -183 144 -183 181.5 -195 c 128,-1,6
 219 -207 219 -207 258 -207 c 0,7,8
 335 -207 335 -207 374.5 -162.5 c 128,-1,9
 414 -118 414 -118 414 -40 c 2,10,-1
 414 76 l 1,11,12
 384 45 384 45 343 21.5 c 128,-1,13
 302 -2 302 -2 252 -2 c 0,14,15
 162 -2 162 -2 108 61 c 128,-1,16
 54 124 54 124 54 244 c 0,17,18
 54 301 54 301 71 346.5 c 128,-1,19
 88 392 88 392 117.5 424 c 128,-1,20
 147 456 147 456 185.5 473 c 128,-1,21
 224 490 224 490 268 490 c 256,22,23
 312 490 312 490 345 474.5 c 128,-1,24
 378 459 378 459 416 430 c 1,25,-1
 414 478 l 2,26,27
 414 547 414 547 440 578.5 c 128,-1,28
 466 610 466 610 510 610 c 0,29,30
 534 610 534 610 556 600 c 1,31,-1
 548 574 l 1,32,33
 540 577 540 577 530 579.5 c 128,-1,34
 520 582 520 582 508 582 c 0,35,36
 472 582 472 582 458 551.5 c 128,-1,37
 444 521 444 521 444 474 c 2,38,-1
 444 -48 l 2,39,40
 444 -133 444 -133 395.5 -183.5 c 128,-1,41
 347 -234 347 -234 258 -234 c 0,0,1
254 26 m 0,42,43
 296 26 296 26 334.5 47.5 c 128,-1,44
 373 69 373 69 414 110 c 1,45,-1
 414 396 l 1,46,47
 373 432 373 432 338.5 447 c 128,-1,48
 304 462 304 462 266 462 c 256,49,50
 228 462 228 462 195 445 c 128,-1,51
 162 428 162 428 138 398.5 c 128,-1,52
 114 369 114 369 100 329.5 c 128,-1,53
 86 290 86 290 86 244 c 0,54,55
 86 195 86 195 97 155 c 128,-1,56
 108 115 108 115 129.5 86.5 c 128,-1,57
 151 58 151 58 182 42 c 128,-1,58
 213 26 213 26 254 26 c 0,42,43
EndSplineSet
Validated: 1
Substitution2: "'smcp' Lowercase to Small Capitals lookup 20 subtable" uni0193.sc
Substitution2: "'aalt' Access All Alternates lookup 0 subtable" uni0193.sc
EndChar

StartChar: uni0261
Encoding: 609 609 463
Width: 480
GlyphClass: 2
Flags: W
LayerCount: 2
Fore
SplineSet
250 -234 m 4,0,1
 158 -234 158 -234 106 -197 c 132,-1,2
 54 -160 54 -160 54 -100 c 4,3,4
 54 -68 54 -68 73.5 -37 c 132,-1,5
 93 -6 93 -6 126 18 c 5,6,-1
 126 22 l 5,7,8
 108 33 108 33 96 52 c 132,-1,9
 84 71 84 71 84 98 c 4,10,11
 84 131 84 131 102.5 153 c 132,-1,12
 121 175 121 175 136 186 c 5,13,-1
 136 190 l 5,14,15
 113 210 113 210 94.5 244 c 132,-1,16
 76 278 76 278 76 322 c 4,17,18
 76 358 76 358 88.5 388.5 c 132,-1,19
 101 419 101 419 123.5 441.5 c 132,-1,20
 146 464 146 464 175.5 477 c 132,-1,21
 205 490 205 490 240 490 c 4,22,23
 260 490 260 490 275.5 486.5 c 132,-1,24
 291 483 291 483 302 478 c 5,25,-1
 462 478 l 5,26,-1
 462 450 l 5,27,-1
 346 450 l 5,28,29
 372 429 372 429 388 396 c 132,-1,30
 404 363 404 363 404 322 c 4,31,32
 404 286 404 286 391.5 255 c 132,-1,33
 379 224 379 224 356.5 201 c 132,-1,34
 334 178 334 178 304 165 c 132,-1,35
 274 152 274 152 240 152 c 4,36,37
 219 152 219 152 197 157.5 c 132,-1,38
 175 163 175 163 158 174 c 5,39,40
 141 160 141 160 128.5 143 c 132,-1,41
 116 126 116 126 116 100 c 4,42,43
 116 86 116 86 120.5 74 c 132,-1,44
 125 62 125 62 135.5 53 c 132,-1,45
 146 44 146 44 164 39 c 132,-1,46
 182 34 182 34 210 34 c 6,47,-1
 316 34 l 6,48,49
 396 34 396 34 433 8 c 132,-1,50
 470 -18 470 -18 470 -74 c 4,51,52
 470 -104 470 -104 454.5 -133 c 132,-1,53
 439 -162 439 -162 410.5 -184.5 c 132,-1,54
 382 -207 382 -207 341 -220.5 c 132,-1,55
 300 -234 300 -234 250 -234 c 4,0,1
240 180 m 260,56,57
 266 180 266 180 290 190.5 c 132,-1,58
 314 201 314 201 332 219.5 c 132,-1,59
 350 238 350 238 361 264 c 132,-1,60
 372 290 372 290 372 322 c 260,61,62
 372 354 372 354 361.5 380 c 132,-1,63
 351 406 351 406 333 424 c 132,-1,64
 315 442 315 442 291 452 c 132,-1,65
 267 462 267 462 240 462 c 260,66,67
 213 462 213 462 189 452 c 132,-1,68
 165 442 165 442 147 424 c 132,-1,69
 129 406 129 406 118.5 380 c 132,-1,70
 108 354 108 354 108 322 c 260,71,72
 108 290 108 290 119 264 c 132,-1,73
 130 238 130 238 148 219.5 c 132,-1,74
 166 201 166 201 190 190.5 c 132,-1,75
 214 180 214 180 240 180 c 260,56,57
252 -206 m 4,76,77
 295 -206 295 -206 329.5 -194.5 c 132,-1,78
 364 -183 364 -183 388 -165 c 132,-1,79
 412 -147 412 -147 425 -123.5 c 132,-1,80
 438 -100 438 -100 438 -76 c 4,81,82
 438 -34 438 -34 408.5 -16 c 132,-1,83
 379 2 379 2 322 2 c 6,84,-1
 212 2 l 6,85,86
 207 2 207 2 190.5 3.5 c 132,-1,87
 174 5 174 5 154 10 c 5,88,89
 118 -14 118 -14 102 -42.5 c 132,-1,90
 86 -71 86 -71 86 -98 c 4,91,92
 86 -146 86 -146 129 -176 c 132,-1,93
 172 -206 172 -206 252 -206 c 4,76,77
EndSplineSet
Validated: 1
EndChar

StartChar: uni0262
Encoding: 610 610 464
Width: 482
GlyphClass: 2
Flags: W
AnchorPoint: "Anchor-4" 290 -22 basechar 0
AnchorPoint: "Anchor-1" 298 502 basechar 0
LayerCount: 2
Fore
SplineSet
274 -12 m 0,0,1
 225 -12 225 -12 184.5 5.5 c 128,-1,2
 144 23 144 23 115 56 c 128,-1,3
 86 89 86 89 70 136 c 128,-1,4
 54 183 54 183 54 242 c 0,5,6
 54 299 54 299 70.5 344.5 c 128,-1,7
 87 390 87 390 116.5 422.5 c 128,-1,8
 146 455 146 455 187.5 472.5 c 128,-1,9
 229 490 229 490 280 490 c 0,10,11
 332 490 332 490 366.5 470.5 c 128,-1,12
 401 451 401 451 422 430 c 1,13,-1
 402 408 l 1,14,15
 382 429 382 429 352.5 445.5 c 128,-1,16
 323 462 323 462 280 462 c 256,17,18
 237 462 237 462 201 446.5 c 128,-1,19
 165 431 165 431 139 402.5 c 128,-1,20
 113 374 113 374 98.5 333 c 128,-1,21
 84 292 84 292 84 242 c 0,22,23
 84 189 84 189 97.5 147.5 c 128,-1,24
 111 106 111 106 136.5 76.5 c 128,-1,25
 162 47 162 47 197.5 31.5 c 128,-1,26
 233 16 233 16 277 16 c 0,27,28
 314 16 314 16 345 28.5 c 128,-1,29
 376 41 376 41 396 59 c 1,30,-1
 396 206 l 1,31,-1
 268 206 l 1,32,-1
 268 234 l 1,33,-1
 426 234 l 1,34,-1
 426 46 l 1,35,36
 402 23 402 23 363.5 5.5 c 128,-1,37
 325 -12 325 -12 274 -12 c 0,0,1
EndSplineSet
Validated: 1
EndChar

StartChar: uni0263
Encoding: 611 611 465
Width: 422
GlyphClass: 2
Flags: W
AnchorPoint: "Anchor-4" 212 -22 basechar 0
AnchorPoint: "Anchor-0" 212 502 basechar 0
LayerCount: 2
Fore
SplineSet
212 -234 m 256,0,1
 173 -234 173 -234 154.5 -208.5 c 128,-1,2
 136 -183 136 -183 136 -142 c 0,3,4
 136 -108 136 -108 152 -68 c 128,-1,5
 168 -28 168 -28 191 27 c 1,6,-1
 12 478 l 1,7,-1
 46 478 l 1,8,-1
 160 178 l 2,9,10
 172 143 172 143 185 113.5 c 128,-1,11
 198 84 198 84 210 52 c 1,12,-1
 214 52 l 1,13,14
 226 84 226 84 239 113.5 c 128,-1,15
 252 143 252 143 264 178 c 2,16,-1
 378 478 l 1,17,-1
 410 478 l 1,18,-1
 232 26 l 1,19,20
 257 -30 257 -30 272.5 -69.5 c 128,-1,21
 288 -109 288 -109 288 -142 c 0,22,23
 288 -183 288 -183 269.5 -208.5 c 128,-1,24
 251 -234 251 -234 212 -234 c 256,0,1
212 -206 m 256,25,26
 236 -206 236 -206 246 -188 c 128,-1,27
 256 -170 256 -170 256 -144 c 0,28,29
 256 -112 256 -112 244 -74 c 128,-1,30
 232 -36 232 -36 214 0 c 1,31,-1
 210 0 l 1,32,33
 192 -36 192 -36 180 -75.5 c 128,-1,34
 168 -115 168 -115 168 -144 c 0,35,36
 168 -170 168 -170 178 -188 c 128,-1,37
 188 -206 188 -206 212 -206 c 256,25,26
EndSplineSet
Validated: 1
EndChar

StartChar: uni0264
Encoding: 612 612 466
Width: 464
Flags: W
LayerCount: 2
Fore
SplineSet
232 -12 m 256,0,1
 152 -12 152 -12 115 30.5 c 128,-1,2
 78 73 78 73 78 144 c 0,3,4
 78 175 78 175 88.5 206 c 128,-1,5
 99 237 99 237 117 266 c 128,-1,6
 135 295 135 295 159 322.5 c 128,-1,7
 183 350 183 350 210 376 c 1,8,9
 177 415 177 415 144 438.5 c 128,-1,10
 111 462 111 462 77 462 c 0,11,12
 49 462 49 462 29 448 c 1,13,-1
 16 471 l 1,14,15
 44 490 44 490 80 490 c 0,16,17
 121 490 121 490 159 462.5 c 128,-1,18
 197 435 197 435 232 396 c 1,19,20
 266 435 266 435 304.5 462.5 c 128,-1,21
 343 490 343 490 384 490 c 0,22,23
 419 490 419 490 448 471 c 1,24,-1
 435 448 l 1,25,26
 415 462 415 462 387 462 c 0,27,28
 352 462 352 462 319.5 438.5 c 128,-1,29
 287 415 287 415 254 376 c 1,30,31
 280 350 280 350 304 322.5 c 128,-1,32
 328 295 328 295 346 266 c 128,-1,33
 364 237 364 237 375 206 c 128,-1,34
 386 175 386 175 386 144 c 0,35,36
 386 73 386 73 349 30.5 c 128,-1,37
 312 -12 312 -12 232 -12 c 256,0,1
232 16 m 0,38,39
 263 16 263 16 286 26.5 c 128,-1,40
 309 37 309 37 324 54.5 c 128,-1,41
 339 72 339 72 346.5 95 c 128,-1,42
 354 118 354 118 354 144 c 0,43,44
 354 172 354 172 344 200.5 c 128,-1,45
 334 229 334 229 317.5 256 c 128,-1,46
 301 283 301 283 279 309 c 128,-1,47
 257 335 257 335 232 358 c 1,48,49
 207 335 207 335 185 309 c 128,-1,50
 163 283 163 283 146.5 256 c 128,-1,51
 130 229 130 229 120 200.5 c 128,-1,52
 110 172 110 172 110 144 c 0,53,54
 110 118 110 118 117 95 c 128,-1,55
 124 72 124 72 139 54.5 c 128,-1,56
 154 37 154 37 177 26.5 c 128,-1,57
 200 16 200 16 232 16 c 0,38,39
EndSplineSet
Validated: 1
EndChar

StartChar: uni0265
Encoding: 613 613 467
Width: 526
GlyphClass: 2
Flags: W
AnchorPoint: "Anchor-4" 280 -22 basechar 0
AnchorPoint: "Anchor-0" 262 502 basechar 0
LayerCount: 2
Fore
SplineSet
400 -222 m 1,0,-1
 400 -30 l 1,1,-1
 402 86 l 1,2,3
 361 39 361 39 321.5 13.5 c 128,-1,4
 282 -12 282 -12 232 -12 c 0,5,6
 158 -12 158 -12 123 32 c 128,-1,7
 88 76 88 76 88 170 c 2,8,-1
 88 478 l 1,9,-1
 118 478 l 1,10,-1
 118 174 l 2,11,12
 118 94 118 94 145 55 c 128,-1,13
 172 16 172 16 234 16 c 0,14,15
 256 16 256 16 276.5 22 c 128,-1,16
 297 28 297 28 316.5 40.5 c 128,-1,17
 336 53 336 53 356.5 72.5 c 128,-1,18
 377 92 377 92 400 120 c 1,19,-1
 400 478 l 1,20,-1
 430 478 l 1,21,-1
 430 -222 l 1,22,-1
 400 -222 l 1,0,-1
EndSplineSet
Validated: 1
EndChar

StartChar: uni0266
Encoding: 614 614 468
Width: 522
GlyphClass: 2
Flags: W
AnchorPoint: "Anchor-4" 280 -22 basechar 0
LayerCount: 2
Fore
SplineSet
96 0 m 1,0,-1
 96 566 l 2,1,2
 96 647 96 647 133.5 690.5 c 128,-1,3
 171 734 171 734 236 734 c 0,4,5
 251 734 251 734 269 730 c 128,-1,6
 287 726 287 726 304 718 c 1,7,-1
 292 692 l 1,8,9
 277 700 277 700 262.5 703 c 128,-1,10
 248 706 248 706 234 706 c 0,11,12
 177 706 177 706 151.5 665.5 c 128,-1,13
 126 625 126 625 126 562 c 2,14,-1
 126 400 l 1,15,16
 165 439 165 439 204.5 464.5 c 128,-1,17
 244 490 244 490 294 490 c 0,18,19
 368 490 368 490 403 446 c 128,-1,20
 438 402 438 402 438 308 c 2,21,-1
 438 0 l 1,22,-1
 408 0 l 1,23,-1
 408 304 l 2,24,25
 408 384 408 384 381 423 c 128,-1,26
 354 462 354 462 292 462 c 0,27,28
 247 462 247 462 209.5 438 c 128,-1,29
 172 414 172 414 126 366 c 1,30,-1
 126 0 l 1,31,-1
 96 0 l 1,0,-1
EndSplineSet
Validated: 1
EndChar

StartChar: uni0267
Encoding: 615 615 469
Width: 522
Flags: W
LayerCount: 2
Fore
SplineSet
340 -180 m 0,0,1
 325 -180 325 -180 309 -176.5 c 128,-1,2
 293 -173 293 -173 282 -168 c 1,3,-1
 290 -142 l 1,4,5
 299 -145 299 -145 313 -148.5 c 128,-1,6
 327 -152 327 -152 342 -152 c 0,7,8
 363 -152 363 -152 376 -144 c 128,-1,9
 389 -136 389 -136 396 -121.5 c 128,-1,10
 403 -107 403 -107 405.5 -87 c 128,-1,11
 408 -67 408 -67 408 -44 c 2,12,-1
 408 304 l 2,13,14
 408 384 408 384 381 423 c 128,-1,15
 354 462 354 462 292 462 c 0,16,17
 247 462 247 462 209.5 438 c 128,-1,18
 172 414 172 414 126 366 c 1,19,-1
 126 0 l 1,20,-1
 96 0 l 1,21,-1
 96 566 l 2,22,23
 96 647 96 647 133.5 690.5 c 128,-1,24
 171 734 171 734 236 734 c 0,25,26
 251 734 251 734 269 730 c 128,-1,27
 287 726 287 726 304 718 c 1,28,-1
 292 692 l 1,29,30
 277 700 277 700 262.5 703 c 128,-1,31
 248 706 248 706 234 706 c 0,32,33
 177 706 177 706 151.5 665.5 c 128,-1,34
 126 625 126 625 126 562 c 2,35,-1
 126 400 l 1,36,37
 165 439 165 439 204.5 464.5 c 128,-1,38
 244 490 244 490 294 490 c 0,39,40
 368 490 368 490 403 446 c 128,-1,41
 438 402 438 402 438 308 c 2,42,-1
 438 -48 l 2,43,44
 438 -117 438 -117 414 -148.5 c 128,-1,45
 390 -180 390 -180 340 -180 c 0,0,1
EndSplineSet
Validated: 1
EndChar

StartChar: uni029C
Encoding: 668 668 470
Width: 546
Flags: W
LayerCount: 2
Fore
SplineSet
96 0 m 1,0,-1
 96 478 l 1,1,-1
 126 478 l 1,2,-1
 126 266 l 1,3,-1
 420 266 l 1,4,-1
 420 478 l 1,5,-1
 450 478 l 1,6,-1
 450 0 l 1,7,-1
 420 0 l 1,8,-1
 420 238 l 1,9,-1
 126 238 l 1,10,-1
 126 0 l 1,11,-1
 96 0 l 1,0,-1
EndSplineSet
Validated: 1
EndChar

StartChar: uni0268
Encoding: 616 616 471
Width: 230
Flags: W
LayerCount: 2
Fore
SplineSet
4 238 m 1,0,-1
 4 262 l 1,1,-1
 100 266 l 1,2,-1
 100 478 l 1,3,-1
 130 478 l 1,4,-1
 130 266 l 1,5,-1
 222 266 l 1,6,-1
 222 238 l 1,7,-1
 130 238 l 1,8,-1
 130 0 l 1,9,-1
 100 0 l 1,10,-1
 100 238 l 1,11,-1
 4 238 l 1,0,-1
116 600 m 256,12,13
 102 600 102 600 92 609.5 c 128,-1,14
 82 619 82 619 82 634 c 0,15,16
 82 651 82 651 92 659.5 c 128,-1,17
 102 668 102 668 116 668 c 256,18,19
 130 668 130 668 140 659.5 c 128,-1,20
 150 651 150 651 150 634 c 0,21,22
 150 619 150 619 140 609.5 c 128,-1,23
 130 600 130 600 116 600 c 256,12,13
EndSplineSet
Validated: 1
EndChar

StartChar: uni026A
Encoding: 618 618 472
Width: 298
GlyphClass: 2
Flags: W
AnchorPoint: "Anchor-8" 124 0 basechar 0
AnchorPoint: "Anchor-4" 150 -22 basechar 0
AnchorPoint: "Anchor-0" 150 502 basechar 0
LayerCount: 2
Fore
SplineSet
42 0 m 1,0,-1
 42 28 l 1,1,-1
 134 28 l 1,2,-1
 134 450 l 1,3,-1
 42 450 l 1,4,-1
 42 478 l 1,5,-1
 256 478 l 1,6,-1
 256 450 l 1,7,-1
 164 450 l 1,8,-1
 164 28 l 1,9,-1
 256 28 l 1,10,-1
 256 0 l 1,11,-1
 42 0 l 1,0,-1
EndSplineSet
Validated: 1
EndChar

StartChar: uni029D
Encoding: 669 669 473
Width: 222
Flags: W
LayerCount: 2
Fore
SplineSet
192 -288 m 1,0,1
 168 -251 168 -251 146 -221.5 c 128,-1,2
 124 -192 124 -192 103 -169 c 1,3,4
 86 -201 86 -201 58 -217.5 c 128,-1,5
 30 -234 30 -234 -12 -234 c 0,6,7
 -58 -234 -58 -234 -84 -209 c 128,-1,8
 -110 -184 -110 -184 -110 -152 c 256,9,10
 -110 -120 -110 -120 -86 -100 c 128,-1,11
 -62 -80 -62 -80 -14 -80 c 0,12,13
 15 -80 15 -80 40 -90 c 128,-1,14
 65 -100 65 -100 90 -119 c 1,15,16
 96 -89 96 -89 96 -58 c 2,17,-1
 96 478 l 1,18,-1
 126 478 l 1,19,-1
 126 -52 l 2,20,21
 126 -103 126 -103 114 -140 c 1,22,23
 140 -166 140 -166 165 -199 c 128,-1,24
 190 -232 190 -232 216 -274 c 1,25,-1
 192 -288 l 1,0,1
-10 -206 m 0,26,27
 27 -206 27 -206 48 -189.5 c 128,-1,28
 69 -173 69 -173 80 -148 c 1,29,30
 57 -128 57 -128 34.5 -118 c 128,-1,31
 12 -108 12 -108 -14 -108 c 0,32,33
 -47 -108 -47 -108 -62.5 -121 c 128,-1,34
 -78 -134 -78 -134 -78 -154 c 0,35,36
 -78 -177 -78 -177 -58.5 -191.5 c 128,-1,37
 -39 -206 -39 -206 -10 -206 c 0,26,27
112 600 m 256,38,39
 98 600 98 600 88 609.5 c 128,-1,40
 78 619 78 619 78 634 c 0,41,42
 78 651 78 651 88 659.5 c 128,-1,43
 98 668 98 668 112 668 c 256,44,45
 126 668 126 668 136 659.5 c 128,-1,46
 146 651 146 651 146 634 c 0,47,48
 146 619 146 619 136 609.5 c 128,-1,49
 126 600 126 600 112 600 c 256,38,39
EndSplineSet
Validated: 1
EndChar

StartChar: uni026C
Encoding: 620 620 474
Width: 242
Flags: W
LayerCount: 2
Fore
SplineSet
108 340 m 2,0,1
 52 340 52 340 25 361 c 128,-1,2
 -2 382 -2 382 -2 414 c 0,3,4
 -2 441 -2 441 16 459.5 c 128,-1,5
 34 478 34 478 64 478 c 0,6,7
 84 478 84 478 98 470.5 c 128,-1,8
 112 463 112 463 120 451 c 1,9,-1
 120 722 l 1,10,-1
 150 722 l 1,11,-1
 150 368 l 1,12,-1
 242 368 l 1,13,-1
 242 340 l 1,14,-1
 150 340 l 1,15,-1
 150 46 l 2,16,17
 150 16 150 16 170 16 c 0,18,19
 173 16 173 16 176.5 16 c 128,-1,20
 180 16 180 16 188 18 c 1,21,-1
 194 -8 l 1,22,23
 188 -10 188 -10 182.5 -11 c 128,-1,24
 177 -12 177 -12 168 -12 c 0,25,26
 145 -12 145 -12 132.5 2.5 c 128,-1,27
 120 17 120 17 120 52 c 2,28,-1
 120 340 l 1,29,-1
 108 340 l 2,0,1
102 368 m 2,30,-1
 120 368 l 1,31,-1
 120 378 l 2,32,33
 120 405 120 405 109 427.5 c 128,-1,34
 98 450 98 450 68 450 c 0,35,36
 48 450 48 450 39 438.5 c 128,-1,37
 30 427 30 427 30 412 c 0,38,39
 30 394 30 394 47 381 c 128,-1,40
 64 368 64 368 102 368 c 2,30,-1
EndSplineSet
Validated: 1
EndChar

StartChar: uni026D
Encoding: 621 621 475
Width: 230
Flags: W
LayerCount: 2
Fore
SplineSet
184 -180 m 0,0,1
 139 -180 139 -180 117.5 -151 c 128,-1,2
 96 -122 96 -122 96 -54 c 2,3,-1
 96 722 l 1,4,-1
 126 722 l 1,5,-1
 126 -50 l 2,6,7
 126 -95 126 -95 137.5 -123.5 c 128,-1,8
 149 -152 149 -152 182 -152 c 0,9,10
 194 -152 194 -152 205 -148.5 c 128,-1,11
 216 -145 216 -145 224 -142 c 1,12,-1
 232 -168 l 1,13,14
 224 -173 224 -173 210 -176.5 c 128,-1,15
 196 -180 196 -180 184 -180 c 0,0,1
EndSplineSet
Validated: 1
EndChar

StartChar: uni026E
Encoding: 622 622 476
Width: 526
Flags: W
LayerCount: 2
Fore
SplineSet
320 -234 m 256,0,1
 284 -234 284 -234 255 -227 c 128,-1,2
 226 -220 226 -220 203.5 -209.5 c 128,-1,3
 181 -199 181 -199 163.5 -185.5 c 128,-1,4
 146 -172 146 -172 132 -159 c 1,5,-1
 152 -137 l 1,6,7
 165 -150 165 -150 181.5 -162.5 c 128,-1,8
 198 -175 198 -175 218 -184.5 c 128,-1,9
 238 -194 238 -194 263.5 -200 c 128,-1,10
 289 -206 289 -206 322 -206 c 0,11,12
 353 -206 353 -206 381.5 -193 c 128,-1,13
 410 -180 410 -180 431.5 -156 c 128,-1,14
 453 -132 453 -132 465.5 -98.5 c 128,-1,15
 478 -65 478 -65 478 -24 c 0,16,17
 478 52 478 52 436.5 96 c 128,-1,18
 395 140 395 140 314 140 c 0,19,20
 291 140 291 140 277.5 134.5 c 128,-1,21
 264 129 264 129 246 120 c 1,22,-1
 226 146 l 1,23,-1
 450 450 l 1,24,-1
 126 450 l 1,25,-1
 126 0 l 1,26,-1
 96 0 l 1,27,-1
 96 722 l 1,28,-1
 126 722 l 1,29,-1
 126 478 l 1,30,-1
 490 478 l 1,31,-1
 490 462 l 1,32,-1
 270 162 l 1,33,34
 325 174 325 174 369 164.5 c 128,-1,35
 413 155 413 155 444.5 129.5 c 128,-1,36
 476 104 476 104 493 65 c 128,-1,37
 510 26 510 26 510 -22 c 0,38,39
 510 -73 510 -73 493.5 -112.5 c 128,-1,40
 477 -152 477 -152 450.5 -179 c 128,-1,41
 424 -206 424 -206 390 -220 c 128,-1,42
 356 -234 356 -234 320 -234 c 256,0,1
EndSplineSet
Validated: 33
EndChar

StartChar: uni029F
Encoding: 671 671 477
Width: 394
GlyphClass: 2
Flags: W
AnchorPoint: "Anchor-4" 252 -22 basechar 0
AnchorPoint: "Anchor-1" 118 562 basechar 0
LayerCount: 2
Fore
SplineSet
96 0 m 1,0,-1
 96 478 l 1,1,-1
 126 478 l 1,2,-1
 126 28 l 1,3,-1
 368 28 l 1,4,-1
 368 0 l 1,5,-1
 96 0 l 1,0,-1
EndSplineSet
Validated: 1
EndChar

StartChar: uni026F
Encoding: 623 623 478
Width: 806
GlyphClass: 2
Flags: W
AnchorPoint: "Anchor-4" 414 -22 basechar 0
AnchorPoint: "Anchor-0" 404 502 basechar 0
LayerCount: 2
Fore
SplineSet
230 -12 m 0,0,1
 159 -12 159 -12 123.5 32 c 128,-1,2
 88 76 88 76 88 170 c 2,3,-1
 88 478 l 1,4,-1
 118 478 l 1,5,-1
 118 174 l 2,6,7
 118 94 118 94 145.5 55 c 128,-1,8
 173 16 173 16 232 16 c 0,9,10
 268 16 268 16 305 40 c 128,-1,11
 342 64 342 64 384 112 c 1,12,-1
 384 478 l 1,13,-1
 414 478 l 1,14,-1
 414 174 l 2,15,16
 414 94 414 94 441.5 55 c 128,-1,17
 469 16 469 16 528 16 c 0,18,19
 596 16 596 16 680 112 c 1,20,-1
 680 478 l 1,21,-1
 710 478 l 1,22,-1
 710 0 l 1,23,-1
 684 0 l 1,24,-1
 680 76 l 1,25,-1
 678 76 l 1,26,27
 645 38 645 38 605 13 c 128,-1,28
 565 -12 565 -12 526 -12 c 0,29,30
 467 -12 467 -12 436.5 15.5 c 128,-1,31
 406 43 406 43 394 88 c 1,32,33
 352 41 352 41 311.5 14.5 c 128,-1,34
 271 -12 271 -12 230 -12 c 0,0,1
EndSplineSet
Validated: 1
EndChar

StartChar: uni0270
Encoding: 624 624 479
Width: 806
GlyphClass: 2
Flags: W
AnchorPoint: "Anchor-4" 414 -22 basechar 0
AnchorPoint: "Anchor-0" 404 502 basechar 0
LayerCount: 2
Fore
SplineSet
680 -222 m 1,0,-1
 680 -32 l 1,1,-1
 682 80 l 1,2,3
 646 38 646 38 605.5 13 c 128,-1,4
 565 -12 565 -12 526 -12 c 0,5,6
 467 -12 467 -12 436.5 15.5 c 128,-1,7
 406 43 406 43 394 88 c 1,8,9
 352 41 352 41 311.5 14.5 c 128,-1,10
 271 -12 271 -12 230 -12 c 0,11,12
 159 -12 159 -12 123.5 32 c 128,-1,13
 88 76 88 76 88 170 c 2,14,-1
 88 478 l 1,15,-1
 118 478 l 1,16,-1
 118 174 l 2,17,18
 118 94 118 94 145.5 55 c 128,-1,19
 173 16 173 16 232 16 c 0,20,21
 268 16 268 16 305 40 c 128,-1,22
 342 64 342 64 384 112 c 1,23,-1
 384 478 l 1,24,-1
 414 478 l 1,25,-1
 414 174 l 2,26,27
 414 94 414 94 441.5 55 c 128,-1,28
 469 16 469 16 528 16 c 0,29,30
 596 16 596 16 680 112 c 1,31,-1
 680 478 l 1,32,-1
 710 478 l 1,33,-1
 710 -222 l 1,34,-1
 680 -222 l 1,0,-1
EndSplineSet
Validated: 1
EndChar

StartChar: uni0271
Encoding: 625 625 480
Width: 806
GlyphClass: 2
Flags: W
AnchorPoint: "Anchor-0" 404 502 basechar 0
LayerCount: 2
Fore
SplineSet
620 -180 m 0,0,1
 605 -180 605 -180 589 -176.5 c 128,-1,2
 573 -173 573 -173 562 -168 c 1,3,-1
 570 -142 l 1,4,5
 579 -145 579 -145 593 -148.5 c 128,-1,6
 607 -152 607 -152 622 -152 c 0,7,8
 643 -152 643 -152 656 -144 c 128,-1,9
 669 -136 669 -136 676 -121.5 c 128,-1,10
 683 -107 683 -107 685.5 -87 c 128,-1,11
 688 -67 688 -67 688 -44 c 2,12,-1
 688 304 l 2,13,14
 688 384 688 384 660.5 423 c 128,-1,15
 633 462 633 462 574 462 c 0,16,17
 538 462 538 462 501 438 c 128,-1,18
 464 414 464 414 422 366 c 1,19,-1
 422 0 l 1,20,-1
 392 0 l 1,21,-1
 392 304 l 2,22,23
 392 384 392 384 364.5 423 c 128,-1,24
 337 462 337 462 278 462 c 0,25,26
 210 462 210 462 126 366 c 1,27,-1
 126 0 l 1,28,-1
 96 0 l 1,29,-1
 96 478 l 1,30,-1
 122 478 l 1,31,-1
 126 402 l 1,32,-1
 128 402 l 1,33,34
 161 440 161 440 201 465 c 128,-1,35
 241 490 241 490 280 490 c 0,36,37
 339 490 339 490 369.5 462.5 c 128,-1,38
 400 435 400 435 412 390 c 1,39,40
 454 437 454 437 494.5 463.5 c 128,-1,41
 535 490 535 490 576 490 c 0,42,43
 647 490 647 490 682.5 446 c 128,-1,44
 718 402 718 402 718 308 c 2,45,-1
 718 -48 l 2,46,47
 718 -117 718 -117 694 -148.5 c 128,-1,48
 670 -180 670 -180 620 -180 c 0,0,1
EndSplineSet
Validated: 1
EndChar

StartChar: uni0272
Encoding: 626 626 481
Width: 526
GlyphClass: 2
Flags: W
AnchorPoint: "Anchor-0" 278 502 basechar 0
LayerCount: 2
Fore
SplineSet
38 -180 m 0,0,1
 26 -180 26 -180 12 -176.5 c 128,-1,2
 -2 -173 -2 -173 -10 -168 c 1,3,-1
 -2 -142 l 1,4,5
 6 -145 6 -145 17 -148.5 c 128,-1,6
 28 -152 28 -152 40 -152 c 0,7,8
 73 -152 73 -152 84.5 -123.5 c 128,-1,9
 96 -95 96 -95 96 -50 c 2,10,-1
 96 478 l 1,11,-1
 126 478 l 1,12,-1
 126 402 l 1,13,-1
 128 402 l 1,14,15
 166 440 166 440 205 465 c 128,-1,16
 244 490 244 490 294 490 c 0,17,18
 368 490 368 490 403 446 c 128,-1,19
 438 402 438 402 438 308 c 2,20,-1
 438 0 l 1,21,-1
 408 0 l 1,22,-1
 408 304 l 2,23,24
 408 384 408 384 381 423 c 128,-1,25
 354 462 354 462 292 462 c 0,26,27
 247 462 247 462 209.5 438 c 128,-1,28
 172 414 172 414 126 366 c 1,29,-1
 126 -54 l 2,30,31
 126 -122 126 -122 104.5 -151 c 128,-1,32
 83 -180 83 -180 38 -180 c 0,0,1
EndSplineSet
Validated: 1
EndChar

StartChar: uni0273
Encoding: 627 627 482
Width: 526
GlyphClass: 2
Flags: W
AnchorPoint: "Anchor-0" 278 502 basechar 0
LayerCount: 2
Fore
SplineSet
496 -180 m 0,0,1
 451 -180 451 -180 429.5 -151 c 128,-1,2
 408 -122 408 -122 408 -54 c 2,3,-1
 408 304 l 2,4,5
 408 384 408 384 381 423 c 128,-1,6
 354 462 354 462 292 462 c 0,7,8
 247 462 247 462 209.5 438 c 128,-1,9
 172 414 172 414 126 366 c 1,10,-1
 126 0 l 1,11,-1
 96 0 l 1,12,-1
 96 478 l 1,13,-1
 122 478 l 1,14,-1
 126 402 l 1,15,-1
 128 402 l 1,16,17
 166 440 166 440 205 465 c 128,-1,18
 244 490 244 490 294 490 c 0,19,20
 368 490 368 490 403 446 c 128,-1,21
 438 402 438 402 438 308 c 2,22,-1
 438 -50 l 2,23,24
 438 -95 438 -95 449.5 -123.5 c 128,-1,25
 461 -152 461 -152 494 -152 c 0,26,27
 506 -152 506 -152 517 -148.5 c 128,-1,28
 528 -145 528 -145 536 -142 c 1,29,-1
 544 -168 l 1,30,31
 536 -173 536 -173 522 -176.5 c 128,-1,32
 508 -180 508 -180 496 -180 c 0,0,1
EndSplineSet
Validated: 1
EndChar

StartChar: uni0274
Encoding: 628 628 483
Width: 528
GlyphClass: 2
Flags: W
AnchorPoint: "Anchor-0" 266 502 basechar 0
LayerCount: 2
Fore
SplineSet
96 0 m 1,0,-1
 96 478 l 1,1,-1
 127 478 l 1,2,-1
 338 150 l 2,3,4
 353 127 353 127 370 98 c 128,-1,5
 387 69 387 69 402 46 c 1,6,-1
 406 46 l 1,7,8
 404 94 404 94 403 139 c 128,-1,9
 402 184 402 184 402 224 c 2,10,-1
 402 478 l 1,11,-1
 432 478 l 1,12,-1
 432 0 l 1,13,-1
 402 0 l 1,14,-1
 190 328 l 2,15,16
 175 351 175 351 158 380 c 128,-1,17
 141 409 141 409 126 432 c 1,18,-1
 122 432 l 1,19,20
 124 384 124 384 125 339 c 128,-1,21
 126 294 126 294 126 254 c 2,22,-1
 126 0 l 1,23,-1
 96 0 l 1,0,-1
EndSplineSet
Validated: 1
EndChar

StartChar: uni0275
Encoding: 629 629 484
Width: 532
GlyphClass: 2
Flags: W
AnchorPoint: "Anchor-0" 266 502 basechar 0
LayerCount: 2
Fore
SplineSet
266 -12 m 0,0,1
 222 -12 222 -12 183.5 4 c 128,-1,2
 145 20 145 20 116.5 51.5 c 128,-1,3
 88 83 88 83 71 129.5 c 128,-1,4
 54 176 54 176 54 238 c 256,5,6
 54 300 54 300 71 347.5 c 128,-1,7
 88 395 88 395 116.5 426.5 c 128,-1,8
 145 458 145 458 183.5 474 c 128,-1,9
 222 490 222 490 266 490 c 0,10,11
 309 490 309 490 348 474 c 128,-1,12
 387 458 387 458 415.5 426.5 c 128,-1,13
 444 395 444 395 461 347.5 c 128,-1,14
 478 300 478 300 478 238 c 256,15,16
 478 176 478 176 461 129.5 c 128,-1,17
 444 83 444 83 415.5 51.5 c 128,-1,18
 387 20 387 20 348 4 c 128,-1,19
 309 -12 309 -12 266 -12 c 0,0,1
266 462 m 256,20,21
 230 462 230 462 198.5 448.5 c 128,-1,22
 167 435 167 435 143 409.5 c 128,-1,23
 119 384 119 384 104 348 c 128,-1,24
 89 312 89 312 85 266 c 1,25,-1
 447 266 l 1,26,27
 443 312 443 312 428 348 c 128,-1,28
 413 384 413 384 389 409.5 c 128,-1,29
 365 435 365 435 333.5 448.5 c 128,-1,30
 302 462 302 462 266 462 c 256,20,21
266 16 m 256,31,32
 305 16 305 16 338.5 31.5 c 128,-1,33
 372 47 372 47 396 75.5 c 128,-1,34
 420 104 420 104 434 145 c 128,-1,35
 448 186 448 186 448 238 c 1,36,-1
 84 238 l 1,37,38
 84 186 84 186 98 145 c 128,-1,39
 112 104 112 104 136 75.5 c 128,-1,40
 160 47 160 47 193.5 31.5 c 128,-1,41
 227 16 227 16 266 16 c 256,31,32
EndSplineSet
Validated: 1
EndChar

StartChar: uni0276
Encoding: 630 630 485
Width: 678
GlyphClass: 2
Flags: W
AnchorPoint: "Anchor-4" 428 -22 basechar 0
AnchorPoint: "Anchor-0" 414 502 basechar 0
LayerCount: 2
Fore
SplineSet
284 -12 m 0,0,1
 234 -12 234 -12 191.5 5 c 128,-1,2
 149 22 149 22 118.5 54 c 128,-1,3
 88 86 88 86 71 133 c 128,-1,4
 54 180 54 180 54 240 c 256,5,6
 54 300 54 300 71 346.5 c 128,-1,7
 88 393 88 393 118.5 425 c 128,-1,8
 149 457 149 457 191.5 473.5 c 128,-1,9
 234 490 234 490 284 490 c 0,10,11
 305 490 305 490 327.5 488 c 128,-1,12
 350 486 350 486 376 478 c 1,13,-1
 652 478 l 1,14,-1
 652 450 l 1,15,-1
 404 450 l 1,16,-1
 404 266 l 1,17,-1
 610 266 l 1,18,-1
 610 238 l 1,19,-1
 404 238 l 1,20,-1
 404 28 l 1,21,-1
 662 28 l 1,22,-1
 662 0 l 1,23,-1
 376 0 l 1,24,25
 350 -8 350 -8 327.5 -10 c 128,-1,26
 305 -12 305 -12 284 -12 c 0,0,1
286 16 m 0,27,28
 306 16 306 16 329 21 c 128,-1,29
 352 26 352 26 372 32 c 1,30,-1
 372 446 l 1,31,32
 352 452 352 452 329 457 c 128,-1,33
 306 462 306 462 286 462 c 0,34,35
 243 462 243 462 207 447.5 c 128,-1,36
 171 433 171 433 144.5 405 c 128,-1,37
 118 377 118 377 103 335.5 c 128,-1,38
 88 294 88 294 88 240 c 256,39,40
 88 186 88 186 103 144 c 128,-1,41
 118 102 118 102 144.5 73.5 c 128,-1,42
 171 45 171 45 207 30.5 c 128,-1,43
 243 16 243 16 286 16 c 0,27,28
EndSplineSet
Validated: 1
EndChar

StartChar: uni0278
Encoding: 632 632 486
Width: 634
Flags: W
LayerCount: 2
Fore
SplineSet
86 240 m 256,0,1
 86 190 86 190 103.5 149 c 128,-1,2
 121 108 121 108 151 79 c 128,-1,3
 181 50 181 50 220 33.5 c 128,-1,4
 259 17 259 17 302 16 c 1,5,-1
 302 462 l 1,6,7
 259 461 259 461 220 445 c 128,-1,8
 181 429 181 429 151 400 c 128,-1,9
 121 371 121 371 103.5 330.5 c 128,-1,10
 86 290 86 290 86 240 c 256,0,1
548 240 m 256,11,12
 548 290 548 290 531.5 330.5 c 128,-1,13
 515 371 515 371 486 400 c 128,-1,14
 457 429 457 429 417.5 445 c 128,-1,15
 378 461 378 461 332 462 c 1,16,-1
 332 16 l 1,17,18
 375 17 375 17 414 33.5 c 128,-1,19
 453 50 453 50 483 79 c 128,-1,20
 513 108 513 108 530.5 149 c 128,-1,21
 548 190 548 190 548 240 c 256,11,12
302 -222 m 1,22,-1
 302 -10 l 1,23,24
 254 -9 254 -9 209.5 8 c 128,-1,25
 165 25 165 25 130.5 57 c 128,-1,26
 96 89 96 89 75 135 c 128,-1,27
 54 181 54 181 54 240 c 256,28,29
 54 299 54 299 75 345 c 128,-1,30
 96 391 96 391 130.5 422.5 c 128,-1,31
 165 454 165 454 209.5 470.5 c 128,-1,32
 254 487 254 487 302 488 c 1,33,-1
 302 722 l 1,34,-1
 332 722 l 1,35,-1
 332 488 l 1,36,37
 382 487 382 487 427 470.5 c 128,-1,38
 472 454 472 454 506 422.5 c 128,-1,39
 540 391 540 391 560 345 c 128,-1,40
 580 299 580 299 580 240 c 256,41,42
 580 181 580 181 559 135 c 128,-1,43
 538 89 538 89 503.5 57 c 128,-1,44
 469 25 469 25 424.5 8 c 128,-1,45
 380 -9 380 -9 332 -10 c 1,46,-1
 332 -222 l 1,47,-1
 302 -222 l 1,22,-1
EndSplineSet
Validated: 1
EndChar

StartChar: uni0279
Encoding: 633 633 487
Width: 306
GlyphClass: 2
Flags: W
AnchorPoint: "Anchor-4" 10 -22 basechar 0
AnchorPoint: "Anchor-0" 192 502 basechar 0
LayerCount: 2
Fore
SplineSet
42 -12 m 0,0,1
 30 -12 30 -12 19 -10 c 128,-1,2
 8 -8 8 -8 -4 -2 c 1,3,-1
 4 26 l 1,4,5
 16 21 16 21 24 19.5 c 128,-1,6
 32 18 32 18 46 18 c 0,7,8
 79 18 79 18 115 46.5 c 128,-1,9
 151 75 151 75 180 146 c 1,10,-1
 180 478 l 1,11,-1
 210 478 l 1,12,-1
 210 0 l 1,13,-1
 184 0 l 1,14,-1
 180 90 l 1,15,-1
 178 90 l 1,16,17
 154 46 154 46 120 17 c 128,-1,18
 86 -12 86 -12 42 -12 c 0,0,1
EndSplineSet
Validated: 1
EndChar

StartChar: uni027A
Encoding: 634 634 488
Width: 306
GlyphClass: 2
Flags: W
AnchorPoint: "Anchor-4" 10 -22 basechar 0
AnchorPoint: "Anchor-0" 92 502 basechar 0
LayerCount: 2
Fore
SplineSet
42 -12 m 0,0,1
 30 -12 30 -12 19 -10 c 128,-1,2
 8 -8 8 -8 -4 -2 c 1,3,-1
 4 26 l 1,4,5
 16 21 16 21 24 19.5 c 128,-1,6
 32 18 32 18 46 18 c 0,7,8
 79 18 79 18 115 46.5 c 128,-1,9
 151 75 151 75 180 146 c 1,10,-1
 180 722 l 1,11,-1
 210 722 l 1,12,-1
 210 0 l 1,13,-1
 184 0 l 1,14,-1
 180 90 l 1,15,-1
 178 90 l 1,16,17
 154 46 154 46 120 17 c 128,-1,18
 86 -12 86 -12 42 -12 c 0,0,1
EndSplineSet
Validated: 1
EndChar

StartChar: uni027B
Encoding: 635 635 489
Width: 306
GlyphClass: 2
Flags: W
AnchorPoint: "Anchor-4" 10 -22 basechar 0
AnchorPoint: "Anchor-0" 192 502 basechar 0
LayerCount: 2
Fore
SplineSet
268 -180 m 0,0,1
 223 -180 223 -180 201.5 -151 c 128,-1,2
 180 -122 180 -122 180 -54 c 2,3,-1
 180 90 l 1,4,-1
 178 90 l 1,5,6
 154 46 154 46 120 17 c 128,-1,7
 86 -12 86 -12 42 -12 c 0,8,9
 30 -12 30 -12 19 -10 c 128,-1,10
 8 -8 8 -8 -4 -2 c 1,11,-1
 4 26 l 1,12,13
 16 21 16 21 24 19.5 c 128,-1,14
 32 18 32 18 46 18 c 0,15,16
 79 18 79 18 115 46.5 c 128,-1,17
 151 75 151 75 180 146 c 1,18,-1
 180 478 l 1,19,-1
 210 478 l 1,20,-1
 210 -50 l 2,21,22
 210 -95 210 -95 221.5 -123.5 c 128,-1,23
 233 -152 233 -152 266 -152 c 0,24,25
 278 -152 278 -152 289 -148.5 c 128,-1,26
 300 -145 300 -145 308 -142 c 1,27,-1
 316 -168 l 1,28,29
 308 -173 308 -173 294 -176.5 c 128,-1,30
 280 -180 280 -180 268 -180 c 0,0,1
EndSplineSet
Validated: 1
EndChar

StartChar: uni027D
Encoding: 637 637 490
Width: 306
GlyphClass: 2
Flags: W
AnchorPoint: "Anchor-4" 110 -22 basechar 0
AnchorPoint: "Anchor-0" 192 502 basechar 0
LayerCount: 2
Fore
SplineSet
184 -180 m 0,0,1
 139 -180 139 -180 117.5 -151 c 128,-1,2
 96 -122 96 -122 96 -54 c 2,3,-1
 96 478 l 1,4,-1
 122 478 l 1,5,-1
 126 388 l 1,6,-1
 128 388 l 1,7,8
 152 432 152 432 186 461 c 128,-1,9
 220 490 220 490 264 490 c 0,10,11
 276 490 276 490 287 488 c 128,-1,12
 298 486 298 486 310 480 c 1,13,-1
 302 452 l 1,14,15
 290 457 290 457 282 458.5 c 128,-1,16
 274 460 274 460 260 460 c 0,17,18
 227 460 227 460 191 431.5 c 128,-1,19
 155 403 155 403 126 332 c 1,20,-1
 126 -50 l 2,21,22
 126 -95 126 -95 137.5 -123.5 c 128,-1,23
 149 -152 149 -152 182 -152 c 0,24,25
 194 -152 194 -152 205 -148.5 c 128,-1,26
 216 -145 216 -145 224 -142 c 1,27,-1
 232 -168 l 1,28,29
 224 -173 224 -173 210 -176.5 c 128,-1,30
 196 -180 196 -180 184 -180 c 0,0,1
EndSplineSet
Validated: 1
EndChar

StartChar: uni027E
Encoding: 638 638 491
Width: 296
Flags: W
LayerCount: 2
Fore
SplineSet
96 0 m 1,0,-1
 96 322 l 2,1,2
 96 365 96 365 107.5 396.5 c 128,-1,3
 119 428 119 428 138 449 c 128,-1,4
 157 470 157 470 182.5 480 c 128,-1,5
 208 490 208 490 236 490 c 0,6,7
 275 490 275 490 300 476 c 1,8,-1
 292 450 l 1,9,10
 278 458 278 458 265 460 c 128,-1,11
 252 462 252 462 234 462 c 0,12,13
 187 462 187 462 156.5 424 c 128,-1,14
 126 386 126 386 126 318 c 2,15,-1
 126 0 l 1,16,-1
 96 0 l 1,0,-1
EndSplineSet
Validated: 1
EndChar

StartChar: uni0280
Encoding: 640 640 492
Width: 466
GlyphClass: 2
Flags: W
AnchorPoint: "Anchor-4" 270 -22 basechar 0
AnchorPoint: "Anchor-1" 248 502 basechar 0
LayerCount: 2
Fore
SplineSet
96 0 m 1,0,-1
 96 478 l 1,1,-1
 242 478 l 2,2,3
 279 478 279 478 309.5 471 c 128,-1,4
 340 464 340 464 362 449 c 128,-1,5
 384 434 384 434 396.5 409.5 c 128,-1,6
 409 385 409 385 409 350 c 0,7,8
 409 287 409 287 371 255 c 128,-1,9
 333 223 333 223 276 217 c 1,10,-1
 420 0 l 1,11,-1
 386 0 l 1,12,-1
 245 216 l 1,13,-1
 126 216 l 1,14,-1
 126 0 l 1,15,-1
 96 0 l 1,0,-1
126 244 m 1,16,-1
 232 244 l 2,17,18
 299 244 299 244 338 270 c 128,-1,19
 377 296 377 296 377 350 c 256,20,21
 377 404 377 404 338 427 c 128,-1,22
 299 450 299 450 232 450 c 2,23,-1
 126 450 l 1,24,-1
 126 244 l 1,16,-1
EndSplineSet
Validated: 1
EndChar

StartChar: uni0281
Encoding: 641 641 493
Width: 466
Flags: W
LayerCount: 2
Fore
SplineSet
224 0 m 2,0,1
 187 0 187 0 156.5 7 c 128,-1,2
 126 14 126 14 104 29.5 c 128,-1,3
 82 45 82 45 69.5 70 c 128,-1,4
 57 95 57 95 57 130 c 0,5,6
 57 161 57 161 67 185 c 128,-1,7
 77 209 77 209 95 226 c 128,-1,8
 113 243 113 243 137 252.5 c 128,-1,9
 161 262 161 262 189 265 c 1,10,-1
 46 478 l 1,11,-1
 80 478 l 1,12,-1
 221 266 l 1,13,-1
 340 266 l 1,14,-1
 340 478 l 1,15,-1
 370 478 l 1,16,-1
 370 0 l 1,17,-1
 224 0 l 2,0,1
234 28 m 2,18,-1
 340 28 l 1,19,-1
 340 238 l 1,20,-1
 234 238 l 2,21,22
 167 238 167 238 128 211 c 128,-1,23
 89 184 89 184 89 130 c 256,24,25
 89 76 89 76 128 52 c 128,-1,26
 167 28 167 28 234 28 c 2,18,-1
EndSplineSet
Validated: 1
EndChar

StartChar: uni0282
Encoding: 642 642 494
Width: 400
GlyphClass: 2
Flags: W
AnchorPoint: "Anchor-0" 206 502 basechar 0
LayerCount: 2
Fore
SplineSet
208 -12 m 0,0,1
 166 -12 166 -12 129.5 -2 c 128,-1,2
 93 8 93 8 64 25 c 1,3,-1
 64 -44 l 2,4,5
 64 -67 64 -67 66.5 -87 c 128,-1,6
 69 -107 69 -107 76 -121.5 c 128,-1,7
 83 -136 83 -136 96 -144 c 128,-1,8
 109 -152 109 -152 130 -152 c 0,9,10
 145 -152 145 -152 159 -148.5 c 128,-1,11
 173 -145 173 -145 182 -142 c 1,12,-1
 190 -168 l 1,13,14
 179 -173 179 -173 163 -176.5 c 128,-1,15
 147 -180 147 -180 132 -180 c 0,16,17
 82 -180 82 -180 58 -148.5 c 128,-1,18
 34 -117 34 -117 34 -48 c 2,19,-1
 34 44 l 1,20,-1
 54 68 l 1,21,22
 84 46 84 46 120 31 c 128,-1,23
 156 16 156 16 210 16 c 0,24,25
 240 16 240 16 263 24.5 c 128,-1,26
 286 33 286 33 301 47 c 128,-1,27
 316 61 316 61 324 79.5 c 128,-1,28
 332 98 332 98 332 118 c 0,29,30
 332 142 332 142 321 159.5 c 128,-1,31
 310 177 310 177 293 190.5 c 128,-1,32
 276 204 276 204 254.5 213 c 128,-1,33
 233 222 233 222 212 230 c 0,34,35
 184 240 184 240 156.5 251 c 128,-1,36
 129 262 129 262 106.5 277 c 128,-1,37
 84 292 84 292 70 313.5 c 128,-1,38
 56 335 56 335 56 366 c 0,39,40
 56 391 56 391 65.5 413.5 c 128,-1,41
 75 436 75 436 94 453 c 128,-1,42
 113 470 113 470 141 480 c 128,-1,43
 169 490 169 490 206 490 c 0,44,45
 242 490 242 490 277 476.5 c 128,-1,46
 312 463 312 463 338 442 c 1,47,-1
 320 418 l 1,48,49
 296 436 296 436 269 449 c 128,-1,50
 242 462 242 462 204 462 c 0,51,52
 174 462 174 462 152 454 c 128,-1,53
 130 446 130 446 116 432.5 c 128,-1,54
 102 419 102 419 95 402.5 c 128,-1,55
 88 386 88 386 88 368 c 0,56,57
 88 346 88 346 98 330.5 c 128,-1,58
 108 315 108 315 124.5 303.5 c 128,-1,59
 141 292 141 292 161.5 283 c 128,-1,60
 182 274 182 274 204 266 c 0,61,62
 232 255 232 255 261 244 c 128,-1,63
 290 233 290 233 312.5 217.5 c 128,-1,64
 335 202 335 202 349.5 178.5 c 128,-1,65
 364 155 364 155 364 120 c 0,66,67
 364 94 364 94 353.5 70 c 128,-1,68
 343 46 343 46 323.5 28 c 128,-1,69
 304 10 304 10 274.5 -1 c 128,-1,70
 245 -12 245 -12 208 -12 c 0,0,1
EndSplineSet
Validated: 1
EndChar

StartChar: uni0283
Encoding: 643 643 495
Width: 222
Flags: W
LayerCount: 2
Fore
SplineSet
28 -234 m 0,0,1
 13 -234 13 -234 -3 -230.5 c 128,-1,2
 -19 -227 -19 -227 -30 -222 c 1,3,-1
 -22 -196 l 1,4,5
 -13 -199 -13 -199 1 -202.5 c 128,-1,6
 15 -206 15 -206 30 -206 c 0,7,8
 51 -206 51 -206 64 -198 c 128,-1,9
 77 -190 77 -190 84 -175.5 c 128,-1,10
 91 -161 91 -161 93.5 -141 c 128,-1,11
 96 -121 96 -121 96 -98 c 2,12,-1
 96 604 l 2,13,14
 96 673 96 673 122.5 704.5 c 128,-1,15
 149 736 149 736 204 736 c 0,16,17
 217 736 217 736 230 732.5 c 128,-1,18
 243 729 243 729 252 724 c 1,19,-1
 244 698 l 1,20,21
 236 701 236 701 225 704.5 c 128,-1,22
 214 708 214 708 202 708 c 0,23,24
 178 708 178 708 163 700 c 128,-1,25
 148 692 148 692 140 677.5 c 128,-1,26
 132 663 132 663 129 643 c 128,-1,27
 126 623 126 623 126 600 c 2,28,-1
 126 -102 l 2,29,30
 126 -171 126 -171 102 -202.5 c 128,-1,31
 78 -234 78 -234 28 -234 c 0,0,1
EndSplineSet
Validated: 1
EndChar

StartChar: uni0284
Encoding: 644 644 496
Width: 230
Flags: W
LayerCount: 2
Fore
SplineSet
32 -234 m 0,0,1
 17 -234 17 -234 1 -230.5 c 128,-1,2
 -15 -227 -15 -227 -26 -222 c 1,3,-1
 -18 -196 l 1,4,5
 -9 -199 -9 -199 5 -202.5 c 128,-1,6
 19 -206 19 -206 34 -206 c 0,7,8
 55 -206 55 -206 68 -198 c 128,-1,9
 81 -190 81 -190 88 -175.5 c 128,-1,10
 95 -161 95 -161 97.5 -141 c 128,-1,11
 100 -121 100 -121 100 -98 c 2,12,-1
 100 238 l 1,13,-1
 4 238 l 1,14,-1
 4 262 l 1,15,-1
 100 266 l 1,16,-1
 100 604 l 2,17,18
 100 673 100 673 126.5 704.5 c 128,-1,19
 153 736 153 736 208 736 c 0,20,21
 221 736 221 736 234 732.5 c 128,-1,22
 247 729 247 729 256 724 c 1,23,-1
 248 698 l 1,24,25
 240 701 240 701 229 704.5 c 128,-1,26
 218 708 218 708 206 708 c 0,27,28
 182 708 182 708 167 700 c 128,-1,29
 152 692 152 692 144 677.5 c 128,-1,30
 136 663 136 663 133 643 c 128,-1,31
 130 623 130 623 130 600 c 2,32,-1
 130 266 l 1,33,-1
 222 266 l 1,34,-1
 222 238 l 1,35,-1
 130 238 l 1,36,-1
 130 -102 l 2,37,38
 130 -171 130 -171 106 -202.5 c 128,-1,39
 82 -234 82 -234 32 -234 c 0,0,1
EndSplineSet
Validated: 1
EndChar

StartChar: uni0288
Encoding: 648 648 497
Width: 302
GlyphClass: 2
Flags: W
AnchorPoint: "Anchor-0" 124 630 basechar 0
LayerCount: 2
Fore
SplineSet
218 -182 m 0,0,1
 185 -182 185 -182 163.5 -172 c 128,-1,2
 142 -162 142 -162 129 -144 c 128,-1,3
 116 -126 116 -126 111 -100.5 c 128,-1,4
 106 -75 106 -75 106 -44 c 2,5,-1
 106 450 l 1,6,-1
 30 450 l 1,7,-1
 30 474 l 1,8,-1
 106 478 l 1,9,-1
 110 618 l 1,10,-1
 136 618 l 1,11,-1
 136 478 l 1,12,-1
 278 478 l 1,13,-1
 278 450 l 1,14,-1
 136 450 l 1,15,-1
 136 -48 l 2,16,17
 136 -71 136 -71 139.5 -90.5 c 128,-1,18
 143 -110 143 -110 152 -124 c 128,-1,19
 161 -138 161 -138 177.5 -146 c 128,-1,20
 194 -154 194 -154 220 -154 c 0,21,22
 234 -154 234 -154 251 -149 c 128,-1,23
 268 -144 268 -144 282 -138 c 1,24,-1
 292 -164 l 1,25,26
 271 -172 271 -172 250.5 -177 c 128,-1,27
 230 -182 230 -182 218 -182 c 0,0,1
EndSplineSet
Validated: 1
EndChar

StartChar: uni0289
Encoding: 649 649 498
Width: 540
GlyphClass: 2
Flags: W
AnchorPoint: "Anchor-0" 274 502 basechar 0
LayerCount: 2
Fore
SplineSet
4 258 m 1,0,-1
 4 282 l 1,1,-1
 100 286 l 1,2,-1
 100 478 l 1,3,-1
 130 478 l 1,4,-1
 130 286 l 1,5,-1
 410 286 l 1,6,-1
 410 478 l 1,7,-1
 440 478 l 1,8,-1
 440 286 l 1,9,-1
 532 286 l 1,10,-1
 532 258 l 1,11,-1
 440 258 l 1,12,-1
 440 0 l 1,13,-1
 414 0 l 1,14,-1
 410 82 l 1,15,-1
 408 82 l 1,16,17
 372 40 372 40 333 14 c 128,-1,18
 294 -12 294 -12 244 -12 c 0,19,20
 170 -12 170 -12 135 32 c 128,-1,21
 100 76 100 76 100 170 c 2,22,-1
 100 258 l 1,23,-1
 4 258 l 1,0,-1
246 16 m 0,24,25
 291 16 291 16 328 41 c 128,-1,26
 365 66 365 66 410 120 c 1,27,-1
 410 258 l 1,28,-1
 130 258 l 1,29,-1
 130 174 l 2,30,31
 130 94 130 94 157 55 c 128,-1,32
 184 16 184 16 246 16 c 0,24,25
EndSplineSet
Validated: 1
EndChar

StartChar: uni028A
Encoding: 650 650 499
Width: 528
GlyphClass: 2
Flags: W
AnchorPoint: "Anchor-4" 264 -22 basechar 0
AnchorPoint: "Anchor-0" 264 502 basechar 0
LayerCount: 2
Fore
SplineSet
264 -12 m 0,0,1
 214 -12 214 -12 175.5 6.5 c 128,-1,2
 137 25 137 25 110.5 56.5 c 128,-1,3
 84 88 84 88 70 129.5 c 128,-1,4
 56 171 56 171 56 216 c 0,5,6
 56 259 56 259 65 294.5 c 128,-1,7
 74 330 74 330 88 359 c 128,-1,8
 102 388 102 388 119.5 410 c 128,-1,9
 137 432 137 432 154 448 c 1,10,-1
 154 450 l 1,11,-1
 44 450 l 1,12,-1
 44 478 l 1,13,-1
 206 478 l 1,14,-1
 206 458 l 1,15,16
 156 425 156 425 122 365.5 c 128,-1,17
 88 306 88 306 88 222 c 0,18,19
 88 181 88 181 99.5 144 c 128,-1,20
 111 107 111 107 133.5 78.5 c 128,-1,21
 156 50 156 50 188.5 33 c 128,-1,22
 221 16 221 16 264 16 c 256,23,24
 307 16 307 16 339.5 33 c 128,-1,25
 372 50 372 50 394.5 78.5 c 128,-1,26
 417 107 417 107 428.5 144 c 128,-1,27
 440 181 440 181 440 222 c 0,28,29
 440 264 440 264 431 300 c 128,-1,30
 422 336 422 336 406 365.5 c 128,-1,31
 390 395 390 395 368.5 418 c 128,-1,32
 347 441 347 441 322 458 c 1,33,-1
 322 478 l 1,34,-1
 484 478 l 1,35,-1
 484 450 l 1,36,-1
 374 450 l 1,37,-1
 374 448 l 1,38,39
 391 432 391 432 408.5 410 c 128,-1,40
 426 388 426 388 440 359 c 128,-1,41
 454 330 454 330 463 294.5 c 128,-1,42
 472 259 472 259 472 216 c 0,43,44
 472 171 472 171 458 129.5 c 128,-1,45
 444 88 444 88 417.5 56.5 c 128,-1,46
 391 25 391 25 352 6.5 c 128,-1,47
 313 -12 313 -12 264 -12 c 0,0,1
EndSplineSet
Validated: 1
EndChar

StartChar: uni028B
Encoding: 651 651 500
Width: 512
GlyphClass: 2
Flags: W
AnchorPoint: "Anchor-4" 276 -22 basechar 0
AnchorPoint: "Anchor-0" 258 502 basechar 0
LayerCount: 2
Fore
SplineSet
252 -12 m 0,0,1
 219 -12 219 -12 189 -1 c 128,-1,2
 159 10 159 10 136.5 34.5 c 128,-1,3
 114 59 114 59 101 97.5 c 128,-1,4
 88 136 88 136 88 191 c 2,5,-1
 88 478 l 1,6,-1
 118 478 l 1,7,-1
 118 201 l 2,8,9
 118 150 118 150 129 115 c 128,-1,10
 140 80 140 80 159 58 c 128,-1,11
 178 36 178 36 202 26 c 128,-1,12
 226 16 226 16 253 16 c 0,13,14
 293 16 293 16 324 36.5 c 128,-1,15
 355 57 355 57 376.5 91.5 c 128,-1,16
 398 126 398 126 409 172.5 c 128,-1,17
 420 219 420 219 420 272 c 0,18,19
 420 363 420 363 395.5 412.5 c 128,-1,20
 371 462 371 462 320 462 c 0,21,22
 303 462 303 462 284 454 c 1,23,-1
 274 482 l 1,24,25
 286 487 286 487 298 488.5 c 128,-1,26
 310 490 310 490 324 490 c 0,27,28
 452 490 452 490 452 276 c 0,29,30
 452 216 452 216 439 163.5 c 128,-1,31
 426 111 426 111 401 72 c 128,-1,32
 376 33 376 33 338.5 10.5 c 128,-1,33
 301 -12 301 -12 252 -12 c 0,0,1
EndSplineSet
Validated: 1
EndChar

StartChar: uni028C
Encoding: 652 652 501
Width: 422
GlyphClass: 2
Flags: W
AnchorPoint: "Anchor-4" 212 -22 basechar 0
AnchorPoint: "Anchor-0" 212 502 basechar 0
LayerCount: 2
Fore
SplineSet
12 0 m 1,0,-1
 192 478 l 1,1,-1
 228 478 l 1,2,-1
 410 0 l 1,3,-1
 376 0 l 1,4,-1
 262 310 l 2,5,6
 250 345 250 345 237 379.5 c 128,-1,7
 224 414 224 414 212 446 c 1,8,-1
 208 446 l 1,9,10
 196 414 196 414 183 379.5 c 128,-1,11
 170 345 170 345 158 310 c 2,12,-1
 44 0 l 1,13,-1
 12 0 l 1,0,-1
EndSplineSet
Validated: 1
EndChar

StartChar: uni028D
Encoding: 653 653 502
Width: 672
GlyphClass: 2
Flags: W
AnchorPoint: "Anchor-4" 336 -22 basechar 0
AnchorPoint: "Anchor-0" 336 502 basechar 0
LayerCount: 2
Fore
SplineSet
24 0 m 1,0,-1
 164 478 l 1,1,-1
 206 478 l 1,2,-1
 296 166 l 2,3,4
 307 131 307 131 315 98 c 128,-1,5
 323 65 323 65 334 30 c 1,6,-1
 338 30 l 1,7,8
 347 65 347 65 356.5 99 c 128,-1,9
 366 133 366 133 378 168 c 2,10,-1
 466 478 l 1,11,-1
 504 478 l 1,12,-1
 648 0 l 1,13,-1
 614 0 l 1,14,-1
 522 322 l 2,15,16
 513 355 513 355 504.5 385.5 c 128,-1,17
 496 416 496 416 488 448 c 1,18,-1
 484 448 l 1,19,20
 475 416 475 416 466 385.5 c 128,-1,21
 457 355 457 355 448 322 c 2,22,-1
 356 0 l 1,23,-1
 314 0 l 1,24,-1
 222 322 l 2,25,26
 213 355 213 355 204 385.5 c 128,-1,27
 195 416 195 416 186 448 c 1,28,-1
 182 448 l 1,29,30
 173 416 173 416 164 385.5 c 128,-1,31
 155 355 155 355 146 322 c 2,32,-1
 56 0 l 1,33,-1
 24 0 l 1,0,-1
EndSplineSet
Validated: 1
EndChar

StartChar: uni028E
Encoding: 654 654 503
Width: 424
GlyphClass: 2
Flags: W
AnchorPoint: "Anchor-4" 220 -22 basechar 0
AnchorPoint: "Anchor-0" 224 502 basechar 0
LayerCount: 2
Fore
SplineSet
12 0 m 1,0,-1
 216 580 l 2,1,2
 225 608 225 608 238.5 635.5 c 128,-1,3
 252 663 252 663 271 685 c 128,-1,4
 290 707 290 707 314.5 720.5 c 128,-1,5
 339 734 339 734 370 734 c 0,6,7
 396 734 396 734 416 724 c 1,8,-1
 408 696 l 1,9,10
 400 699 400 699 389.5 701.5 c 128,-1,11
 379 704 379 704 368 704 c 0,12,13
 323 704 323 704 291.5 665.5 c 128,-1,14
 260 627 260 627 240 568 c 2,15,-1
 214 490 l 1,16,-1
 412 0 l 1,17,-1
 378 0 l 1,18,-1
 256 314 l 2,19,20
 244 344 244 344 230 380 c 128,-1,21
 216 416 216 416 202 448 c 1,22,-1
 198 448 l 1,23,24
 186 416 186 416 174.5 380 c 128,-1,25
 163 344 163 344 152 314 c 2,26,-1
 44 0 l 1,27,-1
 12 0 l 1,0,-1
EndSplineSet
Validated: 1
EndChar

StartChar: uni028F
Encoding: 655 655 504
Width: 374
GlyphClass: 2
Flags: W
AnchorPoint: "Anchor-4" 186 -22 basechar 0
AnchorPoint: "Anchor-0" 188 502 basechar 0
LayerCount: 2
Fore
SplineSet
172 0 m 1,0,-1
 172 176 l 1,1,-1
 4 478 l 1,2,-1
 38 478 l 1,3,-1
 124 316 l 2,4,5
 139 288 139 288 154 262 c 128,-1,6
 169 236 169 236 186 208 c 1,7,-1
 190 208 l 1,8,9
 206 236 206 236 221 262 c 128,-1,10
 236 288 236 288 250 316 c 2,11,-1
 336 478 l 1,12,-1
 370 478 l 1,13,-1
 202 176 l 1,14,-1
 202 0 l 1,15,-1
 172 0 l 1,0,-1
EndSplineSet
Validated: 1
EndChar

StartChar: uni0290
Encoding: 656 656 505
Width: 396
GlyphClass: 2
Flags: W
AnchorPoint: "Anchor-0" 216 502 basechar 0
LayerCount: 2
Fore
SplineSet
418 -180 m 0,0,1
 373 -180 373 -180 351.5 -151 c 128,-1,2
 330 -122 330 -122 330 -54 c 2,3,-1
 330 0 l 1,4,-1
 26 0 l 1,5,-1
 26 16 l 1,6,-1
 320 450 l 1,7,-1
 58 450 l 1,8,-1
 58 478 l 1,9,-1
 360 478 l 1,10,-1
 360 462 l 1,11,-1
 66 28 l 1,12,-1
 360 28 l 1,13,-1
 360 -50 l 2,14,15
 360 -95 360 -95 371.5 -123.5 c 128,-1,16
 383 -152 383 -152 416 -152 c 0,17,18
 428 -152 428 -152 439 -148.5 c 128,-1,19
 450 -145 450 -145 458 -142 c 1,20,-1
 466 -168 l 1,21,22
 458 -173 458 -173 444 -176.5 c 128,-1,23
 430 -180 430 -180 418 -180 c 0,0,1
EndSplineSet
Validated: 1
EndChar

StartChar: uni0291
Encoding: 657 657 506
Width: 406
GlyphClass: 2
Flags: W
AnchorPoint: "Anchor-0" 216 502 basechar 0
LayerCount: 2
Fore
SplineSet
198 -80 m 1,0,-1
 168 -74 l 1,1,2
 173 -54 173 -54 178 -35.5 c 128,-1,3
 183 -17 183 -17 188 0 c 1,4,-1
 26 0 l 1,5,-1
 26 16 l 1,6,-1
 320 450 l 1,7,-1
 58 450 l 1,8,-1
 58 478 l 1,9,-1
 360 478 l 1,10,-1
 360 462 l 1,11,-1
 66 28 l 1,12,-1
 197 28 l 1,13,14
 252 178 252 178 340 178 c 0,15,16
 378 178 378 178 399 157 c 128,-1,17
 420 136 420 136 420 100 c 0,18,19
 420 58 420 58 385.5 29 c 128,-1,20
 351 0 351 0 282 0 c 2,21,-1
 218 0 l 1,22,23
 212 -18 212 -18 207.5 -37.5 c 128,-1,24
 203 -57 203 -57 198 -80 c 1,0,-1
338 150 m 0,25,26
 309 150 309 150 279.5 120.5 c 128,-1,27
 250 91 250 91 227 28 c 1,28,-1
 288 28 l 2,29,30
 336 28 336 28 362 50.5 c 128,-1,31
 388 73 388 73 388 100 c 0,32,33
 388 121 388 121 377 135.5 c 128,-1,34
 366 150 366 150 338 150 c 0,25,26
EndSplineSet
Validated: 1
EndChar

StartChar: uni0292
Encoding: 658 658 507
Width: 396
GlyphClass: 2
Flags: W
AnchorPoint: "Anchor-0" 174 515 basechar 0
LayerCount: 2
Fore
SplineSet
190 -234 m 256,0,1
 154 -234 154 -234 125 -227 c 128,-1,2
 96 -220 96 -220 73.5 -209.5 c 128,-1,3
 51 -199 51 -199 33.5 -185.5 c 128,-1,4
 16 -172 16 -172 2 -159 c 1,5,-1
 22 -137 l 1,6,7
 35 -150 35 -150 51.5 -162.5 c 128,-1,8
 68 -175 68 -175 88 -184.5 c 128,-1,9
 108 -194 108 -194 133.5 -200 c 128,-1,10
 159 -206 159 -206 192 -206 c 0,11,12
 223 -206 223 -206 251.5 -193 c 128,-1,13
 280 -180 280 -180 301.5 -156 c 128,-1,14
 323 -132 323 -132 335.5 -98.5 c 128,-1,15
 348 -65 348 -65 348 -24 c 0,16,17
 348 52 348 52 306.5 96 c 128,-1,18
 265 140 265 140 184 140 c 0,19,20
 161 140 161 140 147.5 134.5 c 128,-1,21
 134 129 134 129 116 120 c 1,22,-1
 96 146 l 1,23,-1
 320 450 l 1,24,-1
 48 450 l 1,25,-1
 48 478 l 1,26,-1
 360 478 l 1,27,-1
 360 462 l 1,28,-1
 140 162 l 1,29,30
 195 174 195 174 239 164.5 c 128,-1,31
 283 155 283 155 314.5 129.5 c 128,-1,32
 346 104 346 104 363 65 c 128,-1,33
 380 26 380 26 380 -22 c 0,34,35
 380 -73 380 -73 363.5 -112.5 c 128,-1,36
 347 -152 347 -152 320.5 -179 c 128,-1,37
 294 -206 294 -206 260 -220 c 128,-1,38
 226 -234 226 -234 190 -234 c 256,0,1
EndSplineSet
Validated: 33
EndChar

StartChar: uni0294
Encoding: 660 660 508
Width: 392
Flags: W
LayerCount: 2
Fore
SplineSet
160 0 m 1,0,-1
 160 330 l 1,1,2
 248 376 248 376 293 427.5 c 128,-1,3
 338 479 338 479 338 554 c 0,4,5
 338 622 338 622 299 664 c 128,-1,6
 260 706 260 706 186 706 c 0,7,8
 155 706 155 706 130.5 699 c 128,-1,9
 106 692 106 692 86 681 c 128,-1,10
 66 670 66 670 50.5 655.5 c 128,-1,11
 35 641 35 641 22 626 c 1,12,-1
 2 648 l 1,13,14
 15 663 15 663 32.5 678.5 c 128,-1,15
 50 694 50 694 72 706 c 128,-1,16
 94 718 94 718 121.5 726 c 128,-1,17
 149 734 149 734 184 734 c 0,18,19
 224 734 224 734 258 722 c 128,-1,20
 292 710 292 710 317 687 c 128,-1,21
 342 664 342 664 356 630 c 128,-1,22
 370 596 370 596 370 552 c 256,23,24
 370 508 370 508 356.5 473 c 128,-1,25
 343 438 343 438 319 409 c 128,-1,26
 295 380 295 380 262 355.5 c 128,-1,27
 229 331 229 331 190 308 c 1,28,-1
 190 0 l 1,29,-1
 160 0 l 1,0,-1
EndSplineSet
Validated: 1
EndChar

StartChar: uni0295
Encoding: 661 661 509
Width: 392
Flags: W
LayerCount: 2
Fore
SplineSet
202 0 m 1,0,-1
 202 308 l 1,1,2
 163 331 163 331 130 355.5 c 128,-1,3
 97 380 97 380 73 409 c 128,-1,4
 49 438 49 438 35.5 473 c 128,-1,5
 22 508 22 508 22 552 c 256,6,7
 22 596 22 596 37 630 c 128,-1,8
 52 664 52 664 78 687 c 128,-1,9
 104 710 104 710 140 722 c 128,-1,10
 176 734 176 734 218 734 c 0,11,12
 251 734 251 734 277 726 c 128,-1,13
 303 718 303 718 324 706 c 128,-1,14
 345 694 345 694 361 678.5 c 128,-1,15
 377 663 377 663 390 648 c 1,16,-1
 370 626 l 1,17,18
 358 641 358 641 343.5 655.5 c 128,-1,19
 329 670 329 670 310 681 c 128,-1,20
 291 692 291 692 268 699 c 128,-1,21
 245 706 245 706 216 706 c 0,22,23
 138 706 138 706 96 664 c 128,-1,24
 54 622 54 622 54 554 c 0,25,26
 54 479 54 479 98.5 427.5 c 128,-1,27
 143 376 143 376 232 330 c 1,28,-1
 232 0 l 1,29,-1
 202 0 l 1,0,-1
EndSplineSet
Validated: 1
EndChar

StartChar: uni02A1
Encoding: 673 673 510
Width: 412
Flags: W
LayerCount: 2
Fore
SplineSet
170 0 m 1,0,-1
 170 302 l 1,1,-1
 4 302 l 1,2,-1
 4 326 l 1,3,-1
 80 330 l 1,4,-1
 180 330 l 1,5,6
 265 377 265 377 308.5 431.5 c 128,-1,7
 352 486 352 486 352 554 c 256,8,9
 352 622 352 622 313 664 c 128,-1,10
 274 706 274 706 200 706 c 0,11,12
 169 706 169 706 144.5 699 c 128,-1,13
 120 692 120 692 100 681 c 128,-1,14
 80 670 80 670 64.5 655.5 c 128,-1,15
 49 641 49 641 36 626 c 1,16,-1
 16 648 l 1,17,18
 29 663 29 663 46.5 678.5 c 128,-1,19
 64 694 64 694 86 706 c 128,-1,20
 108 718 108 718 135.5 726 c 128,-1,21
 163 734 163 734 198 734 c 0,22,23
 238 734 238 734 272 722 c 128,-1,24
 306 710 306 710 331 687 c 128,-1,25
 356 664 356 664 370 630 c 128,-1,26
 384 596 384 596 384 552 c 0,27,28
 384 481 384 481 342.5 426.5 c 128,-1,29
 301 372 301 372 236 330 c 1,30,-1
 392 330 l 1,31,-1
 392 302 l 1,32,-1
 200 302 l 1,33,-1
 200 0 l 1,34,-1
 170 0 l 1,0,-1
EndSplineSet
Validated: 1
EndChar

StartChar: uni02A2
Encoding: 674 674 511
Width: 412
Flags: W
LayerCount: 2
Fore
SplineSet
212 0 m 1,0,-1
 212 302 l 1,1,-1
 20 302 l 1,2,-1
 20 330 l 1,3,-1
 176 330 l 1,4,5
 111 372 111 372 69.5 426.5 c 128,-1,6
 28 481 28 481 28 552 c 0,7,8
 28 596 28 596 43 630 c 128,-1,9
 58 664 58 664 84 687 c 128,-1,10
 110 710 110 710 146 722 c 128,-1,11
 182 734 182 734 224 734 c 0,12,13
 257 734 257 734 283 726 c 128,-1,14
 309 718 309 718 330 706 c 128,-1,15
 351 694 351 694 367 678.5 c 128,-1,16
 383 663 383 663 396 648 c 1,17,-1
 376 626 l 1,18,19
 364 641 364 641 349.5 655.5 c 128,-1,20
 335 670 335 670 316 681 c 128,-1,21
 297 692 297 692 274 699 c 128,-1,22
 251 706 251 706 222 706 c 0,23,24
 144 706 144 706 102 664 c 128,-1,25
 60 622 60 622 60 554 c 256,26,27
 60 486 60 486 103.5 431.5 c 128,-1,28
 147 377 147 377 232 330 c 1,29,-1
 332 330 l 1,30,-1
 408 326 l 1,31,-1
 408 302 l 1,32,-1
 242 302 l 1,33,-1
 242 0 l 1,34,-1
 212 0 l 1,0,-1
EndSplineSet
Validated: 1
EndChar

StartChar: uni01C2
Encoding: 450 450 512
Width: 254
Flags: W
LayerCount: 2
Fore
SplineSet
6 332 m 1,0,-1
 6 356 l 1,1,-1
 84 360 l 1,2,-1
 120 360 l 1,3,-1
 120 750 l 1,4,-1
 148 750 l 1,5,-1
 148 360 l 1,6,-1
 248 360 l 1,7,-1
 248 332 l 1,8,-1
 148 332 l 1,9,-1
 148 210 l 1,10,-1
 248 210 l 1,11,-1
 248 182 l 1,12,-1
 148 182 l 1,13,-1
 148 -250 l 1,14,-1
 120 -250 l 1,15,-1
 120 182 l 1,16,-1
 6 182 l 1,17,-1
 6 206 l 1,18,-1
 84 210 l 1,19,-1
 120 210 l 1,20,-1
 120 332 l 1,21,-1
 6 332 l 1,0,-1
EndSplineSet
Validated: 1
EndChar

StartChar: uni0298
Encoding: 664 664 513
Width: 500
Flags: W
LayerCount: 2
Fore
SplineSet
250 -12 m 0,0,1
 206 -12 206 -12 172.5 9.5 c 128,-1,2
 139 31 139 31 115.5 76.5 c 128,-1,3
 92 122 92 122 80 193 c 128,-1,4
 68 264 68 264 68 364 c 0,5,6
 68 452 68 452 80 520.5 c 128,-1,7
 92 589 92 589 115.5 636.5 c 128,-1,8
 139 684 139 684 172.5 709 c 128,-1,9
 206 734 206 734 250 734 c 0,10,11
 293 734 293 734 327 709 c 128,-1,12
 361 684 361 684 384.5 636.5 c 128,-1,13
 408 589 408 589 420 520.5 c 128,-1,14
 432 452 432 452 432 364 c 0,15,16
 432 264 432 264 420 193 c 128,-1,17
 408 122 408 122 384.5 76.5 c 128,-1,18
 361 31 361 31 327 9.5 c 128,-1,19
 293 -12 293 -12 250 -12 c 0,0,1
250 16 m 256,20,21
 283 16 283 16 310.5 35 c 128,-1,22
 338 54 338 54 358 96 c 128,-1,23
 378 138 378 138 389 204 c 128,-1,24
 400 270 400 270 400 364 c 0,25,26
 400 447 400 447 389 511 c 128,-1,27
 378 575 378 575 358 618.5 c 128,-1,28
 338 662 338 662 310.5 684 c 128,-1,29
 283 706 283 706 250 706 c 256,30,31
 217 706 217 706 189.5 684 c 128,-1,32
 162 662 162 662 142 618.5 c 128,-1,33
 122 575 122 575 111 511 c 128,-1,34
 100 447 100 447 100 364 c 0,35,36
 100 270 100 270 111 204 c 128,-1,37
 122 138 122 138 142 96 c 128,-1,38
 162 54 162 54 189.5 35 c 128,-1,39
 217 16 217 16 250 16 c 256,20,21
250 330 m 256,40,41
 236 330 236 330 226 339.5 c 128,-1,42
 216 349 216 349 216 364 c 0,43,44
 216 381 216 381 226 389.5 c 128,-1,45
 236 398 236 398 250 398 c 256,46,47
 264 398 264 398 274 389.5 c 128,-1,48
 284 381 284 381 284 364 c 0,49,50
 284 349 284 349 274 339.5 c 128,-1,51
 264 330 264 330 250 330 c 256,40,41
EndSplineSet
Validated: 1
EndChar

StartChar: f_f
Encoding: 64256 64256 514
Width: 512
GlyphClass: 3
Flags: W
LayerCount: 2
Fore
SplineSet
360 0 m 1,0,-1
 360 450 l 1,1,-1
 130 450 l 1,2,-1
 130 0 l 1,3,-1
 100 0 l 1,4,-1
 100 450 l 1,5,-1
 34 450 l 1,6,-1
 34 474 l 1,7,-1
 100 478 l 1,8,-1
 100 576 l 2,9,10
 100 651 100 651 133 687.5 c 128,-1,11
 166 724 166 724 222 724 c 0,12,13
 240 724 240 724 260 719.5 c 128,-1,14
 280 715 280 715 300 706 c 1,15,-1
 290 680 l 1,16,17
 271 689 271 689 254 692.5 c 128,-1,18
 237 696 237 696 220 696 c 0,19,20
 175 696 175 696 152.5 663.5 c 128,-1,21
 130 631 130 631 130 572 c 2,22,-1
 130 478 l 1,23,-1
 360 478 l 1,24,-1
 360 596 l 2,25,26
 360 667 360 667 389.5 700.5 c 128,-1,27
 419 734 419 734 470 734 c 0,28,29
 501 734 501 734 536 718 c 1,30,-1
 526 692 l 1,31,32
 511 700 511 700 496.5 703 c 128,-1,33
 482 706 482 706 468 706 c 0,34,35
 427 706 427 706 408.5 676 c 128,-1,36
 390 646 390 646 390 592 c 2,37,-1
 390 478 l 1,38,-1
 504 478 l 1,39,-1
 504 450 l 1,40,-1
 390 450 l 1,41,-1
 390 0 l 1,42,-1
 360 0 l 1,0,-1
EndSplineSet
Validated: 1
Ligature2: "'liga' Standard Ligatures lookup 47 subtable" f f
EndChar

StartChar: f_t
Encoding: 1114116 -1 517
Width: 518
GlyphClass: 3
Flags: W
LayerCount: 2
Fore
SplineSet
100 0 m 1,0,-1
 100 450 l 1,1,-1
 34 450 l 1,2,-1
 34 474 l 1,3,-1
 100 478 l 1,4,-1
 100 596 l 2,5,6
 100 667 100 667 129.5 700.5 c 128,-1,7
 159 734 159 734 210 734 c 0,8,9
 241 734 241 734 276 718 c 1,10,-1
 266 692 l 1,11,12
 251 700 251 700 236.5 703 c 128,-1,13
 222 706 222 706 208 706 c 0,14,15
 167 706 167 706 148.5 676 c 128,-1,16
 130 646 130 646 130 592 c 2,17,-1
 130 478 l 1,18,-1
 322 478 l 1,19,-1
 326 618 l 1,20,-1
 352 618 l 1,21,-1
 352 478 l 1,22,-1
 494 478 l 1,23,-1
 494 450 l 1,24,-1
 352 450 l 1,25,-1
 352 122 l 2,26,27
 352 99 352 99 355.5 79.5 c 128,-1,28
 359 60 359 60 368 46 c 128,-1,29
 377 32 377 32 393.5 24 c 128,-1,30
 410 16 410 16 436 16 c 0,31,32
 450 16 450 16 467 21 c 128,-1,33
 484 26 484 26 498 32 c 1,34,-1
 508 6 l 1,35,36
 487 -2 487 -2 466.5 -7 c 128,-1,37
 446 -12 446 -12 434 -12 c 0,38,39
 401 -12 401 -12 379.5 -2 c 128,-1,40
 358 8 358 8 345 26 c 128,-1,41
 332 44 332 44 327 69.5 c 128,-1,42
 322 95 322 95 322 126 c 2,43,-1
 322 450 l 1,44,-1
 130 450 l 1,45,-1
 130 0 l 1,46,-1
 100 0 l 1,0,-1
EndSplineSet
Validated: 1
Ligature2: "'liga' Standard Ligatures lookup 47 subtable" f t
EndChar

